{"glyphs":{"0":{"ha":785,"x_min":63,"x_max":842,"o":"m 772 781 q 842 636 842 758 q 798 425 842 536 q 680 218 754 314 q 496 56 606 122 q 265 -18 386 -10 q 119 48 175 -25 q 63 217 63 121 q 121 446 63 326 q 265 660 179 565 q 485 830 353 757 q 690 903 618 903 q 773 867 731 903 q 815 806 815 831 q 795 790 815 797 q 772 781 775 783 m 425 186 l 561 311 q 681 476 621 378 q 740 636 740 575 q 727 691 740 664 q 688 718 714 718 q 636 692 667 718 q 601 667 606 667 q 588 692 588 667 q 319 461 413 593 q 219 211 226 329 q 228 142 218 179 q 263 104 238 104 q 344 133 292 104 q 425 186 397 161 z "},"1":{"ha":785,"x_min":210,"x_max":747,"o":"m 558 735 l 426 685 q 389 671 399 671 q 378 703 372 671 q 379 715 378 710 q 383 726 381 721 q 388 735 386 732 q 394 743 389 739 q 402 750 400 747 q 411 757 404 753 q 420 763 418 761 q 431 769 422 764 q 442 775 440 774 q 683 894 649 894 q 727 857 707 894 q 747 799 747 819 q 724 726 747 769 q 529 392 700 682 q 367 21 367 118 q 369 -3 367 13 q 371 -28 371 -19 q 351 -47 371 -47 q 322 -35 343 -47 q 285 -16 314 -29 q 244 5 256 -3 q 222 32 233 13 q 210 76 210 51 q 243 218 210 125 q 307 363 276 311 q 561 732 411 536 l 558 735 z "},"2":{"ha":785,"x_min":53,"x_max":851,"o":"m 422 561 l 272 532 q 258 530 269 532 q 238 526 247 528 q 225 525 229 525 q 193 579 193 525 q 218 675 193 617 q 271 764 243 733 q 458 863 326 826 q 696 899 589 899 q 765 891 739 899 q 812 861 790 883 q 842 794 833 839 q 851 679 851 750 q 849 634 851 650 q 829 587 846 618 q 778 527 813 556 q 676 454 743 499 q 510 357 608 410 q 169 147 285 238 l 172 144 l 713 239 q 651 94 674 129 q 528 17 608 32 q 253 -19 367 -14 q 114 -3 140 -24 q 69 66 85 21 q 53 153 53 111 q 66 197 53 174 q 105 247 79 221 q 159 297 131 272 q 228 348 188 321 q 301 396 268 375 q 378 442 333 417 q 447 482 422 468 q 510 516 472 496 q 554 540 547 536 q 750 722 750 647 q 733 749 750 740 q 697 758 717 758 q 647 754 674 758 q 590 740 621 750 q 535 723 558 731 q 476 699 513 715 q 423 676 439 683 q 368 649 407 668 q 322 628 329 631 l 322 625 l 404 615 q 413 615 407 615 q 422 613 418 614 q 432 611 426 613 q 442 608 438 610 q 449 603 446 606 q 455 596 453 600 q 457 586 457 592 q 422 561 457 564 z "},"3":{"ha":785,"x_min":-43,"x_max":886,"o":"m 343 710 l 372 704 q 424 681 424 696 q 399 664 424 668 q 269 654 354 654 q 217 674 236 654 q 199 729 199 694 q 210 774 199 754 q 246 809 222 794 q 287 832 269 824 q 332 851 304 840 q 604 893 438 893 q 703 888 663 893 q 790 867 743 883 q 861 814 836 851 q 886 719 886 776 q 862 641 886 682 q 803 578 838 600 q 638 521 747 543 l 428 475 l 428 472 q 470 465 433 471 q 518 456 507 458 q 563 446 529 454 q 610 430 596 438 q 647 408 624 422 q 682 378 671 394 q 703 339 693 363 q 715 288 714 315 q 688 201 718 250 q 598 102 657 151 q 435 19 539 53 q 207 -14 332 -14 q 60 7 121 -14 q -22 52 0 28 q -43 99 -43 76 q 5 179 -43 125 q 78 233 53 233 q 99 217 99 233 q 67 175 99 207 q 201 143 147 143 q 396 175 296 143 q 555 246 496 207 q 614 310 614 285 q 582 354 614 336 q 501 380 550 372 q 419 390 453 388 q 356 392 386 392 q 232 381 293 392 q 192 375 210 375 q 171 404 167 375 q 215 508 181 472 q 322 549 249 543 q 477 572 376 553 q 681 631 578 592 q 785 714 785 671 q 642 771 785 771 q 343 713 497 771 l 343 710 z "},"4":{"ha":785,"x_min":51,"x_max":869,"o":"m 453 378 l 786 781 l 783 783 q 603 694 656 725 q 378 547 469 617 q 256 441 288 476 q 214 381 225 406 q 265 367 214 368 q 453 378 326 363 m 729 238 l 535 214 q 511 110 511 132 q 539 42 511 83 q 490 17 529 38 q 417 -20 451 -4 q 372 -36 383 -36 q 339 33 339 -36 q 344 85 339 57 q 356 147 349 113 q 367 203 364 182 q 284 198 336 201 q 209 194 232 194 q 157 194 186 193 q 113 201 128 194 q 93 218 99 207 q 51 342 51 296 q 105 458 51 389 q 214 575 158 528 q 544 789 340 685 q 817 893 747 893 q 853 883 838 893 q 869 854 869 874 q 840 811 869 836 q 868 749 878 793 q 832 668 864 708 q 635 389 738 551 q 688 392 653 389 q 740 396 722 396 q 792 361 792 396 q 779 322 792 347 q 749 270 767 297 q 729 238 732 243 z "},"5":{"ha":785,"x_min":-1,"x_max":899,"o":"m 253 690 l 396 843 q 414 862 406 854 q 432 875 422 869 q 447 885 442 881 q 464 892 453 889 q 480 896 475 894 q 498 898 485 897 q 516 899 511 899 q 539 899 521 899 q 564 899 557 899 l 899 899 q 811 753 829 774 q 715 713 779 717 q 679 713 700 713 l 443 715 q 325 574 372 658 q 518 603 438 603 q 680 554 614 603 q 746 414 746 506 q 696 243 746 326 q 485 58 628 129 q 142 -14 342 -14 q 62 -8 90 -14 q 19 14 33 -3 q 2 49 6 31 q -1 106 -1 67 q 51 190 -1 151 q 151 244 103 228 q 217 260 200 260 q 239 244 239 260 q 210 214 239 233 l 125 156 l 128 153 q 500 260 356 178 q 644 410 644 343 q 611 449 644 435 q 549 463 578 463 q 376 440 482 463 q 329 430 356 436 q 287 420 303 424 q 264 417 271 417 q 219 446 239 417 q 192 508 200 475 q 185 565 185 540 q 253 690 185 619 z "},"6":{"ha":785,"x_min":103,"x_max":828,"o":"m 581 706 l 390 540 l 393 538 q 426 553 403 542 q 462 569 449 564 q 495 582 475 575 q 533 592 515 589 q 569 596 551 596 q 690 542 644 596 q 736 411 736 488 q 688 250 736 332 q 575 111 640 168 q 445 18 510 54 q 344 -18 381 -18 q 188 65 274 -18 q 103 265 103 147 q 146 441 103 351 q 260 606 189 531 q 406 741 332 682 q 558 849 479 800 q 636 889 611 881 q 717 897 661 897 q 726 897 718 897 q 744 898 735 897 q 765 898 753 899 q 788 897 778 897 q 808 894 799 896 q 822 888 817 892 q 828 879 828 885 q 799 850 828 863 q 581 706 688 799 m 556 494 q 340 360 494 494 q 291 314 304 328 q 269 274 278 300 q 260 210 260 249 q 294 122 260 117 q 489 233 385 138 q 596 442 593 328 q 594 469 596 460 q 583 487 592 479 q 556 494 574 494 z "},"7":{"ha":785,"x_min":172,"x_max":861,"o":"m 371 406 l 665 714 q 558 715 611 718 q 473 713 504 711 q 408 707 442 714 q 360 699 375 700 q 324 689 346 697 q 297 678 303 681 q 274 666 290 675 q 253 654 258 657 q 208 635 214 635 q 184 644 196 635 q 172 665 172 653 q 212 739 172 685 q 278 821 251 793 q 415 878 314 858 q 750 899 515 899 q 826 874 808 899 q 849 820 838 858 q 861 764 861 782 q 792 682 861 738 q 545 415 644 557 q 397 85 446 272 q 431 92 415 92 q 446 78 444 92 q 367 10 449 61 q 244 -43 286 -42 q 190 -19 207 -44 q 174 44 174 6 q 371 406 174 156 z "},"8":{"ha":785,"x_min":96,"x_max":901,"o":"m 722 722 l 615 731 q 442 703 507 739 q 378 619 378 668 q 403 558 378 599 q 454 492 428 518 l 722 722 m 410 333 l 293 226 q 218 111 218 158 q 229 86 218 90 q 265 82 240 82 q 395 119 335 82 q 456 221 456 157 q 410 333 456 267 m 739 632 l 508 426 q 578 225 575 344 q 565 154 578 190 q 519 79 551 118 q 418 13 486 40 q 257 -19 350 -14 q 149 8 201 -24 q 96 93 96 39 q 113 160 96 125 q 165 235 129 196 q 226 299 201 275 q 297 363 250 322 q 350 410 343 403 q 333 432 347 414 q 314 456 318 450 q 297 477 310 461 q 281 501 285 493 q 267 524 276 510 q 254 550 258 539 q 245 576 250 561 q 239 604 240 590 q 238 633 238 618 q 295 771 238 714 q 438 857 353 828 q 703 907 560 897 q 879 890 818 911 q 901 864 901 885 q 860 768 901 832 q 822 722 836 732 q 783 717 808 711 q 782 678 789 692 q 739 632 775 665 z "},"9":{"ha":785,"x_min":142,"x_max":849,"o":"m 769 685 l 718 653 q 674 635 690 635 q 658 651 658 635 q 731 724 658 663 l 728 726 q 390 585 499 668 q 282 424 282 501 q 304 401 282 401 q 490 459 378 401 q 674 576 603 517 q 772 635 747 635 q 819 625 790 635 q 847 600 847 615 q 801 525 847 575 l 436 96 q 335 -2 376 26 q 250 -35 294 -31 q 219 -10 219 -37 q 256 61 219 1 q 266 78 258 67 q 276 94 274 90 q 285 106 279 99 q 298 117 292 114 q 313 121 304 119 q 335 122 322 122 l 597 435 l 594 438 q 445 347 532 393 q 314 300 358 300 q 206 366 271 300 q 142 511 142 432 q 233 687 142 594 q 460 840 325 779 q 713 899 596 900 q 799 842 750 897 q 849 758 849 786 q 846 745 849 751 q 837 732 843 739 q 825 720 831 725 q 810 709 819 715 q 796 700 801 703 q 781 692 790 697 q 769 685 771 686 z "}," ":{"ha":472,"x_min":0,"x_max":0,"o":""},"!":{"ha":544,"x_min":99,"x_max":590,"o":"m 174 -15 q 122 5 146 -15 q 99 51 99 25 q 122 160 99 99 q 179 221 146 221 q 240 194 215 221 q 265 132 265 168 q 241 35 265 85 q 174 -15 217 -15 m 221 439 l 417 886 l 424 903 q 433 924 431 919 q 444 939 436 928 q 460 953 451 950 q 478 957 468 957 q 496 955 485 957 q 519 949 507 953 q 536 944 532 946 q 547 942 538 944 q 562 938 556 940 q 575 933 568 936 q 586 924 582 929 q 590 913 590 919 q 550 813 590 893 l 301 328 q 308 304 308 314 q 295 263 308 283 q 263 243 282 243 q 208 269 238 243 q 179 318 179 294 q 221 439 179 342 z "},"\"":{"ha":463,"x_min":53,"x_max":410,"o":"m 53 907 q 113 989 53 989 q 172 907 172 989 q 146 593 172 876 q 113 550 142 550 q 79 593 83 550 q 53 907 53 876 m 290 907 q 350 989 290 989 q 410 907 410 989 q 383 593 410 876 q 350 550 379 550 q 317 593 321 550 q 290 907 290 876 z "},"#":{"ha":782,"x_min":74,"x_max":840,"o":"m 185 0 l 96 0 l 206 261 l 74 261 l 94 349 l 243 349 l 325 542 l 182 542 l 204 629 l 360 629 l 469 886 l 558 886 l 449 629 l 618 629 l 726 886 l 817 886 l 708 629 l 840 629 l 818 542 l 672 542 l 590 349 l 731 349 l 708 261 l 554 261 l 443 0 l 354 0 l 464 261 l 294 261 l 185 0 m 331 349 l 500 349 l 583 542 l 414 542 l 331 349 z "},"$":{"ha":785,"x_min":-47,"x_max":922,"o":"m 394 518 l 443 678 q 337 633 408 671 q 265 572 265 596 q 394 518 265 539 m 483 401 l 439 233 q 460 240 443 235 q 492 251 478 246 q 526 263 506 256 q 563 278 547 271 q 594 294 579 285 q 616 312 608 303 q 624 331 624 321 q 598 363 624 349 q 530 388 572 376 q 483 401 488 400 m 321 218 l 372 426 q 292 440 331 435 q 235 450 254 446 q 188 465 217 454 q 143 540 143 482 q 160 622 143 567 q 192 701 178 678 q 506 860 242 789 q 516 889 506 861 q 530 926 526 917 q 544 963 533 935 q 563 1003 556 990 q 583 1040 571 1017 q 608 1074 596 1063 q 634 1100 619 1086 q 665 1119 649 1114 q 697 1125 681 1125 q 725 1111 714 1125 q 736 1079 736 1097 q 710 1018 736 1049 q 663 953 676 976 q 632 881 649 931 l 761 889 q 899 872 836 894 q 913 867 908 869 q 921 860 918 865 q 922 846 924 856 q 892 744 914 771 q 807 694 871 717 q 699 642 736 669 q 653 621 671 621 q 636 636 636 621 q 640 644 638 640 q 649 654 643 649 q 659 665 654 660 q 674 677 664 669 q 692 690 685 685 q 713 706 699 696 q 736 722 728 715 l 733 725 l 565 703 l 506 493 q 548 479 517 489 q 601 462 579 469 q 653 440 624 454 q 701 413 682 426 q 733 378 719 399 q 746 335 746 358 q 713 236 746 283 q 632 157 681 189 q 401 61 542 97 l 369 -122 q 341 -116 364 -121 q 304 -106 318 -111 q 278 -90 290 -101 q 265 -62 265 -79 q 273 -10 265 -43 q 281 33 281 24 q 117 32 222 29 q -47 101 -42 35 q -17 170 -49 125 q 54 215 15 215 l 321 218 z "},"%":{"ha":893,"x_min":121,"x_max":900,"o":"m 440 896 q 511 813 511 894 q 427 597 511 710 q 244 485 343 485 q 155 535 189 485 q 121 643 121 585 q 220 858 121 763 q 404 963 319 953 q 438 951 421 965 q 454 919 454 936 q 440 896 454 910 m 339 833 q 258 749 293 804 q 222 643 222 693 q 226 617 222 632 q 233 601 231 601 q 368 692 294 592 q 442 833 442 792 q 418 850 442 850 q 391 835 407 850 q 365 821 375 821 q 339 833 354 821 m 829 401 q 900 318 900 400 q 816 103 900 215 q 633 -10 732 -10 q 544 40 578 -10 q 510 149 510 90 q 609 363 510 268 q 793 468 708 458 q 826 456 810 471 q 843 425 843 442 q 829 401 843 415 m 728 339 q 647 254 682 310 q 611 149 611 199 q 615 122 611 138 q 622 107 619 107 q 757 197 683 97 q 831 339 831 297 q 807 356 831 356 q 780 341 796 356 q 754 326 764 326 q 728 339 743 326 m 285 283 l 567 622 q 899 924 718 804 q 883 815 911 869 q 742 642 856 761 q 506 369 629 524 q 301 83 383 214 q 253 0 258 17 q 247 -17 249 -12 q 240 -31 246 -21 q 228 -44 235 -40 q 211 -47 221 -47 q 163 -20 183 -47 q 142 36 142 7 q 285 283 142 110 z "},"&":{"ha":808,"x_min":-7,"x_max":822,"o":"m 472 646 q 700 867 700 785 q 676 883 700 886 q 600 856 633 875 q 548 817 567 836 q 513 763 529 799 q 490 707 496 726 q 472 646 483 688 m 407 251 l 329 428 q 206 331 276 406 q 133 210 135 257 q 199 185 132 185 q 407 251 285 185 m 697 643 l 490 522 q 558 350 504 432 l 781 526 q 807 419 807 447 q 788 358 807 390 q 753 309 769 325 q 697 258 738 293 q 651 219 656 224 q 694 182 661 182 q 716 188 703 182 q 735 193 729 193 q 750 185 743 193 q 757 168 757 176 q 709 67 757 135 q 628 -1 661 -1 q 597 12 615 -1 q 564 40 578 25 q 531 75 550 54 q 507 100 511 96 q 465 74 506 99 q 414 43 424 49 q 369 19 404 38 q 314 -4 333 1 q 266 -17 294 -10 q 211 -24 238 -24 q 49 40 115 -24 q -7 194 -17 103 q 18 305 -1 256 q 63 388 38 354 q 126 451 88 421 q 199 501 164 482 q 282 547 233 521 q 299 556 293 553 q 319 711 286 636 q 412 837 353 786 q 544 919 471 888 q 685 953 617 950 q 780 917 738 956 q 822 825 822 878 q 697 643 822 718 z "},"'":{"ha":308,"x_min":94,"x_max":214,"o":"m 94 907 q 154 989 94 989 q 214 907 214 989 q 188 593 214 876 q 154 550 183 550 q 121 593 125 550 q 94 907 94 876 z "},"(":{"ha":453,"x_min":68,"x_max":551,"o":"m 199 564 q 249 670 219 613 q 324 804 279 728 q 416 931 368 881 q 501 981 464 981 q 551 928 551 981 q 521 861 551 903 q 317 465 408 703 q 225 54 225 226 q 236 -67 225 14 q 250 -64 242 -64 q 271 -119 271 -64 q 246 -190 271 -158 q 183 -221 221 -221 q 68 60 68 -221 q 199 564 68 274 z "},")":{"ha":453,"x_min":24,"x_max":507,"o":"m 376 196 q 326 90 356 147 q 251 -44 296 32 q 159 -171 207 -121 q 74 -221 111 -221 q 24 -168 24 -221 q 54 -101 24 -143 q 258 295 167 57 q 350 706 350 533 q 339 826 350 746 q 325 824 333 824 q 304 879 304 824 q 329 949 304 918 q 392 981 354 981 q 507 700 507 981 q 376 196 507 486 z "},"*":{"ha":761,"x_min":160,"x_max":735,"o":"m 518 643 l 642 546 q 652 536 644 543 q 665 524 660 529 q 674 513 669 519 q 678 499 678 506 q 663 454 678 488 q 644 413 647 421 l 474 561 l 461 328 q 424 338 450 332 q 391 349 399 344 q 375 369 383 354 q 367 408 367 383 q 385 563 367 429 l 253 472 q 238 460 249 469 q 217 447 226 451 q 200 442 208 442 q 171 457 182 442 q 160 492 160 472 q 194 557 160 526 q 285 618 228 588 q 354 657 343 649 q 260 728 308 700 q 228 747 236 740 q 213 767 219 753 q 206 806 206 782 q 242 860 206 860 q 260 858 251 860 q 278 849 269 856 q 292 838 288 842 q 306 824 296 835 q 319 810 317 813 q 359 774 332 797 q 399 739 386 751 l 401 839 q 401 853 401 844 q 402 868 401 863 q 404 881 403 874 q 408 894 406 888 q 417 906 411 900 q 481 950 457 950 q 504 940 494 950 q 514 915 514 931 q 506 878 514 903 q 496 808 504 875 l 488 733 q 664 810 617 810 q 688 801 679 810 q 708 775 696 793 q 735 743 719 757 l 518 643 z "},"+":{"ha":892,"x_min":192,"x_max":825,"o":"m 825 319 l 553 319 l 553 15 l 465 15 l 465 319 l 192 319 l 192 403 l 465 403 l 465 682 l 553 682 l 553 403 l 825 403 l 825 319 z "},",":{"ha":418,"x_min":68,"x_max":276,"o":"m 78 60 q 119 149 78 103 q 206 194 161 194 q 276 163 276 194 q 253 83 276 136 q 211 8 231 31 q 182 -26 196 -11 q 158 -50 168 -40 q 137 -66 149 -60 q 119 -76 125 -72 q 104 -81 114 -79 q 92 -83 94 -83 q 79 -83 89 -83 q 68 -83 69 -83 q 131 11 114 -22 q 104 20 113 17 q 87 34 96 24 q 78 60 78 44 z "},"-":{"ha":444,"x_min":0,"x_max":417,"o":"m 0 444 l 417 444 l 417 322 l 0 322 l 0 444 z "},".":{"ha":418,"x_min":76,"x_max":285,"o":"m 164 -7 q 124 -1 139 -4 q 92 16 108 3 q 76 51 76 29 q 119 154 76 97 q 217 200 163 211 q 231 198 219 200 q 250 194 243 196 q 266 188 257 192 q 280 175 275 183 q 285 156 285 167 q 274 110 285 147 q 233 31 263 74 q 164 -7 203 -11 z "},"/":{"ha":642,"x_min":47,"x_max":738,"o":"m 688 872 l 413 425 q 260 150 306 250 q 164 -99 214 50 q 138 -129 154 -129 q 73 -101 99 -129 q 47 -35 47 -74 q 74 76 47 6 q 163 257 101 146 q 253 418 224 368 q 353 586 282 468 q 371 617 365 607 q 725 1067 557 929 q 738 990 738 1022 q 688 872 738 956 z "},":":{"ha":418,"x_min":67,"x_max":440,"o":"m 154 -7 q 114 -1 129 -4 q 83 16 99 3 q 67 51 67 29 q 110 154 67 97 q 207 200 153 211 q 222 198 210 200 q 240 194 233 196 q 256 188 247 192 q 270 175 265 183 q 275 156 275 167 q 264 110 275 147 q 223 31 253 74 q 154 -7 193 -11 m 319 322 q 279 328 294 325 q 248 345 264 332 q 232 381 232 358 q 275 483 232 426 q 372 529 318 540 q 387 527 375 529 q 406 523 399 525 q 422 517 413 521 q 435 504 431 513 q 440 485 440 496 q 429 440 440 476 q 388 360 418 403 q 319 322 358 318 z "},";":{"ha":418,"x_min":67,"x_max":442,"o":"m 76 60 q 118 149 76 103 q 204 194 160 194 q 275 163 275 194 q 252 83 275 136 q 210 8 229 31 q 181 -26 194 -11 q 157 -50 167 -40 q 135 -66 147 -60 q 118 -76 124 -72 q 103 -81 113 -79 q 90 -83 93 -83 q 78 -83 88 -83 q 67 -83 68 -83 q 129 11 113 -22 q 103 20 111 17 q 85 34 94 24 q 76 60 76 44 m 321 324 q 281 330 296 326 q 249 347 265 333 q 233 382 233 360 q 276 485 233 428 q 374 531 319 542 q 388 528 376 531 q 407 524 400 526 q 423 518 414 522 q 437 506 432 514 q 442 486 442 497 q 431 441 442 478 q 390 362 419 404 q 321 324 360 319 z "},"<":{"ha":900,"x_min":206,"x_max":831,"o":"m 831 6 l 206 318 l 206 403 l 831 714 l 831 621 l 292 363 l 292 360 l 831 99 l 831 6 z "},"=":{"ha":857,"x_min":158,"x_max":790,"o":"m 790 461 l 158 461 l 158 544 l 790 544 l 790 461 m 790 179 l 158 179 l 158 263 l 790 263 l 790 179 z "},">":{"ha":900,"x_min":206,"x_max":831,"o":"m 206 714 l 831 403 l 831 317 l 207 6 l 207 99 l 744 358 l 744 361 l 206 621 l 206 714 z "},"?":{"ha":649,"x_min":167,"x_max":690,"o":"m 311 760 l 325 754 q 367 721 367 739 q 338 696 367 696 q 313 700 333 696 l 258 708 q 244 708 256 708 q 228 709 233 708 q 215 712 224 710 q 203 717 207 714 q 195 728 199 721 q 192 744 192 735 q 204 801 192 764 q 228 857 217 838 q 352 926 254 900 q 521 951 450 951 q 647 918 604 951 q 690 804 690 885 q 593 563 690 678 l 413 349 q 399 334 408 343 q 387 320 390 325 q 380 306 383 315 q 376 286 376 296 q 381 268 376 281 q 385 249 385 256 q 354 217 385 217 q 299 250 322 217 q 275 317 275 283 q 375 489 275 394 l 535 636 q 555 654 536 638 q 580 677 574 671 q 599 698 586 683 q 616 726 611 713 q 621 751 621 739 q 613 785 621 772 q 588 803 604 799 q 558 810 571 808 q 524 811 544 811 q 446 803 486 811 q 384 787 406 794 q 311 760 363 779 m 242 -15 q 190 5 214 -15 q 167 51 167 25 q 190 160 167 99 q 247 221 214 221 q 308 194 283 221 q 333 132 333 168 q 309 35 333 85 q 242 -15 285 -15 z "},"@":{"ha":1103,"x_min":86,"x_max":1092,"o":"m 689 -36 l 696 -99 q 431 -156 572 -156 q 131 -35 224 -156 q 86 278 39 86 q 324 640 139 490 q 746 790 508 790 q 1044 675 954 790 q 1092 392 1133 560 q 953 160 1056 246 q 744 75 851 75 q 672 107 696 75 q 660 197 647 139 l 656 197 q 428 75 550 75 q 328 124 361 75 q 317 254 296 172 q 465 479 349 388 q 721 571 581 571 q 881 539 819 571 l 772 296 q 781 150 710 153 q 909 210 839 150 q 1008 386 979 271 q 968 630 1044 535 q 715 725 892 725 q 385 600 551 725 q 172 286 219 475 q 213 13 129 114 q 461 -87 296 -87 q 689 -36 586 -87 m 693 342 l 757 482 q 685 493 724 493 q 528 428 604 493 q 429 275 451 364 q 433 199 418 229 q 494 169 449 169 q 604 224 544 169 q 693 342 664 279 z "},"A":{"ha":1082,"x_min":-101,"x_max":1142,"o":"m 774 483 l 963 800 l 960 803 l 558 471 l 561 468 l 774 483 m 839 319 l 751 149 q 776 126 751 126 q 785 127 781 126 q 794 129 790 128 q 805 135 799 131 q 816 142 811 139 q 831 152 821 144 q 848 165 840 160 q 871 182 856 171 q 899 203 886 193 l 924 167 q 640 -12 744 -12 q 588 11 606 -12 q 569 71 569 35 q 569 75 569 72 q 568 81 568 78 q 569 91 568 83 q 574 108 571 99 q 585 135 578 118 q 603 175 593 153 q 631 231 614 197 q 671 306 649 265 l 368 296 l 83 13 q 70 -1 82 11 q 55 -16 58 -12 q 40 -31 51 -19 q 22 -46 28 -42 q 4 -58 15 -50 q -15 -70 -7 -67 q -33 -76 -24 -74 q -53 -79 -43 -79 q -101 -49 -101 -79 q -28 68 -101 -8 q 136 176 46 144 l 244 296 q 144 295 178 290 q 110 324 110 300 q 172 410 110 347 q 285 490 235 474 q 369 510 329 506 q 414 500 410 514 q 363 481 414 488 q 313 463 313 475 q 332 450 313 450 q 417 454 399 454 l 728 713 q 1093 951 1017 951 q 1128 932 1114 951 q 1142 892 1142 913 q 1099 790 1142 868 l 926 489 q 970 490 953 489 q 990 493 988 492 q 1001 494 993 494 q 1017 492 1010 493 q 1054 483 1025 490 q 950 325 1006 426 l 839 319 z "},"B":{"ha":986,"x_min":75,"x_max":1090,"o":"m 479 451 q 559 440 486 450 q 679 418 632 429 q 789 388 726 407 q 885 340 851 369 q 918 272 918 310 q 884 197 918 240 q 788 107 850 153 q 615 26 725 61 q 374 -15 506 -8 q 294 -11 333 -18 q 217 12 254 -4 q 158 61 181 28 q 135 139 135 94 q 139 182 135 167 q 176 248 143 197 q 289 403 210 299 q 251 406 263 404 q 213 413 239 407 q 174 429 186 418 q 161 457 161 440 q 208 499 161 483 q 322 522 256 514 q 397 532 389 529 q 449 585 404 539 q 512 644 494 631 q 568 687 529 658 q 642 726 607 715 q 718 736 678 736 q 583 560 703 700 q 743 591 672 572 q 856 629 814 610 q 924 669 897 649 q 960 706 950 690 q 968 735 969 722 q 952 769 967 753 q 890 797 938 785 q 767 803 842 808 q 376 706 607 789 q 396 685 396 696 q 346 653 396 661 q 153 600 283 643 q 110 590 124 590 q 75 628 75 590 q 92 672 75 638 q 139 744 110 707 q 256 854 207 836 q 524 927 360 894 q 794 960 689 960 q 1024 910 957 960 q 1090 790 1090 860 q 1076 722 1090 754 q 1034 663 1063 689 q 976 616 1006 638 q 899 576 947 594 q 818 547 851 558 q 729 522 785 535 q 647 503 674 510 q 569 488 621 497 q 507 476 517 478 l 479 451 m 418 382 l 340 297 q 292 218 292 244 q 344 160 292 179 q 446 142 397 142 q 650 195 539 143 q 761 289 761 247 q 633 358 761 335 q 418 382 504 382 z "},"C":{"ha":993,"x_min":-12,"x_max":1018,"o":"m 483 440 l 586 531 q 657 585 640 585 q 671 553 681 585 l 674 550 q 833 717 769 633 q 896 838 896 801 q 858 865 896 875 q 845 863 857 865 q 822 856 833 860 q 789 846 810 853 q 744 826 768 839 q 690 794 721 813 q 624 747 660 775 q 549 683 589 718 q 462 597 510 647 q 364 489 414 547 q 243 299 290 403 q 196 115 196 194 q 343 -42 196 -42 q 640 71 460 -42 q 956 303 821 183 q 949 244 957 268 q 928 207 940 221 q 885 163 917 193 q 533 -100 699 -18 q 253 -182 367 -182 q 61 -113 135 -182 q -12 74 -12 -44 q 81 362 -12 213 q 301 632 174 511 q 592 855 418 743 q 876 967 765 967 q 978 933 940 967 q 1018 835 1015 899 q 965 671 1022 768 q 826 489 908 574 q 651 340 744 404 q 494 265 558 275 q 440 281 464 261 q 417 332 417 300 q 483 440 417 383 z "},"D":{"ha":1117,"x_min":75,"x_max":1176,"o":"m 619 661 l 313 261 q 283 167 267 201 q 363 142 299 143 q 682 201 501 140 q 981 373 886 274 q 1075 574 1075 472 q 763 758 1075 733 q 665 764 747 760 q 619 661 649 700 m 256 344 l 588 758 q 289 693 417 742 l 289 690 l 326 690 q 401 675 401 690 q 358 650 401 654 q 249 621 333 646 q 128 596 165 596 q 75 644 75 596 q 94 740 75 658 q 138 820 107 792 q 226 875 169 849 q 458 945 325 918 q 699 972 590 972 q 1031 899 915 972 q 1140 768 1103 851 q 1176 592 1176 685 q 1082 336 1176 453 q 847 140 988 219 q 567 31 733 76 q 274 -15 401 -15 q 154 0 182 -15 q 122 74 122 17 q 146 175 122 121 q 192 261 169 229 q 256 344 214 293 z "},"E":{"ha":975,"x_min":29,"x_max":1039,"o":"m 1039 856 q 1031 780 1042 796 q 963 746 1021 764 q 880 711 924 733 q 807 673 836 689 q 768 656 778 657 q 758 659 764 654 q 753 669 753 664 q 849 768 753 693 q 669 756 756 769 q 524 720 583 742 q 419 673 464 699 q 355 625 375 647 q 338 588 335 603 q 363 558 342 567 q 779 535 435 528 q 872 504 872 535 q 854 456 872 486 q 821 414 836 426 q 689 378 799 394 q 462 319 564 357 q 303 242 360 282 q 216 167 246 201 q 186 113 186 133 q 303 68 186 72 q 631 117 447 60 q 720 153 675 131 q 826 214 765 176 q 910 264 886 251 q 901 135 915 182 q 829 42 886 89 q 767 -2 806 21 q 665 -54 729 -25 q 508 -101 600 -83 q 317 -117 417 -118 q 126 -86 232 -115 q 57 -25 85 -75 q 29 71 29 25 q 56 155 29 110 q 140 253 83 200 q 307 356 197 306 q 561 443 417 407 l 561 447 q 369 465 447 451 q 252 502 292 479 q 197 550 213 525 q 181 607 181 575 q 204 696 181 650 q 281 788 228 742 q 410 872 335 835 q 597 933 485 910 q 840 956 708 956 q 1036 914 1017 956 l 1039 856 z "},"F":{"ha":965,"x_min":65,"x_max":1075,"o":"m 743 238 l 506 -12 q 359 -143 451 -69 q 225 -217 267 -217 q 201 -207 211 -217 q 192 -182 192 -197 q 220 -114 192 -156 q 276 -43 249 -72 q 421 44 332 21 l 583 217 l 376 200 q 335 202 363 199 q 306 218 307 206 q 342 314 296 285 q 529 381 411 358 l 742 421 q 843 588 786 479 q 900 742 900 696 q 892 760 900 754 q 878 767 885 767 q 856 768 872 768 q 740 757 811 768 q 274 626 472 713 l 276 624 l 349 625 q 375 613 375 625 q 333 589 375 600 l 172 539 q 103 524 128 525 q 72 531 78 524 q 65 551 65 538 q 106 657 65 579 q 172 764 147 735 q 236 817 197 796 q 301 846 275 839 q 382 865 326 853 q 932 953 764 953 q 1075 879 1075 953 q 998 659 1075 811 q 857 413 921 507 l 950 397 l 894 308 q 857 264 871 271 q 824 253 843 258 q 778 244 804 249 q 743 238 751 239 z "},"G":{"ha":968,"x_min":43,"x_max":1026,"o":"m 626 319 l 472 207 q 448 189 468 204 q 419 167 428 174 q 389 145 410 160 q 356 123 368 131 q 323 103 343 115 q 289 86 303 92 q 258 74 275 81 q 226 66 240 68 q 199 65 211 64 q 82 128 121 74 q 43 260 43 182 q 94 442 43 343 q 214 610 146 540 q 501 822 313 718 q 944 954 690 925 q 1001 931 981 958 q 1026 842 1026 896 q 969 767 1026 804 q 738 640 775 640 q 719 660 719 640 q 757 700 719 674 l 815 747 l 813 750 q 535 626 667 707 q 326 464 404 544 q 203 315 247 383 q 165 219 160 247 q 214 167 178 167 q 308 210 251 167 l 817 596 q 849 614 835 614 q 900 590 863 614 q 935 553 935 571 q 915 504 935 543 q 853 392 889 450 q 755 238 818 335 q 661 94 692 142 l 664 92 l 969 289 q 956 224 967 242 q 788 89 931 186 l 564 -62 q 384 -257 503 -146 q 203 -368 265 -368 q 151 -310 154 -368 q 225 -160 149 -242 q 407 -26 301 -78 q 629 317 561 171 l 626 319 z "},"H":{"ha":1251,"x_min":89,"x_max":1354,"o":"m 818 242 l 563 208 l 418 39 q 407 22 417 36 q 392 0 397 8 q 376 -19 386 -8 q 357 -35 367 -29 q 338 -40 347 -40 q 292 -22 314 -40 q 269 19 269 -4 q 326 112 269 42 q 388 192 382 182 q 246 249 246 179 q 272 315 246 275 q 324 354 297 354 q 339 349 328 354 q 356 344 350 344 q 371 348 360 344 q 437 364 382 351 q 583 394 492 376 q 858 693 668 478 q 917 789 917 756 q 868 819 917 819 q 392 674 743 819 q 411 653 411 665 q 376 619 411 631 q 314 597 338 606 q 280 582 290 588 q 240 561 269 576 q 186 533 211 546 q 131 514 147 514 q 99 534 108 514 q 89 578 89 554 q 103 658 89 610 q 136 731 118 707 q 497 889 190 792 q 704 939 588 918 q 907 960 821 960 q 1022 921 986 960 q 1057 824 1057 882 q 1035 744 1057 786 q 988 672 1013 701 q 929 606 963 642 q 918 594 921 599 l 761 428 l 975 453 l 1226 768 q 1331 868 1301 868 q 1354 836 1354 868 q 1335 765 1354 800 q 1240 638 1315 729 l 1090 453 q 1109 453 1093 453 q 1129 452 1125 453 q 1148 451 1133 451 q 1168 449 1163 450 q 1187 448 1174 449 q 1207 445 1200 447 q 1225 440 1214 443 q 1244 435 1236 438 q 1261 428 1251 432 q 1279 418 1271 424 q 1113 232 1178 339 q 971 242 1047 247 q 945 201 968 236 q 910 142 922 167 q 899 99 899 117 q 914 15 899 88 q 836 -8 892 21 q 763 -31 781 -36 q 738 39 728 -18 q 818 242 750 113 z "},"I":{"ha":685,"x_min":72,"x_max":781,"o":"m 256 517 l 290 524 q 343 532 336 532 q 356 518 356 532 q 353 506 356 513 q 344 495 350 500 q 335 487 339 490 q 324 478 331 483 q 314 471 317 472 q 297 458 311 469 q 271 439 282 447 q 244 420 260 431 q 217 404 229 410 q 197 399 204 399 q 122 437 174 399 q 72 501 69 475 q 179 713 82 603 q 407 892 276 822 q 643 963 538 963 q 745 919 710 963 q 781 807 781 875 q 714 579 781 725 q 581 326 647 433 q 444 117 515 219 q 420 17 461 75 q 344 -43 379 -40 q 292 -24 319 -46 q 265 22 265 -3 q 289 76 265 44 q 559 507 460 322 q 658 749 658 692 q 649 788 658 769 q 621 806 640 806 q 432 706 557 797 q 256 517 307 614 z "},"J":{"ha":756,"x_min":-46,"x_max":831,"o":"m 479 131 l 197 -196 q 8 -346 68 -346 q -31 -325 -15 -346 q -46 -281 -46 -304 q 379 149 -46 -101 l 578 482 q 708 840 685 663 q 435 644 554 788 q 286 339 317 501 q 381 394 376 394 q 393 383 393 394 q 383 365 393 378 q 364 340 374 351 q 340 315 354 329 q 325 299 326 300 q 313 285 324 297 q 298 268 301 272 q 283 251 294 264 q 265 233 271 239 q 247 218 258 228 q 227 203 235 208 q 209 192 219 199 q 189 184 199 186 q 169 182 179 182 q 115 286 115 182 q 213 596 115 414 q 340 768 264 693 q 490 883 415 843 q 627 943 565 924 q 731 963 689 963 q 799 931 767 963 q 831 874 831 899 q 772 653 831 794 q 543 224 714 511 l 546 221 l 707 292 l 725 247 l 479 131 z "},"K":{"ha":1167,"x_min":99,"x_max":1329,"o":"m 210 79 l 417 346 q 393 404 393 379 q 481 513 393 467 l 628 589 l 763 800 q 558 740 651 774 q 415 683 465 707 q 221 589 365 660 q 142 563 168 563 q 99 604 99 563 q 133 735 99 636 q 142 758 138 749 q 150 774 147 768 q 162 788 153 781 q 173 799 171 796 q 190 812 175 801 q 210 826 204 822 l 286 883 q 329 904 318 904 q 343 889 343 904 l 343 888 q 335 872 343 881 q 279 822 326 863 l 282 819 q 357 849 292 822 q 476 894 422 875 q 615 934 531 914 q 774 958 700 954 q 803 956 792 960 q 819 947 814 953 q 839 925 825 942 q 879 847 879 874 q 844 774 879 825 l 774 671 l 776 668 l 1219 878 q 1303 910 1290 910 q 1329 883 1329 910 q 1306 833 1329 871 q 1238 763 1282 796 q 1150 743 1193 731 l 640 489 q 608 438 608 467 q 617 417 608 428 q 632 402 625 407 q 655 389 639 397 q 672 379 671 381 l 1024 175 q 1086 135 1063 153 q 1131 85 1110 117 q 1151 17 1151 54 q 1117 -51 1151 -51 q 1047 -21 1099 -51 l 499 281 l 388 147 q 326 43 389 100 q 218 -14 263 -14 q 181 17 181 -14 q 210 79 181 42 z "},"L":{"ha":972,"x_min":-78,"x_max":1032,"o":"m 106 40 l 75 26 q 42 14 65 24 q 1 -1 19 4 q -35 -7 -18 -7 q -78 22 -78 -7 q -72 46 -78 32 q -53 77 -65 60 q -32 108 -42 94 q -8 139 -22 121 q 8 160 6 157 q 51 199 33 194 q 144 213 83 206 q 231 225 206 221 l 635 706 q 803 874 693 775 q 963 972 914 972 q 1014 944 996 972 q 1032 882 1032 917 q 1012 802 1032 851 q 970 715 992 753 q 915 622 949 676 q 874 551 882 567 q 899 532 899 549 q 821 451 899 507 q 803 438 818 449 q 776 418 788 426 q 748 400 764 410 q 719 385 732 390 q 700 379 707 379 q 668 421 668 379 q 854 751 668 542 q 861 776 871 771 q 857 778 860 778 q 625 546 828 778 l 347 228 q 906 110 685 163 l 832 36 q 794 -2 803 7 q 760 -24 786 -11 q 724 -37 735 -37 q 669 -34 713 -37 q 592 -23 626 -31 q 476 1 557 -15 q 106 40 271 46 z "},"M":{"ha":1588,"x_min":63,"x_max":1669,"o":"m 650 217 l 744 340 q 969 679 899 543 q 984 714 981 700 q 984 733 988 728 q 972 739 981 739 q 929 710 954 739 l 596 349 l 388 68 q 379 57 386 67 q 370 44 372 47 q 360 32 368 42 q 349 19 353 22 q 338 8 346 15 q 326 -2 331 1 q 313 -10 321 -6 q 299 -15 306 -14 q 285 -17 292 -17 q 258 -8 271 -17 q 236 13 244 1 q 218 44 228 24 q 203 77 208 65 q 192 110 199 89 q 183 136 185 132 l 474 503 q 571 792 635 792 q 528 775 561 792 q 353 691 431 729 q 240 633 276 653 q 179 599 204 614 q 143 580 154 585 q 124 574 132 575 q 96 572 115 572 q 67 586 78 572 q 63 624 57 600 q 99 788 92 779 q 103 793 100 789 q 106 798 106 797 q 112 803 107 799 q 122 812 117 808 q 135 822 126 815 q 156 838 144 829 q 185 860 168 847 q 226 889 203 872 q 261 908 251 908 q 278 894 278 908 q 204 814 278 878 l 207 811 l 364 883 q 392 896 365 883 q 450 922 419 908 q 517 949 481 935 q 583 973 553 964 q 626 981 613 982 q 641 978 635 981 q 651 974 647 976 q 660 967 656 972 q 667 958 665 961 q 673 947 668 956 q 679 936 678 939 l 713 878 q 729 825 729 847 q 688 697 729 799 q 643 583 646 594 l 646 581 l 867 794 q 1093 949 1028 947 q 1159 926 1124 950 q 1194 853 1194 901 q 1180 783 1194 824 q 1136 692 1165 743 q 1087 607 1107 640 q 1029 519 1067 574 q 988 457 992 464 l 990 454 q 1149 594 1049 504 q 1336 759 1250 685 q 1503 897 1422 833 q 1515 908 1506 900 q 1529 919 1524 915 q 1543 930 1535 924 q 1559 939 1551 936 q 1574 942 1567 942 q 1635 894 1600 942 q 1669 822 1669 847 q 1610 725 1669 800 l 1394 463 q 1235 147 1235 268 q 1248 101 1235 122 q 1283 79 1261 79 q 1403 139 1317 79 q 1618 324 1489 199 l 1624 271 q 1428 67 1597 196 q 1172 -61 1258 -61 q 1079 -12 1108 -61 q 1050 107 1050 38 q 1058 178 1050 142 q 1089 260 1067 215 q 1126 333 1111 304 q 1177 413 1140 361 q 1225 481 1214 464 q 1279 552 1236 497 q 1324 608 1322 607 l 1321 611 q 1165 478 1208 515 q 1053 374 1122 440 q 928 241 983 307 q 790 72 872 175 q 668 -33 707 -33 q 613 15 632 -33 q 594 107 594 64 q 650 217 594 144 z "},"N":{"ha":1161,"x_min":67,"x_max":1239,"o":"m 764 265 l 1000 700 l 997 703 q 667 368 781 497 q 406 24 640 338 q 361 -15 378 -15 q 294 17 336 -15 q 251 72 251 50 q 265 103 251 79 q 460 443 331 204 q 589 732 589 682 q 567 761 589 761 q 133 532 481 761 q 92 514 110 514 q 67 575 67 514 q 105 699 67 633 q 192 811 143 764 q 287 890 242 858 q 349 921 332 921 q 364 910 364 921 q 289 821 364 893 l 292 818 q 416 885 372 863 q 542 939 460 908 q 678 969 625 969 q 743 949 717 969 q 767 892 769 928 q 719 726 761 814 q 525 374 676 639 l 528 371 q 947 831 861 772 q 988 858 956 836 q 1041 895 1019 881 q 1088 924 1063 910 q 1125 938 1114 938 q 1194 894 1149 938 q 1239 806 1239 850 q 1192 695 1239 768 q 1063 502 1144 622 q 928 275 982 382 q 885 161 885 189 q 921 104 885 104 q 1055 194 957 104 q 1199 342 1153 285 q 1201 315 1200 329 q 1203 292 1203 300 q 1204 279 1204 285 q 1189 247 1204 267 q 947 -7 1054 72 q 783 -86 839 -86 q 712 -51 735 -86 q 689 35 689 -15 q 764 265 689 126 z "},"O":{"ha":888,"x_min":49,"x_max":938,"o":"m 768 764 l 769 763 q 894 750 849 785 q 938 640 935 717 q 848 352 940 504 q 602 96 756 200 q 296 -7 449 -8 q 212 8 251 -7 q 136 53 172 22 q 76 142 100 85 q 49 276 53 199 q 116 503 43 383 q 299 715 189 622 q 536 874 410 807 q 763 954 663 940 q 851 914 806 961 q 897 843 897 867 q 829 794 897 817 q 768 764 807 786 m 406 486 q 363 449 378 449 q 343 488 347 449 q 189 185 189 333 q 207 119 189 144 q 263 94 225 94 q 395 128 318 94 q 519 203 472 163 q 733 435 654 318 q 815 632 813 553 q 802 679 817 658 q 761 700 788 700 q 565 632 674 700 q 406 486 457 564 z "},"P":{"ha":1031,"x_min":64,"x_max":1099,"o":"m 294 231 l 238 136 q 264 111 264 131 q 193 -1 264 94 q 111 -67 146 -67 q 64 -17 64 -67 q 81 46 64 4 q 115 117 99 88 q 163 198 132 147 q 196 254 193 249 q 133 343 133 293 q 142 375 133 360 q 167 403 150 390 q 201 425 185 415 q 244 444 218 435 q 285 458 271 453 q 326 470 300 463 q 356 479 351 478 l 576 771 q 360 746 469 769 q 181 700 250 722 q 99 678 111 678 q 76 692 76 678 q 179 863 76 721 q 285 919 203 896 q 658 968 454 968 q 872 949 785 968 q 1008 890 960 929 q 1078 802 1057 851 q 1099 685 1099 753 q 991 426 1099 539 q 698 259 883 313 q 294 231 513 206 m 626 699 l 481 497 q 529 501 497 497 q 575 504 561 506 q 589 490 589 503 q 559 469 589 478 q 493 453 529 460 q 449 440 457 446 l 418 394 q 561 381 486 376 q 745 422 657 386 q 888 504 833 457 q 973 600 943 551 q 997 682 1003 649 q 915 745 990 721 q 772 776 839 769 q 657 783 706 783 q 626 699 656 739 z "},"Q":{"ha":949,"x_min":26,"x_max":1015,"o":"m 642 -39 l 178 33 q 153 16 174 31 q 121 -6 132 1 q 92 -19 110 -12 q 60 -26 74 -26 q 26 4 26 -26 q 55 118 26 57 q 117 203 83 179 q 144 215 128 211 q 174 218 161 218 q 213 217 186 218 q 256 215 240 215 q 723 535 553 372 q 893 769 893 697 q 835 800 893 800 q 626 743 781 800 q 356 603 471 686 l 356 600 q 388 601 371 600 q 415 601 404 601 q 436 602 425 601 q 454 603 447 603 q 467 602 461 603 q 477 600 474 601 q 484 596 481 599 q 488 589 488 593 q 489 579 489 585 q 461 556 489 561 q 242 478 353 535 q 190 477 203 460 q 178 578 178 494 q 176 646 175 617 q 190 692 178 675 q 478 861 246 765 q 843 957 710 957 q 966 908 917 957 q 1015 782 1015 858 q 1003 715 1015 750 q 971 647 990 679 q 919 578 951 615 q 856 513 886 542 q 781 449 826 485 q 705 388 736 413 q 625 331 674 364 q 551 281 576 297 q 481 235 525 264 q 424 199 436 207 q 810 136 740 136 q 880 144 835 136 q 933 154 925 153 q 857 -21 906 65 q 791 -52 842 -49 q 642 -39 740 -56 z "},"R":{"ha":1118,"x_min":65,"x_max":1189,"o":"m 601 626 l 499 469 l 844 560 q 998 627 908 576 q 1088 722 1088 678 q 1019 759 1088 750 q 907 764 950 768 l 650 746 q 649 726 650 736 q 645 707 649 717 q 640 691 642 697 q 631 674 638 685 q 623 659 625 663 q 612 642 621 656 q 601 626 603 629 m 833 17 l 319 207 l 200 33 q 171 -33 211 0 q 97 -67 131 -67 q 75 -58 85 -67 q 65 -37 65 -50 q 89 31 65 -7 l 218 243 q 190 253 204 247 q 162 270 175 258 q 151 294 149 282 q 217 394 161 353 q 365 438 274 435 l 571 735 q 272 663 372 701 l 272 660 q 299 658 285 658 q 322 656 313 657 q 341 655 332 656 q 356 653 350 654 q 368 652 363 653 q 377 650 374 651 q 383 647 381 649 q 387 642 386 644 q 388 636 388 640 q 361 621 388 621 l 253 610 q 213 604 240 608 q 164 598 186 600 q 124 596 142 596 q 74 629 74 596 q 98 715 74 661 q 144 797 122 768 q 388 903 194 857 q 790 949 582 949 q 1189 758 1189 949 q 1159 636 1189 704 q 1089 536 1129 568 q 1046 506 1067 518 q 1006 483 1025 493 q 953 463 986 472 q 894 446 919 453 q 810 428 868 439 q 709 408 753 417 q 572 383 665 400 q 406 353 479 367 l 406 350 l 781 231 q 868 201 829 215 q 931 174 907 186 q 973 153 956 163 q 999 136 990 144 q 1012 124 1008 128 q 1018 114 1015 119 l 1021 107 q 1041 13 1043 71 q 1006 -46 1039 -46 q 956 -34 989 -46 q 883 -5 924 -22 q 833 17 843 13 z "},"S":{"ha":989,"x_min":8,"x_max":1056,"o":"m 342 594 q 342 583 342 586 q 360 571 343 581 q 413 551 376 561 q 524 521 450 540 q 711 475 599 501 q 864 403 811 451 q 917 300 917 354 q 864 160 917 221 q 735 67 811 100 q 558 13 658 33 q 381 -15 458 -8 q 232 -21 303 -21 q 8 60 8 -21 q 34 123 8 81 q 79 183 60 165 q 137 208 92 193 q 199 224 182 224 q 210 214 210 224 q 186 188 210 201 q 163 167 178 182 l 163 164 q 418 170 303 158 q 600 201 533 182 q 713 244 667 221 q 777 285 760 268 q 794 311 794 303 q 782 334 794 322 q 744 356 769 346 q 692 376 719 367 q 627 394 665 385 q 559 410 589 403 q 489 424 529 417 q 427 435 449 431 q 376 444 406 439 q 343 449 346 449 q 291 460 313 453 q 247 479 269 467 q 213 514 225 492 q 201 565 201 536 q 215 662 201 601 q 246 750 229 722 q 461 883 285 814 q 844 953 638 953 q 1019 933 929 953 q 1049 919 1042 928 q 1056 888 1056 910 q 1031 785 1056 815 q 939 729 1006 756 q 876 702 896 713 q 814 661 856 692 q 779 647 789 647 q 757 668 757 647 q 766 683 757 671 q 800 718 775 694 q 858 765 825 742 l 856 768 q 665 748 754 764 q 519 710 576 732 q 421 665 463 689 q 360 624 379 642 q 342 594 342 606 z "},"T":{"ha":940,"x_min":81,"x_max":1042,"o":"m 224 594 l 143 593 q 112 594 122 593 q 91 604 101 596 q 81 631 81 613 q 93 711 81 640 q 97 736 94 718 q 101 759 100 754 q 106 777 103 764 q 110 794 108 790 q 117 809 113 799 q 126 823 122 819 q 138 834 131 826 q 153 847 144 842 q 173 858 163 851 q 197 869 183 864 q 717 961 399 961 q 926 943 846 961 q 967 930 951 938 q 994 906 983 922 q 1010 877 1006 889 q 1025 835 1015 865 q 1042 785 1035 804 q 1041 756 1046 774 q 1029 727 1036 739 q 1008 694 1022 715 q 990 669 993 674 l 664 175 l 667 172 q 688 172 678 178 q 699 153 699 167 q 640 54 699 126 q 626 35 638 51 q 606 10 614 19 q 585 -14 599 1 q 562 -37 572 -29 q 539 -53 551 -46 q 517 -60 526 -60 q 465 -44 488 -60 q 442 -1 442 -29 q 788 575 442 133 l 926 753 q 224 646 546 746 l 224 643 q 242 640 226 643 q 272 635 258 638 q 301 627 285 632 q 326 616 317 622 q 335 601 335 610 q 321 588 335 589 q 275 590 307 586 q 224 594 243 594 z "},"U":{"ha":1214,"x_min":67,"x_max":1290,"o":"m 810 288 l 924 481 l 921 483 q 332 -6 404 -19 q 201 138 201 17 q 218 207 201 168 q 271 294 235 246 q 322 363 307 343 q 376 426 338 382 q 473 538 425 483 q 548 622 521 592 q 597 676 575 651 q 626 713 618 700 q 635 731 635 725 q 621 744 635 744 q 581 729 619 744 q 244 572 456 676 q 103 528 156 528 q 73 534 82 528 q 67 557 64 540 q 102 657 75 604 q 176 763 129 710 q 295 856 222 815 q 454 910 368 896 q 592 940 476 913 q 753 967 707 967 q 828 913 810 967 q 831 803 847 858 q 810 756 824 779 q 788 720 797 733 q 755 678 778 707 q 721 635 732 649 q 529 410 657 567 q 401 222 401 253 q 429 197 401 197 q 599 308 467 197 q 799 485 732 418 q 919 603 857 542 q 1015 699 981 664 q 1088 772 1050 735 q 1144 826 1125 808 q 1183 860 1164 844 q 1214 882 1203 876 q 1233 888 1225 888 q 1276 858 1261 888 q 1290 799 1290 828 q 1272 744 1296 782 q 1142 557 1247 706 q 1026 396 1072 460 q 901 150 901 221 q 917 110 901 126 q 954 94 932 94 q 1003 107 975 94 q 1069 146 1032 119 q 1128 189 1107 172 q 1191 240 1150 206 q 1233 274 1232 274 q 1240 228 1240 235 q 1168 145 1240 207 q 999 28 1096 83 q 847 -28 903 -28 q 768 3 799 -28 q 738 82 738 33 q 810 288 738 167 z "},"V":{"ha":971,"x_min":71,"x_max":1086,"o":"m 263 542 l 340 546 q 350 547 342 546 q 365 547 358 547 q 379 546 371 547 q 392 541 388 544 q 396 532 396 538 q 391 522 396 526 q 378 514 386 517 q 362 509 369 511 q 345 506 354 507 q 335 504 336 504 q 226 473 281 493 q 141 438 172 453 q 101 424 110 424 q 71 497 71 424 q 142 675 71 610 q 432 844 201 731 q 733 960 663 958 q 797 917 767 961 q 826 851 826 872 q 774 746 826 828 q 475 186 482 281 q 481 127 472 156 q 511 106 490 99 q 565 138 536 114 q 682 281 593 163 q 904 613 771 400 q 928 715 897 654 q 999 817 958 776 q 1061 851 1040 858 q 1086 820 1081 844 q 1076 744 1092 796 q 1024 621 1061 693 q 915 438 988 549 q 740 194 842 328 q 717 164 739 193 q 683 120 694 135 q 648 76 672 106 q 606 28 624 46 q 567 -9 589 11 q 526 -38 544 -29 q 492 -47 507 -47 q 389 13 444 -47 q 335 144 333 72 q 622 756 339 286 l 619 758 q 490 695 536 718 q 377 630 444 672 q 260 544 310 588 l 263 542 z "},"W":{"ha":1358,"x_min":72,"x_max":1468,"o":"m 813 411 l 618 201 q 439 28 504 79 q 328 -24 374 -24 q 244 42 288 -24 q 207 144 200 107 q 209 158 207 146 q 213 176 211 171 q 225 201 215 181 q 251 242 235 222 q 297 302 267 263 q 368 390 326 342 q 472 508 410 438 q 613 665 533 579 q 625 679 614 667 q 640 697 636 692 q 650 714 644 703 q 656 733 656 725 q 607 768 656 768 q 408 710 553 768 q 197 611 264 651 q 104 578 143 578 q 92 581 99 578 q 80 595 86 583 q 73 625 74 607 q 81 678 72 643 q 111 758 90 713 q 122 781 117 771 q 138 801 128 790 q 153 815 149 811 q 174 831 157 818 q 194 847 190 844 l 290 922 q 321 938 306 938 q 328 935 325 938 q 331 926 331 933 q 324 910 331 919 l 285 865 l 288 863 q 343 883 301 868 q 403 903 385 897 q 459 922 422 910 q 520 938 496 933 q 578 948 544 943 q 642 953 611 953 q 753 915 724 953 q 783 849 769 893 q 796 775 796 804 q 781 710 796 744 q 676 552 767 675 q 411 228 585 429 q 410 176 376 188 q 491 234 419 172 q 701 435 563 296 q 993 749 840 575 q 1020 782 999 754 q 1058 827 1042 810 q 1100 861 1074 844 q 1151 878 1126 878 q 1195 844 1178 878 q 1213 788 1213 811 q 1165 701 1213 767 q 969 401 1083 588 q 857 161 856 215 q 863 144 856 151 q 876 140 869 138 q 1113 337 978 188 q 1335 675 1247 486 q 1328 726 1328 696 q 1371 815 1328 760 q 1432 869 1414 869 q 1460 843 1450 869 q 1468 796 1469 817 q 1353 459 1463 651 q 1108 130 1243 267 q 886 -19 972 -7 q 790 19 844 -25 q 735 118 735 63 q 745 192 735 149 q 763 262 756 236 q 792 345 771 288 q 815 408 814 403 l 813 411 z "},"X":{"ha":956,"x_min":64,"x_max":1081,"o":"m 763 642 l 989 854 q 1056 897 1036 897 q 1081 868 1081 897 q 1041 771 1081 828 q 961 718 1001 714 l 751 517 l 724 193 q 721 140 717 167 q 757 113 725 113 q 808 127 779 113 q 876 169 836 142 q 921 200 917 197 l 946 164 q 799 26 893 97 q 642 -44 704 -44 q 584 -14 603 -44 q 566 56 565 17 q 567 129 567 94 q 567 139 567 136 l 578 350 l 314 101 q 128 -33 172 -33 q 90 7 90 -33 q 173 142 90 67 q 321 231 256 217 l 588 483 l 601 797 q 525 772 579 789 q 442 744 471 754 q 368 717 413 733 q 286 683 324 700 q 214 647 249 667 l 214 644 q 267 642 236 643 q 315 628 315 640 q 310 619 315 622 q 290 610 306 615 q 256 601 275 606 q 201 585 238 596 q 128 563 165 575 q 64 582 64 542 q 98 681 64 610 q 156 771 132 751 q 404 895 235 840 q 686 950 574 950 q 770 918 754 950 q 779 814 786 886 l 763 642 z "},"Y":{"ha":1031,"x_min":67,"x_max":1099,"o":"m 831 461 l 463 143 q 274 26 328 26 q 205 56 238 26 q 178 119 172 86 q 179 132 178 121 q 182 149 181 143 q 190 172 183 154 q 207 206 197 190 q 235 252 217 222 q 278 315 254 282 q 340 397 303 349 q 425 500 378 444 q 596 717 576 681 q 608 750 608 738 q 604 760 610 757 q 590 765 599 764 q 299 613 463 701 q 135 524 136 525 q 90 507 111 507 q 67 519 71 507 q 75 575 63 533 l 96 650 q 125 706 107 686 q 182 751 143 726 q 458 891 293 819 q 713 963 624 963 q 781 944 753 963 q 810 886 810 925 q 804 857 810 874 q 787 819 799 840 q 766 783 775 799 q 738 742 757 767 q 711 706 718 717 q 683 671 704 696 l 664 646 q 581 540 622 592 q 515 458 539 488 q 467 398 490 428 q 431 353 443 368 q 410 323 419 338 q 397 299 400 308 q 393 281 393 290 q 401 265 392 271 q 428 262 410 258 q 467 283 446 265 q 575 370 525 332 q 689 465 625 408 q 956 707 753 522 q 1033 763 1017 763 q 1078 733 1057 763 q 1099 679 1099 704 q 1092 653 1099 668 q 1063 609 1085 639 q 1017 545 1042 579 q 941 442 992 511 q 838 297 890 372 q 672 47 690 88 q 674 13 657 14 q 692 18 682 13 q 747 51 701 24 q 860 113 792 78 q 909 135 886 126 q 947 146 932 143 q 973 147 963 149 q 988 142 983 146 q 993 131 993 138 q 960 85 993 115 q 908 44 928 56 q 582 -242 678 -129 q 545 -283 558 -269 q 505 -316 532 -297 q 456 -335 478 -335 q 411 -315 428 -335 q 394 -267 394 -296 q 553 65 394 -176 q 833 458 711 307 l 831 461 z "},"Z":{"ha":894,"x_min":75,"x_max":971,"o":"m 469 296 l 325 232 q 253 199 283 214 q 216 178 224 183 q 201 171 208 174 q 185 168 194 168 q 163 188 163 168 q 199 300 163 207 q 235 358 214 343 q 349 425 268 385 q 508 501 429 465 q 594 542 588 538 q 775 648 736 619 q 814 710 814 676 q 797 737 814 726 q 764 747 781 747 q 518 685 663 747 q 83 456 374 622 q 127 681 89 604 q 285 826 165 757 q 512 917 375 878 q 750 956 649 956 q 971 789 971 956 q 953 705 971 744 q 911 638 936 665 q 847 584 886 611 q 774 540 807 557 q 696 499 742 522 q 625 461 650 475 q 750 411 708 446 q 803 299 792 376 q 875 316 850 314 q 902 314 900 318 q 904 303 904 310 l 904 301 q 888 275 904 286 q 803 239 871 264 q 575 -115 768 56 q 379 -244 508 -175 q 192 -314 250 -314 q 120 -284 165 -314 q 75 -228 75 -254 q 236 -14 75 -154 q 676 251 397 126 q 672 281 676 267 q 652 307 667 294 q 616 325 638 319 q 556 324 594 331 q 469 296 518 317 m 657 167 q 440 33 544 111 q 283 -101 336 -44 q 229 -178 229 -158 q 246 -192 229 -192 q 469 -65 317 -192 q 657 167 621 61 z "},"[":{"ha":528,"x_min":76,"x_max":783,"o":"m 488 -182 l 76 -182 l 378 981 l 783 981 l 746 858 l 524 858 l 286 -60 l 526 -60 l 488 -182 z "},"\\":{"ha":464,"x_min":196,"x_max":396,"o":"m 396 -54 l 300 -54 l 196 935 l 290 935 l 396 -54 z "},"]":{"ha":528,"x_min":-67,"x_max":640,"o":"m 229 981 l 640 981 l 339 -182 l -67 -182 l -29 -60 l 193 -60 l 431 858 l 190 858 l 229 981 z "},"^":{"ha":897,"x_min":232,"x_max":839,"o":"m 839 332 l 744 332 l 533 796 l 322 332 l 232 332 l 493 883 l 578 883 l 839 332 z "},"_":{"ha":694,"x_min":0,"x_max":694,"o":"m 0 -104 l 694 -104 l 694 -174 l 0 -174 l 0 -104 z "},"`":{"ha":486,"x_min":63,"x_max":426,"o":"m 138 718 l 219 693 q 388 633 360 651 q 426 576 426 607 q 407 564 426 564 q 361 575 389 564 q 229 604 318 592 q 111 610 165 613 q 65 615 69 607 q 63 667 60 622 q 63 683 63 671 q 65 701 64 696 q 69 713 67 706 q 78 724 72 721 q 94 726 85 726 q 138 718 110 726 z "},"a":{"ha":676,"x_min":-43,"x_max":686,"o":"m 429 385 q 233 313 311 349 q 119 244 154 278 q 71 185 83 211 q 58 131 58 160 q 62 119 60 124 q 70 108 64 114 q 86 103 76 101 q 182 151 128 111 q 432 382 269 218 l 429 385 m 354 197 l 226 94 q 79 1 108 1 q 3 58 49 1 q -43 165 -42 114 q 51 331 -46 246 q 269 467 147 417 q 474 521 390 518 q 540 497 515 522 q 564 454 564 472 q 515 419 564 436 q 556 363 556 403 q 495 267 556 343 q 435 156 435 190 q 478 122 435 122 q 526 135 499 122 q 575 161 554 147 q 628 200 596 175 q 675 233 661 225 l 686 182 q 526 44 633 122 q 372 -35 419 -35 q 322 -14 339 -35 q 306 39 306 7 q 357 194 306 88 l 354 197 z "},"b":{"ha":556,"x_min":0,"x_max":621,"o":"m 326 475 l 110 263 q 111 151 92 199 q 171 110 131 104 q 192 116 182 111 q 210 125 203 121 q 226 138 217 129 q 239 152 235 147 q 252 168 243 157 q 264 182 261 179 q 244 236 244 214 q 311 376 244 299 q 438 453 378 453 q 479 392 479 453 q 469 338 479 365 q 438 267 460 310 q 413 218 415 225 q 484 225 451 211 q 560 269 517 239 l 574 224 q 351 135 490 138 q 103 -12 211 -12 q 49 8 71 -12 q 17 64 26 29 q 3 128 7 99 q 0 189 0 158 q 192 643 0 415 q 406 845 275 743 q 581 947 536 947 q 621 896 621 947 q 326 475 621 760 m 504 828 q 160 410 272 631 l 163 407 q 376 635 296 539 q 472 757 456 731 q 507 825 488 783 l 504 828 z "},"c":{"ha":499,"x_min":-4,"x_max":526,"o":"m 269 349 l 153 261 q 97 179 97 221 q 125 128 97 151 q 203 104 153 104 q 316 135 251 104 q 413 191 381 167 q 510 264 446 215 l 526 210 q 342 51 443 121 q 154 -18 242 -18 q 37 42 78 -18 q -4 185 -4 101 q 24 312 -4 267 q 128 413 53 357 q 267 495 185 456 q 401 535 349 535 q 464 471 464 535 q 406 353 464 418 q 317 288 349 288 q 283 306 294 288 q 269 349 271 325 z "},"d":{"ha":696,"x_min":-10,"x_max":757,"o":"m 697 649 l 556 429 q 533 392 553 424 q 506 350 513 361 q 483 310 499 339 q 462 265 468 282 q 449 223 456 247 q 443 178 443 199 q 475 108 443 108 q 539 136 496 108 q 633 203 582 164 q 694 250 683 243 l 704 204 q 394 -14 507 -14 q 340 17 358 -14 q 321 86 321 47 q 332 192 321 122 q 284 148 324 185 q 216 86 244 111 q 151 38 188 61 q 92 15 114 15 q 20 82 50 15 q -10 197 -10 149 q 65 347 -10 274 q 231 462 140 421 q 385 507 321 503 q 399 506 393 507 q 413 499 406 504 q 423 492 421 493 q 433 480 425 490 q 443 468 442 469 q 478 535 451 483 q 529 633 504 588 q 586 727 554 678 q 651 806 618 776 q 713 835 683 835 q 744 819 732 835 q 757 782 757 803 q 697 649 757 742 m 396 386 q 215 313 276 347 q 135 249 154 279 q 113 168 117 219 q 133 142 110 146 q 266 235 151 138 q 396 386 381 332 z "},"e":{"ha":496,"x_min":-11,"x_max":515,"o":"m 503 260 l 515 207 q 335 47 438 117 q 140 -22 233 -22 q 31 31 69 -22 q -11 160 -8 85 q 106 411 -15 294 q 365 526 228 528 q 465 460 465 526 q 389 330 465 399 q 131 201 313 261 l 128 171 q 151 117 125 135 q 214 100 176 100 q 252 105 232 100 q 290 116 272 110 q 331 136 307 122 q 367 158 354 150 q 406 184 381 165 q 440 210 431 203 q 474 237 449 217 q 503 260 500 257 m 139 269 q 283 353 221 297 q 343 431 344 408 q 326 446 343 450 q 219 384 272 432 q 139 269 167 336 z "},"f":{"ha":431,"x_min":-119,"x_max":504,"o":"m 31 -232 q 137 -113 97 -187 q 167 38 176 -39 q 67 49 107 33 q 3 -108 10 -47 q 31 -232 -4 -165 m 432 603 l 172 240 q 193 224 183 233 q 210 202 203 215 q 222 181 218 189 q 235 154 226 174 q 244 131 243 135 l 432 247 l 447 196 q 268 64 339 99 q 269 -12 272 43 q 156 -230 261 -126 q -37 -346 50 -333 q -87 -317 -67 -350 q -113 -247 -107 -283 q -119 -181 -119 -210 q -115 -133 -119 -158 q -103 -87 -110 -107 q -84 -35 -97 -67 q -65 10 -71 -4 q -42 58 -58 25 q -22 99 -26 92 q -62 178 -62 142 q -61 195 -62 188 q -57 210 -60 203 q -52 222 -54 217 q -43 232 -50 226 q -34 241 -36 238 q -23 249 -32 244 q -11 256 -14 254 q 3 264 -8 258 q 15 271 14 269 q 110 347 72 301 q 185 460 147 392 q 237 554 208 504 q 313 682 265 604 q 403 809 360 760 q 471 858 446 858 q 504 797 504 858 q 481 698 504 758 q 432 603 457 638 z "},"g":{"ha":615,"x_min":-14,"x_max":633,"o":"m 274 11 l 371 201 l 368 204 q 233 85 318 149 q 96 22 147 22 q 17 74 43 22 q -8 185 -8 126 q 40 313 -8 249 q 157 419 89 376 q 292 491 225 463 q 401 524 358 519 q 449 517 424 525 q 475 489 475 508 q 429 432 475 464 l 271 346 q 234 326 263 340 q 194 305 206 311 q 161 285 183 299 q 129 260 139 271 q 108 232 119 249 q 94 197 97 215 q 93 158 90 179 q 115 144 94 144 q 201 166 147 142 q 292 231 254 190 l 440 394 q 493 433 475 433 q 529 408 513 433 q 546 363 546 382 q 517 292 546 346 l 413 97 l 415 94 l 626 246 l 633 188 l 340 -32 q 153 -272 240 -192 q 18 -353 65 -353 q -5 -343 4 -353 q -14 -319 -14 -333 q 84 -155 -14 -254 q 274 11 182 -56 z "},"h":{"ha":614,"x_min":-14,"x_max":622,"o":"m 88 229 l 88 175 q 146 224 97 183 q 236 297 194 264 q 330 369 278 331 q 422 429 382 407 q 485 451 463 451 q 531 430 510 451 q 551 385 551 408 q 479 278 551 363 q 420 202 439 228 q 399 171 401 176 q 397 156 397 165 q 428 126 397 126 q 460 134 440 126 q 503 156 479 142 q 544 181 526 169 q 585 208 561 192 q 615 228 610 225 l 622 171 q 590 147 619 169 q 545 113 560 124 q 499 78 531 101 q 447 43 468 56 q 399 15 425 31 q 351 -7 372 0 q 314 -14 329 -14 q 267 8 285 -14 q 250 60 250 29 q 259 112 250 85 q 288 172 268 139 q 322 222 308 204 q 363 276 335 240 q 396 318 392 313 l 393 321 q 246 205 314 267 q 144 103 178 143 q 83 38 110 64 q 42 11 56 11 q -2 59 10 11 q -14 151 -14 107 q 7 269 -14 217 q 71 393 28 322 q 349 742 182 576 q 558 907 515 907 q 599 897 579 907 q 618 869 618 888 q 498 679 618 826 q 267 415 378 532 q 88 229 157 297 z "},"i":{"ha":386,"x_min":-18,"x_max":425,"o":"m 379 233 l 392 181 q 250 41 328 103 q 101 -21 172 -21 q 13 31 44 -21 q -18 144 -18 83 q 29 304 -18 224 q 136 432 76 385 q 239 479 196 479 q 300 440 300 479 q 232 321 300 394 q 104 207 164 247 q 178 119 88 119 q 234 133 204 119 q 284 160 264 146 q 336 199 304 174 q 379 233 368 225 m 314 507 q 274 524 289 507 q 258 567 258 542 q 298 641 258 608 q 379 674 338 674 q 412 661 399 674 q 425 631 425 649 q 391 547 425 588 q 314 507 357 507 z "},"j":{"ha":499,"x_min":-85,"x_max":515,"o":"m 508 186 l 213 11 q 151 -91 211 8 q 40 -249 90 -190 q -46 -308 -10 -308 q -85 -253 -85 -308 q -15 -106 -85 -186 q 131 31 54 -25 l 308 375 q 167 324 268 364 q 7 272 65 283 q 31 336 21 306 q 45 383 40 367 q 56 408 50 399 q 175 468 69 431 q 219 485 183 471 q 281 508 256 499 q 337 524 306 517 q 386 532 368 532 q 447 481 447 529 q 415 396 447 456 l 271 117 l 274 114 l 500 247 l 508 186 m 404 571 q 364 588 379 571 q 349 631 349 606 q 388 705 349 672 q 469 738 428 738 q 502 725 489 738 q 515 694 515 713 q 481 611 515 651 q 404 571 447 571 z "},"k":{"ha":674,"x_min":-19,"x_max":693,"o":"m 663 871 q 542 694 663 828 q 259 399 422 560 q 83 224 96 238 l 81 186 q 215 303 139 239 q 397 438 292 367 q 544 508 501 508 q 597 476 576 508 q 617 408 617 443 q 598 339 617 372 q 543 278 579 306 q 476 231 507 250 q 399 188 446 213 q 336 153 353 163 q 361 120 353 129 q 386 102 369 111 q 426 92 403 93 q 679 247 481 89 l 693 190 q 658 160 688 186 q 613 119 629 133 q 565 78 596 104 q 510 37 533 53 q 458 3 486 21 q 407 -22 431 -14 q 364 -31 383 -31 q 303 -16 332 -31 q 244 33 274 -1 q 203 84 215 67 q 165 142 192 101 q 92 47 128 108 q 42 6 69 6 q -5 67 10 6 q -19 174 -19 128 q -15 217 -19 194 q -4 256 -10 240 q 15 298 1 272 q 35 333 29 324 q 60 373 40 343 q 83 408 81 403 q 274 640 153 518 q 496 835 396 761 q 628 907 596 910 q 653 895 643 906 q 663 871 663 885 m 297 193 l 428 283 q 438 290 429 285 q 450 299 446 296 q 463 309 454 303 q 475 321 471 315 q 485 333 479 326 q 492 345 490 339 q 494 357 494 351 q 476 368 494 368 q 356 315 439 368 q 244 224 272 261 q 297 193 276 213 z "},"l":{"ha":417,"x_min":-8,"x_max":471,"o":"m 151 394 l 154 392 q 285 546 225 458 q 364 696 344 633 q 151 394 267 649 m 422 247 l 442 206 q 372 135 394 157 q 298 69 349 113 q 202 6 247 26 q 115 -14 157 -14 q -8 167 -8 -14 q 33 385 -8 274 q 144 581 75 496 q 325 780 239 699 q 443 861 411 861 q 465 844 458 861 q 471 810 472 828 q 454 708 467 753 q 408 598 442 663 q 303 451 374 533 q 124 264 233 369 q 114 168 103 224 q 183 108 138 108 q 422 247 268 108 z "},"m":{"ha":986,"x_min":-15,"x_max":1004,"o":"m 690 286 l 469 83 q 449 63 468 82 q 423 38 431 44 q 399 19 415 32 q 368 1 382 6 q 340 -4 354 -4 q 298 13 315 -4 q 279 54 281 29 q 401 296 278 107 q 410 314 410 304 q 400 324 410 324 q 346 281 389 324 q 131 40 201 128 q 71 1 97 1 q 19 32 40 1 q -8 96 -1 63 q -15 160 -15 129 q 69 369 -14 260 q 217 471 153 479 q 228 469 218 471 q 242 467 238 468 q 256 465 247 467 q 268 460 264 463 q 276 451 272 457 q 279 439 279 446 q 224 350 279 415 q 188 313 217 342 q 147 265 160 283 q 135 250 144 261 q 122 232 126 239 q 112 214 117 225 q 107 193 107 203 q 117 181 107 181 q 144 203 122 181 q 226 284 181 240 q 336 386 271 328 q 460 483 401 444 q 550 521 518 521 q 592 503 578 521 q 607 457 607 485 q 583 387 607 429 q 522 294 558 344 q 478 229 486 244 l 481 226 l 789 469 q 854 508 838 508 q 865 500 860 508 q 876 481 871 492 q 883 469 882 471 q 908 414 908 431 q 865 343 908 390 q 769 228 789 260 q 747 169 749 196 q 757 144 746 157 q 781 135 768 132 q 813 144 801 139 q 869 176 824 149 q 996 258 915 204 l 1004 193 q 978 173 1003 192 q 943 145 954 154 q 904 115 932 136 q 859 82 876 94 q 815 51 842 69 q 769 22 789 33 q 728 0 750 11 q 690 -17 707 -11 q 661 -22 674 -22 q 610 2 631 -22 q 590 58 590 26 q 596 96 590 75 q 608 134 601 117 q 629 176 615 151 q 651 214 643 201 q 674 252 658 226 q 693 283 690 278 l 690 286 z "},"n":{"ha":639,"x_min":-19,"x_max":661,"o":"m 567 206 l 650 275 l 661 214 q 579 133 660 213 q 444 15 499 53 q 343 -22 389 -22 q 285 4 306 -22 q 265 69 265 31 q 272 117 265 93 q 296 174 278 142 q 322 219 314 206 q 357 269 329 232 q 385 308 385 307 l 382 311 q 168 99 267 225 q 58 4 93 4 q 0 47 18 4 q -19 139 -18 90 q 29 298 -22 207 q 144 443 81 389 q 199 460 164 460 q 255 451 236 458 q 274 441 274 444 q 275 429 275 438 q 188 308 275 400 q 100 201 100 215 q 115 186 100 186 q 143 206 128 186 q 367 410 219 303 q 550 518 514 518 q 572 492 561 518 q 593 417 588 453 q 551 351 593 396 q 465 255 508 307 q 422 161 422 203 q 430 144 422 151 q 447 136 438 136 q 567 206 483 136 z "},"o":{"ha":550,"x_min":-17,"x_max":567,"o":"m 553 267 l 567 208 q 468 122 519 149 q 342 96 417 96 q 128 -8 240 -8 q 29 45 71 -8 q -17 190 -12 99 q 110 424 -21 324 q 369 526 228 519 q 422 515 397 528 q 446 476 446 501 q 414 439 446 457 q 453 411 443 431 q 464 357 464 392 q 463 332 464 344 q 458 306 461 319 q 451 285 454 293 q 442 260 449 276 q 432 239 435 244 q 420 215 429 233 q 410 193 411 197 q 452 196 431 189 q 487 213 474 203 q 522 241 500 222 q 553 267 543 260 m 297 375 q 143 274 171 301 q 103 214 119 250 q 86 146 86 178 q 147 93 86 93 q 189 102 168 93 q 222 120 210 111 q 254 149 233 129 q 238 213 238 186 q 254 285 238 244 q 285 349 271 325 q 297 375 299 374 z "},"p":{"ha":678,"x_min":-140,"x_max":689,"o":"m 304 143 l 403 260 q 438 328 438 304 q 422 347 438 347 q 315 292 396 347 q 188 157 256 249 q 304 143 250 161 m 93 24 l -37 -232 q -100 -290 -68 -290 q -140 -228 -140 -290 q -54 -8 -142 -133 q 169 349 22 100 l 167 351 l -53 142 l -58 207 l 310 603 q 328 624 314 607 q 349 646 342 640 q 368 662 356 651 q 393 676 381 672 q 421 679 406 679 q 463 672 442 679 q 485 646 485 664 q 478 624 485 638 q 458 596 471 611 q 433 569 444 581 q 408 544 422 558 q 390 525 393 529 q 272 361 306 435 l 275 358 q 550 493 463 493 q 593 474 578 493 q 608 428 608 456 q 383 118 608 317 q 516 135 469 113 q 679 260 563 158 l 689 196 q 503 50 594 104 q 311 -4 413 -4 q 213 24 268 -4 q 149 15 171 15 q 93 24 129 15 z "},"q":{"ha":628,"x_min":-22,"x_max":638,"o":"m 319 17 l 231 -107 q 167 -237 183 -172 q 303 -140 232 -211 q 374 -15 374 -69 q 371 14 374 -6 q 319 17 347 14 m 621 253 l 638 200 l 475 57 q 340 -207 488 -53 q 204 -320 283 -267 q 99 -374 125 -374 q 58 -341 74 -374 q 42 -281 42 -308 q 47 -253 42 -268 q 57 -230 51 -239 q 72 -206 63 -221 q 86 -183 82 -190 q 178 -49 126 -119 q 297 109 229 22 q 397 242 364 196 l 394 244 q 314 169 392 242 q 178 54 236 96 q 85 13 119 13 q 15 57 51 13 q -22 163 -22 101 q 3 265 -22 222 q 82 357 29 308 q 276 476 157 426 q 497 525 394 525 q 546 513 533 525 q 561 478 561 497 q 539 443 561 465 q 572 393 572 432 q 539 316 572 365 q 460 213 506 267 q 404 140 415 158 q 478 151 436 128 q 621 253 521 174 m 469 411 l 468 413 q 167 282 288 364 q 101 219 118 249 q 79 135 83 190 q 247 201 142 132 q 469 411 351 271 z "},"r":{"ha":483,"x_min":-75,"x_max":503,"o":"m 242 333 l 97 301 q 49 240 75 267 q -15 180 22 213 q -69 129 -51 147 l -75 190 q 17 292 -28 228 q -13 303 -6 293 q -21 335 -21 313 q 49 468 -21 401 q 154 535 119 535 q 172 528 164 535 q 179 511 179 521 q 169 472 179 494 q 240 483 197 476 q 301 492 282 489 q 342 497 319 494 q 376 497 365 499 q 390 490 386 494 q 424 417 419 453 q 415 378 424 396 q 396 353 406 361 q 365 326 386 344 q 257 168 257 233 q 270 140 257 151 q 300 129 283 129 q 360 149 326 129 q 442 210 394 169 q 493 254 489 251 l 503 203 q 353 63 444 136 q 211 -11 263 -11 q 143 22 169 -11 q 117 96 117 54 q 120 134 117 115 q 133 173 124 153 q 149 206 142 193 q 172 241 156 219 q 194 271 188 263 q 220 303 200 279 q 244 331 240 326 l 242 333 z "},"s":{"ha":499,"x_min":-125,"x_max":497,"o":"m 211 397 l 11 210 q 57 194 35 208 q 90 166 79 179 q 119 128 101 153 q 206 197 185 168 q 229 283 226 225 q 211 397 221 344 m 400 175 l 483 239 l 497 186 q 319 40 414 103 q 150 -19 225 -24 q 11 25 75 -17 q -71 139 -53 67 q -101 121 -89 121 q -118 129 -111 121 q -125 147 -125 138 q -92 196 -125 163 l 210 472 q 233 536 213 510 q 289 563 254 563 q 330 552 319 563 q 343 511 340 542 q 357 439 344 493 q 369 350 369 385 q 189 97 369 207 q 270 101 231 90 q 333 127 310 113 q 400 175 356 142 z "},"t":{"ha":406,"x_min":-76,"x_max":482,"o":"m 396 586 l 482 579 q 414 454 431 475 q 288 404 375 404 q 253 406 271 404 q 126 147 126 242 q 168 99 126 99 q 183 100 175 99 q 200 106 190 101 q 217 113 210 110 q 238 125 225 117 q 262 140 251 133 q 291 160 272 147 q 324 183 310 174 q 363 211 338 193 q 407 243 388 229 l 414 182 q 385 155 410 178 q 349 123 360 132 q 313 91 339 114 q 272 57 288 68 q 232 27 257 46 q 188 -1 207 8 q 147 -22 169 -11 q 103 -37 124 -32 q 64 -42 83 -42 q 0 -16 24 -42 q -24 51 -24 10 q 13 190 -24 110 l 10 193 l -61 136 l -76 189 q 135 411 71 301 q 96 412 114 411 q 72 413 78 413 q 57 413 67 413 q 36 410 47 413 q 3 406 25 408 l 18 431 q 113 553 78 529 q 253 581 147 576 q 272 609 258 589 q 293 638 286 629 q 314 663 300 647 q 340 685 328 678 q 369 697 351 692 q 406 703 386 703 q 450 676 450 703 q 443 654 450 668 q 428 630 436 640 q 410 604 421 619 q 396 586 399 589 z "},"u":{"ha":664,"x_min":-22,"x_max":683,"o":"m 257 246 l 394 369 q 422 395 396 371 q 469 438 449 419 q 516 478 489 456 q 564 515 543 501 q 594 528 585 528 q 626 451 621 528 q 569 367 629 419 q 475 260 524 325 q 426 154 426 196 q 461 124 426 124 q 675 254 513 124 l 683 194 q 643 155 678 189 q 590 104 608 121 q 536 56 572 88 q 474 9 500 25 q 418 -20 449 -7 q 363 -33 388 -33 q 303 -6 325 -33 q 281 58 281 21 q 310 175 281 99 l 307 178 q 247 117 296 168 q 158 35 199 65 q 83 6 118 6 q 7 49 36 6 q -22 143 -22 93 q 38 332 -22 238 q 171 475 97 426 q 232 490 194 490 q 249 491 235 490 q 272 492 263 492 q 294 490 282 492 q 313 480 307 488 q 317 461 318 472 q 296 423 315 446 q 261 388 276 400 q 156 288 203 321 q 99 235 118 261 q 79 168 79 208 q 90 147 79 147 q 161 176 111 147 q 257 246 211 204 z "},"v":{"ha":590,"x_min":-12,"x_max":608,"o":"m 371 403 q 507 518 458 518 q 549 472 549 518 q 509 363 549 436 q 433 238 469 289 q 481 219 453 219 q 599 275 517 219 l 608 217 q 431 118 522 118 q 410 122 421 118 q 394 129 399 126 q 375 142 389 132 q 358 154 361 153 q 240 49 319 110 q 125 -12 161 -12 q 26 51 65 -12 q -12 197 -12 115 q 33 364 -12 285 q 129 483 79 443 q 207 522 179 522 q 290 490 290 522 q 225 368 290 449 q 110 246 160 288 q 89 164 89 179 q 122 110 89 110 q 301 239 165 110 q 371 403 296 308 z "},"w":{"ha":882,"x_min":-14,"x_max":900,"o":"m 260 224 l 457 426 q 536 503 518 503 q 577 494 551 503 q 603 474 603 485 q 571 404 603 454 q 490 263 535 349 q 446 144 446 178 q 472 117 446 117 q 515 135 490 117 q 571 185 539 153 q 607 219 603 217 q 611 294 601 264 q 671 390 621 325 q 789 488 744 488 q 822 465 811 488 q 833 418 833 442 q 739 222 833 336 q 788 203 771 203 q 897 265 818 203 l 900 204 q 747 121 819 121 q 664 149 711 121 q 596 88 649 138 q 499 8 543 39 q 419 -24 454 -24 q 369 3 393 -24 q 344 58 349 29 q 344 165 340 94 q 287 106 335 157 q 201 26 239 54 q 132 -1 163 -3 q 28 53 71 1 q -14 185 -15 104 q 15 308 -12 257 q 101 417 43 358 q 215 520 182 499 q 274 540 247 542 q 356 496 356 536 q 276 370 356 450 q 119 231 196 290 q 108 151 108 208 q 124 121 108 121 q 187 160 138 121 q 260 224 236 200 z "},"x":{"ha":483,"x_min":-47,"x_max":501,"o":"m 364 354 l 268 258 l 267 200 q 317 135 264 135 q 351 142 332 135 q 391 166 369 150 q 428 194 413 182 q 465 225 443 206 q 493 249 488 244 l 501 193 q 424 117 492 185 q 306 14 357 50 q 211 -22 254 -22 q 174 -12 189 -22 q 154 23 160 -1 q 147 61 149 47 q 146 109 144 75 q 147 144 147 143 l 67 67 q -25 7 3 7 q -47 26 -47 7 q 1 108 -47 49 q 75 156 31 143 l 149 221 l 147 388 q 108 367 128 378 q 77 351 89 357 q 54 339 65 344 q 38 331 43 333 q 26 326 32 328 q 19 323 21 324 q 14 322 17 322 q -1 340 -1 325 q 106 453 -1 363 q 243 544 213 544 q 271 472 275 544 l 267 346 l 390 458 q 469 506 440 506 q 488 483 483 506 q 449 401 493 457 q 364 354 404 346 z "},"y":{"ha":614,"x_min":-10,"x_max":646,"o":"m 646 229 l 228 -231 q 213 -247 225 -233 q 193 -272 201 -261 q 173 -291 185 -282 q 153 -300 161 -300 q 122 -267 133 -300 q 111 -208 111 -233 q 149 -125 111 -186 l 335 189 l 332 192 q 100 22 128 19 q 29 70 65 25 q -10 186 -7 115 q 49 346 -12 261 q 174 480 110 431 q 261 531 238 529 q 299 506 276 531 q 321 467 321 482 q 247 354 321 432 q 118 233 172 276 q 92 153 94 199 q 290 275 168 161 q 369 349 326 308 q 437 413 411 389 q 487 460 463 438 q 526 494 511 483 q 549 507 542 506 q 575 483 564 510 q 586 438 586 457 q 529 315 586 400 l 324 10 l 326 7 l 635 281 l 646 229 z "},"z":{"ha":511,"x_min":-96,"x_max":529,"o":"m 529 231 l 307 38 q 253 -112 296 -40 q 158 -230 211 -183 q 54 -304 106 -276 q -33 -336 3 -332 q -78 -319 -60 -339 q -96 -269 -96 -299 q -74 -198 -96 -235 q -31 -140 -53 -161 q 29 -89 -8 -118 l 210 56 q 183 110 200 96 q 121 136 167 124 q 108 139 119 136 q 93 143 97 142 q 81 149 89 144 q 72 158 74 153 q 71 171 69 164 q 100 213 74 192 q 195 283 126 235 q 324 381 264 332 l 321 383 l 151 354 l -7 182 l -22 228 l 75 346 q 38 383 38 353 q 96 476 38 421 q 189 532 154 532 q 224 483 224 532 q 312 501 271 490 q 375 517 353 511 q 408 524 397 524 q 439 479 425 524 q 453 414 453 435 q 411 360 453 388 l 233 231 q 306 121 289 189 l 525 290 l 529 231 m 208 -29 l 49 -154 q -26 -267 -19 -208 q 122 -174 47 -247 q 208 -29 196 -101 z "},"{":{"ha":486,"x_min":79,"x_max":635,"o":"m 353 226 l 279 -29 q 266 -130 260 -96 q 307 -182 272 -164 l 306 -185 q 103 -158 136 -194 q 79 -100 79 -135 q 104 -3 83 -54 l 175 250 q 187 349 193 314 q 146 399 181 385 l 147 399 l 147 401 q 217 449 193 417 q 260 550 240 481 l 321 774 q 334 819 329 803 q 348 858 339 835 q 365 894 357 882 q 386 924 372 907 q 415 949 400 940 q 452 965 431 957 q 500 976 474 974 q 560 980 526 979 q 635 976 594 981 l 635 974 q 564 925 590 960 q 519 824 538 890 l 454 588 q 401 457 429 497 q 322 400 372 417 l 321 400 l 321 397 q 374 340 369 383 q 353 226 378 311 z "},"|":{"ha":563,"x_min":317,"x_max":426,"o":"m 317 1044 l 426 1044 l 426 -347 l 317 -347 l 317 1044 z "},"}":{"ha":486,"x_min":-44,"x_max":511,"o":"m 238 569 l 311 825 q 324 926 331 892 q 283 978 318 960 l 285 981 q 488 954 454 990 q 511 896 511 931 q 486 799 507 850 l 415 546 q 403 447 397 482 q 444 397 410 411 l 443 397 l 443 394 q 374 347 397 379 q 331 246 350 315 l 269 22 q 256 -23 261 -7 q 242 -62 251 -39 q 226 -99 233 -86 q 204 -128 218 -111 q 175 -153 190 -144 q 138 -169 160 -161 q 90 -181 117 -178 q 30 -184 64 -183 q -44 -181 -4 -185 l -44 -178 q 26 -129 0 -164 q 71 -28 53 -94 l 136 208 q 190 339 161 299 q 268 396 218 379 l 269 396 l 269 399 q 217 456 221 413 q 238 569 213 485 z "},"~":{"ha":832,"x_min":121,"x_max":774,"o":"m 724 439 l 774 390 q 592 261 700 261 q 537 269 564 261 q 492 285 510 276 q 432 317 474 294 q 308 361 354 361 q 236 336 267 361 q 172 264 206 311 l 121 311 q 205 405 153 369 q 317 440 257 440 q 364 434 339 440 q 400 423 389 428 q 438 404 411 418 q 467 389 465 390 q 571 343 539 347 q 592 342 581 342 q 662 365 632 342 q 724 439 692 389 z "},"":{"ha":472,"x_min":0,"x_max":0,"o":""},"":{"ha":544,"x_min":-12,"x_max":479,"o":"m 404 600 q 456 580 432 600 q 479 533 479 560 q 456 425 479 486 q 399 364 432 364 q 338 390 363 364 q 313 453 313 417 q 337 550 313 500 q 404 600 361 600 m 357 144 l 161 -303 l 154 -319 q 144 -340 147 -336 q 134 -356 142 -344 q 118 -370 126 -367 q 100 -374 110 -374 q 82 -372 93 -374 q 58 -366 71 -369 q 42 -361 46 -362 q 31 -359 40 -361 q 16 -355 22 -357 q 3 -349 10 -353 q -8 -341 -4 -346 q -12 -329 -12 -336 q 28 -229 -12 -310 l 276 256 q 269 279 269 269 q 283 320 269 300 q 315 340 296 340 q 369 315 340 340 q 399 265 399 289 q 357 144 399 242 z "},"":{"ha":785,"x_min":147,"x_max":740,"o":"m 360 392 l 433 564 q 269 440 283 532 q 275 413 267 424 q 299 397 283 401 q 329 392 315 393 q 360 392 343 392 m 624 596 l 546 590 l 469 414 q 517 424 482 417 q 577 438 551 431 q 621 454 603 444 q 658 469 651 469 q 678 401 678 469 q 663 348 678 372 q 631 309 649 324 q 578 281 613 294 q 523 260 543 267 q 463 245 503 254 q 413 233 422 236 q 399 72 399 169 q 372 78 390 74 q 347 84 354 82 q 327 92 339 86 q 310 104 315 97 q 301 123 306 111 q 297 151 297 135 q 313 235 297 176 q 188 274 228 242 q 147 388 147 307 q 264 628 147 518 q 335 676 293 656 q 412 706 376 696 q 496 729 447 717 q 514 733 508 732 q 534 772 522 747 q 551 805 546 796 q 566 831 557 814 q 579 853 575 847 q 592 870 583 860 q 606 883 600 881 q 620 892 611 886 q 638 899 629 897 q 658 901 647 900 q 682 903 668 903 q 708 886 708 903 q 664 811 708 860 q 624 750 638 785 q 707 735 689 750 q 740 646 740 707 q 738 621 740 631 q 726 604 735 611 q 711 594 717 597 q 688 583 706 592 q 624 556 632 556 q 610 568 610 556 q 624 596 610 582 z "},"":{"ha":833,"x_min":-176,"x_max":972,"o":"m -56 213 l 140 242 l 242 367 q 74 363 178 381 q 130 431 107 415 q 211 442 153 446 l 297 436 l 361 521 l 653 889 q 791 1024 728 983 q 890 1060 854 1064 q 949 1028 925 1056 q 972 968 972 1000 q 942 856 972 921 q 861 708 913 792 q 799 603 810 625 q 824 588 822 596 q 825 581 825 585 q 814 555 825 569 q 783 524 803 540 q 747 494 763 507 q 709 466 731 482 q 685 449 688 450 q 621 414 638 414 q 588 467 588 414 q 633 605 588 519 q 724 744 678 690 q 779 850 810 850 q 746 828 772 850 q 635 701 692 769 q 511 549 578 632 q 406 419 444 467 q 451 410 428 417 q 499 389 475 404 q 522 354 522 374 q 489 325 522 325 q 458 331 479 325 q 432 336 436 336 l 349 353 l 256 246 q 575 184 371 239 q 831 119 779 129 q 776 58 817 107 q 700 -17 735 8 q 624 -42 665 -42 q 540 -31 593 -42 q 359 11 415 -1 q 200 37 303 24 q 14 49 97 50 q -18 33 7 46 q -60 13 -43 21 q -98 -3 -76 4 q -133 -10 -119 -10 q -163 -1 -150 -10 q -176 22 -176 7 q -160 67 -176 39 q -127 119 -144 96 q -85 173 -110 142 q -56 213 -61 204 z "},"":{"ha":964,"x_min":261,"x_max":851,"o":"m 851 175 l 793 118 l 706 222 q 556 169 643 169 q 406 219 463 169 l 319 118 l 261 175 l 353 269 q 290 451 290 346 q 353 632 290 563 l 261 724 l 321 781 l 406 681 q 556 735 465 735 q 708 681 650 735 l 794 781 l 851 724 l 760 632 q 824 451 824 564 q 805 353 824 404 q 757 271 786 303 l 851 175 m 557 651 l 554 651 q 434 595 483 651 q 385 451 385 539 q 434 308 385 363 q 557 253 483 253 q 680 308 631 253 q 729 451 729 364 q 679 595 729 539 q 557 651 629 651 z "},"":{"ha":1125,"x_min":58,"x_max":1332,"o":"m 960 468 l 1035 475 q 1235 449 1218 490 q 1229 426 1239 435 q 1199 413 1219 417 q 1162 406 1179 408 q 1124 404 1144 404 q 1103 404 1104 404 l 900 388 q 881 357 893 378 q 861 326 868 336 l 929 333 q 1129 307 1111 353 q 1124 284 1133 293 q 1094 271 1114 275 q 1056 265 1074 267 q 1019 263 1039 263 q 997 263 999 263 l 817 246 l 815 244 l 707 53 q 659 -19 701 14 q 569 -50 617 -51 q 522 -35 542 -50 q 503 -1 503 -19 q 619 219 503 58 q 447 178 525 204 q 505 257 475 236 q 625 294 535 278 l 675 304 l 717 361 q 551 321 653 351 q 588 381 572 363 q 635 415 603 400 q 731 439 668 429 l 779 447 q 1017 681 875 568 l 1011 682 l 571 439 q 343 344 410 350 q 283 347 314 342 q 233 364 253 351 q 218 392 214 376 q 219 400 218 393 q 222 411 221 407 q 231 427 224 415 q 250 451 239 439 q 283 483 261 463 q 333 528 304 504 q 406 588 361 553 q 504 663 450 622 q 563 706 525 678 q 632 756 611 740 q 678 792 653 772 q 711 824 703 813 q 719 842 719 835 q 711 849 719 846 q 696 849 703 851 q 142 644 313 718 q 89 631 117 633 q 58 635 64 629 q 67 671 51 647 l 88 722 q 119 760 97 746 q 189 794 142 775 q 533 917 338 854 q 838 989 728 979 q 924 984 886 993 q 963 951 961 975 q 956 931 963 943 q 936 904 949 918 q 909 876 924 890 q 876 847 894 863 q 843 820 857 831 q 813 797 829 810 q 793 781 797 785 q 677 689 736 735 q 586 619 618 643 q 526 573 554 594 q 488 539 499 551 q 478 518 478 526 q 488 509 478 513 q 521 510 499 506 q 568 528 543 514 l 1153 851 q 1247 896 1226 894 q 1303 882 1278 899 q 1332 849 1329 865 q 1326 831 1333 842 q 1295 800 1318 821 q 1244 753 1272 779 q 1162 676 1215 728 q 1051 568 1108 625 q 960 468 981 497 z "},"":{"ha":563,"x_min":317,"x_max":425,"o":"m 317 940 l 425 940 l 425 453 l 317 453 l 317 940 m 317 243 l 425 243 l 425 -242 l 317 -242 l 317 243 z "},"":{"ha":764,"x_min":68,"x_max":801,"o":"m 801 888 l 753 796 q 585 836 689 836 q 464 810 515 836 q 403 742 413 785 q 429 676 393 701 q 567 619 465 651 q 722 533 676 582 q 747 404 767 485 q 607 242 724 313 q 637 188 629 222 q 636 122 644 153 q 558 1 618 50 q 431 -67 497 -49 q 293 -86 364 -86 q 68 -29 143 -86 l 122 61 q 310 8 194 8 q 431 35 375 8 q 500 113 488 61 q 477 184 513 157 q 344 240 442 211 q 175 324 225 276 q 146 456 125 371 q 197 544 157 501 q 299 613 236 588 q 271 731 253 660 q 387 880 294 828 q 603 932 479 932 q 801 888 722 932 m 269 476 l 269 475 q 289 406 260 433 q 400 353 318 379 q 546 293 501 321 q 624 385 608 326 q 608 458 635 429 q 513 508 581 486 q 360 565 411 542 q 269 476 283 529 z "},"":{"ha":622,"x_min":188,"x_max":625,"o":"m 275 619 q 215 633 244 619 q 188 674 186 647 q 217 745 189 704 q 290 779 244 786 q 324 774 313 776 q 349 760 336 771 q 361 731 363 749 q 333 657 357 694 q 275 619 310 619 m 539 619 q 479 633 508 619 q 451 674 450 647 q 481 745 453 704 q 554 779 508 786 q 588 774 576 776 q 613 760 600 771 q 625 731 626 749 q 597 657 621 694 q 539 619 574 619 z "},"":{"ha":1208,"x_min":86,"x_max":1122,"o":"m 238 857 q 313 933 238 857 q 604 1008 389 1008 q 971 857 819 1008 q 1122 490 1122 706 q 971 124 1122 275 q 604 -28 819 -28 q 238 124 389 -28 q 86 490 86 275 q 238 857 86 706 m 876 763 q 819 820 876 763 q 604 878 761 878 q 332 763 447 878 q 217 490 217 647 q 332 218 217 333 q 604 103 447 103 q 876 218 761 103 q 992 490 992 333 q 876 763 992 647 m 857 586 l 721 586 q 719 601 721 594 q 715 610 717 607 q 707 622 714 613 q 696 636 700 631 q 607 671 658 671 q 475 497 475 671 q 607 324 475 324 q 687 349 653 324 q 721 408 721 374 l 857 408 q 776 253 839 300 q 608 201 718 208 q 412 276 489 193 q 335 497 335 358 q 412 718 335 636 q 608 793 489 800 q 778 738 718 785 q 857 586 839 692 z "},"":{"ha":533,"x_min":122,"x_max":588,"o":"m 378 756 l 297 694 q 201 633 218 633 q 153 669 182 633 q 122 736 124 706 q 244 878 119 808 q 458 950 368 947 q 501 936 485 951 q 517 910 517 921 q 485 889 517 900 q 511 856 511 878 q 472 797 511 843 q 432 731 432 751 q 460 711 432 711 q 492 719 474 711 q 523 734 510 726 q 556 755 536 742 q 582 772 575 768 l 588 740 q 491 663 560 710 q 392 617 422 617 q 349 661 349 617 q 382 754 349 694 l 381 753 l 378 756 m 429 865 l 426 868 q 238 790 283 826 q 192 715 192 754 q 206 703 192 703 q 429 865 253 703 m 122 561 l 588 561 l 588 515 l 122 515 l 122 561 z "},"":{"ha":531,"x_min":53,"x_max":525,"o":"m 239 157 q 120 228 196 157 q 53 343 44 300 q 92 425 53 375 q 128 482 104 446 q 170 549 151 518 q 203 611 189 579 q 219 578 206 603 q 240 533 232 553 q 247 497 247 514 q 217 443 247 481 q 178 389 201 426 q 154 338 154 351 q 161 322 154 332 q 187 298 168 311 q 232 278 206 285 q 290 211 290 263 q 276 172 290 188 q 239 157 263 157 m 474 157 q 355 228 431 157 q 288 343 279 300 q 326 425 288 375 q 363 482 339 446 q 405 549 386 518 q 438 611 424 579 q 453 578 440 603 q 474 533 467 553 q 482 497 482 514 q 451 443 482 481 q 413 389 436 426 q 389 338 389 351 q 396 322 389 332 q 422 298 403 311 q 467 278 440 285 q 525 211 525 263 q 511 172 525 188 q 474 157 497 157 z "},"":{"ha":854,"x_min":154,"x_max":788,"o":"m 788 146 l 701 146 l 701 446 l 154 446 l 154 529 l 788 529 l 788 146 z "},"":{"ha":444,"x_min":0,"x_max":417,"o":"m 0 444 l 417 444 l 417 322 l 0 322 l 0 444 z "},"":{"ha":1208,"x_min":86,"x_max":1122,"o":"m 238 857 q 313 933 238 857 q 604 1008 389 1008 q 971 857 819 1008 q 1122 490 1122 706 q 971 124 1122 275 q 604 -28 819 -28 q 238 124 389 -28 q 86 490 86 275 q 238 857 86 706 m 333 219 q 391 161 333 219 q 604 103 449 103 q 876 219 760 103 q 992 490 992 335 q 876 763 992 647 q 604 878 761 878 q 332 763 447 878 q 217 490 217 647 q 333 219 217 335 m 711 465 l 824 250 l 683 250 l 579 465 l 513 465 l 513 250 l 390 250 l 390 760 l 639 760 q 778 738 743 760 q 839 604 839 700 q 711 465 839 476 m 513 554 l 635 554 q 696 567 675 554 q 717 617 717 581 q 697 655 717 642 q 660 669 678 668 q 614 671 643 671 l 513 671 l 513 554 z "},"":{"ha":472,"x_min":94,"x_max":569,"o":"m 156 678 q 280 671 215 672 q 436 672 344 669 q 569 674 528 674 l 569 671 q 549 613 565 671 q 514 556 532 554 q 94 556 269 568 q 97 575 94 558 q 100 599 99 592 q 105 622 101 607 q 112 645 108 638 q 122 663 115 653 q 136 676 128 672 q 156 678 144 679 z "},"":{"ha":668,"x_min":231,"x_max":607,"o":"m 418 908 l 419 908 q 554 851 501 908 q 607 711 607 794 q 553 569 607 622 q 418 517 499 517 q 285 569 340 517 q 231 711 231 622 q 285 853 231 799 q 418 908 340 908 m 418 850 l 417 850 q 335 813 367 850 q 304 713 304 775 q 337 613 304 653 q 421 574 369 574 q 503 611 472 574 q 533 710 533 649 q 503 810 533 771 q 418 850 474 850 z "},"":{"ha":914,"x_min":213,"x_max":846,"o":"m 844 419 l 572 419 l 572 142 l 486 142 l 486 419 l 213 419 l 213 503 l 486 503 l 486 767 l 572 767 l 572 503 l 844 503 l 844 419 m 846 -4 l 214 -4 l 214 76 l 846 76 l 846 -4 z "},"":{"ha":521,"x_min":117,"x_max":631,"o":"m 357 756 l 260 739 q 229 735 239 735 q 208 767 208 735 q 224 824 208 789 q 258 878 240 860 q 381 940 294 915 q 535 964 468 964 q 609 938 588 964 q 631 826 631 911 q 617 770 631 790 q 569 722 604 750 q 388 620 540 700 q 194 508 235 540 l 197 506 l 546 563 q 507 476 518 492 q 340 417 469 429 q 225 410 293 411 q 154 419 165 410 q 117 511 117 453 q 125 538 117 524 q 150 567 133 551 q 185 597 167 582 q 231 628 204 611 q 278 657 257 644 q 328 685 300 669 q 374 708 357 700 q 415 728 390 717 q 443 743 439 740 q 458 751 446 744 q 476 760 469 757 q 494 769 482 763 q 515 782 507 776 q 533 794 522 788 q 551 808 544 801 q 564 823 557 815 q 574 838 571 831 q 576 853 576 846 q 574 860 576 857 q 566 863 571 863 q 556 864 561 864 q 545 863 551 864 q 536 863 539 863 q 292 796 447 863 l 292 793 l 346 789 q 355 788 347 789 q 367 785 363 786 q 375 780 371 783 q 379 771 379 776 q 357 756 379 758 z "},"":{"ha":565,"x_min":86,"x_max":692,"o":"m 338 846 l 356 843 q 376 840 363 843 q 389 829 389 836 q 374 819 389 819 q 289 814 346 814 q 243 858 243 814 q 329 932 243 901 q 507 954 393 954 q 571 951 544 954 q 628 940 597 949 q 676 908 660 931 q 692 853 692 886 q 675 806 692 831 q 636 768 658 781 q 628 763 635 767 q 621 759 622 760 q 614 756 619 758 q 603 753 608 754 q 588 749 597 751 q 567 743 579 746 q 540 737 556 740 q 501 728 524 733 q 453 718 479 724 q 392 706 428 713 l 392 703 q 538 667 501 688 q 579 593 579 640 q 489 472 579 532 q 249 411 399 411 q 128 433 171 411 q 86 481 86 456 q 117 528 86 496 q 164 561 147 561 q 178 551 178 561 q 157 526 178 544 q 244 513 194 513 q 425 547 340 513 q 510 607 510 581 q 490 633 510 622 q 438 649 469 644 q 385 656 407 654 q 344 657 364 657 q 265 649 300 657 q 251 647 261 649 q 239 646 242 646 q 225 664 225 646 q 253 726 225 696 q 324 758 278 753 q 622 849 622 792 q 531 885 622 885 q 338 849 443 885 l 338 846 z "},"":{"ha":486,"x_min":157,"x_max":522,"o":"m 364 694 l 446 719 q 489 728 474 728 q 505 725 499 728 q 514 715 511 722 q 518 702 517 707 q 520 685 519 697 q 521 668 521 672 q 522 627 525 640 q 511 611 519 614 q 472 611 503 608 q 354 606 418 614 q 222 576 265 593 q 176 565 194 565 q 157 578 157 565 q 196 635 157 608 q 364 694 224 653 z "},"":{"ha":664,"x_min":-217,"x_max":750,"o":"m 324 246 l 461 369 q 489 395 463 371 q 535 438 515 419 q 583 478 556 456 q 631 515 610 501 q 661 528 651 528 q 693 451 688 528 q 636 367 696 419 q 542 260 590 325 q 493 154 493 196 q 528 124 493 124 q 742 254 578 124 l 750 194 q 710 155 744 189 q 657 104 675 121 q 603 56 639 88 q 541 9 567 25 q 485 -20 515 -7 q 429 -33 454 -33 q 369 -6 392 -33 q 347 58 347 21 q 376 175 347 99 l 374 178 q 314 117 363 168 q 225 35 265 65 q 150 6 185 6 q 58 65 106 6 q -92 -160 -18 -89 q -217 -203 -165 -231 q -172 -53 -310 -153 q 67 286 -74 18 q 238 475 128 403 q 299 490 261 490 q 315 491 301 490 q 339 492 329 492 q 361 490 349 492 q 379 480 374 488 q 383 461 385 472 q 363 423 382 446 q 328 388 343 400 q 222 288 269 321 q 169 234 192 267 q 146 168 146 201 q 157 146 146 149 q 228 176 178 147 q 324 246 278 204 z "},"":{"ha":913,"x_min":236,"x_max":807,"o":"m 613 -67 l 519 -67 l 519 356 l 503 356 q 315 423 394 356 q 236 619 235 490 q 331 841 236 760 q 635 922 426 922 q 807 910 744 922 l 807 -67 l 713 -67 l 713 833 l 613 833 l 613 -67 z "},"":{"ha":418,"x_min":172,"x_max":381,"o":"m 260 206 q 219 212 235 208 q 188 228 204 215 q 172 264 172 242 q 215 367 172 310 q 313 413 258 424 q 327 410 315 413 q 346 406 339 408 q 362 400 353 404 q 376 388 371 396 q 381 368 381 379 q 369 323 381 360 q 328 244 358 286 q 260 206 299 201 z "},"":{"ha":472,"x_min":1,"x_max":303,"o":"m 211 0 l 172 -76 q 263 -90 222 -72 q 303 -154 303 -108 q 259 -229 303 -206 q 160 -249 215 -253 q 60 -229 119 -247 q 1 -183 1 -211 q 14 -168 1 -168 q 54 -183 22 -168 q 110 -199 86 -199 q 158 -185 136 -199 q 181 -149 181 -172 q 101 -103 181 -103 l 154 0 l 211 0 z "},"":{"ha":493,"x_min":228,"x_max":576,"o":"m 453 863 l 368 833 q 361 831 367 833 q 350 826 356 828 q 343 825 344 825 q 336 844 336 825 q 378 886 339 868 q 424 910 383 889 q 494 944 464 931 q 535 958 524 958 q 561 940 549 958 q 576 901 576 914 q 508 771 576 879 l 435 657 q 329 435 329 496 q 331 421 329 431 q 332 406 332 411 q 319 394 332 394 q 300 401 311 394 q 276 413 293 406 q 251 426 258 421 q 235 442 243 431 q 228 468 228 453 q 290 640 228 526 l 404 799 l 456 860 l 453 863 z "},"":{"ha":465,"x_min":122,"x_max":519,"o":"m 511 794 l 519 760 q 374 692 463 692 q 235 625 304 625 q 171 659 199 625 q 142 749 143 693 q 222 889 140 828 q 392 950 299 946 q 426 944 410 951 q 442 919 442 936 q 421 897 442 910 q 453 849 453 889 q 418 750 453 817 q 446 751 432 747 q 468 761 460 756 q 491 778 476 767 q 511 794 506 790 m 344 858 l 342 860 q 313 843 336 856 q 273 820 289 831 q 244 799 257 810 q 211 722 211 768 q 219 700 211 706 q 247 694 228 694 q 317 724 283 694 q 306 763 306 743 q 311 791 306 775 q 323 819 317 807 q 337 844 329 831 q 344 858 344 857 m 122 561 l 519 561 l 519 515 l 122 515 l 122 561 z "},"":{"ha":531,"x_min":90,"x_max":563,"o":"m 376 611 q 495 540 419 611 q 563 425 571 468 q 524 343 563 393 q 488 286 511 322 q 445 219 464 250 q 413 157 426 189 q 397 190 410 165 q 376 235 383 215 q 368 271 368 254 q 399 325 368 286 q 438 379 414 342 q 461 431 461 417 q 454 447 461 436 q 428 470 447 457 q 383 490 410 483 q 325 557 325 506 q 339 596 325 581 q 376 611 353 611 m 142 611 q 260 540 185 611 q 328 425 336 468 q 289 343 328 393 q 253 286 276 322 q 210 219 229 250 q 178 157 192 189 q 162 190 175 165 q 141 235 149 215 q 133 271 133 254 q 164 325 133 286 q 203 379 179 342 q 226 431 226 417 q 219 447 226 436 q 194 470 213 457 q 149 490 175 483 q 90 557 90 506 q 104 596 90 581 q 142 611 118 611 z "},"":{"ha":1101,"x_min":131,"x_max":1036,"o":"m 897 0 l 790 0 l 822 129 l 542 129 l 557 190 l 918 536 l 1031 536 l 947 204 l 1036 204 l 1018 129 l 929 129 l 897 0 m 842 204 l 878 351 q 903 433 889 397 l 899 435 q 836 368 865 397 l 657 206 l 658 204 l 842 204 m 221 -14 l 131 -14 l 882 900 l 971 900 l 221 -14 m 336 363 l 222 363 l 332 800 l 329 800 l 219 758 l 215 835 l 368 894 l 468 894 l 336 363 z "},"":{"ha":1158,"x_min":131,"x_max":1110,"o":"m 221 -14 l 131 -14 l 882 900 l 971 900 l 221 -14 m 336 363 l 222 363 l 332 800 l 329 800 l 219 758 l 215 835 l 368 894 l 468 894 l 336 363 m 617 0 l 633 65 l 754 149 q 926 278 875 232 q 989 365 978 324 q 978 424 997 399 q 903 450 960 450 q 760 408 831 450 l 746 482 q 954 539 849 539 q 1085 494 1044 539 q 1110 382 1126 450 q 1080 313 1100 344 q 1017 247 1060 282 q 946 190 975 211 q 849 125 917 169 l 790 89 l 789 86 l 1046 86 l 1024 0 l 617 0 z "},"":{"ha":1207,"x_min":99,"x_max":1142,"o":"m 1003 0 l 897 0 l 931 129 l 649 129 l 664 190 l 1024 536 l 1136 536 l 1054 204 l 1142 204 l 1124 129 l 1035 129 l 1003 0 m 949 204 l 986 351 q 1010 433 996 390 l 1007 435 l 943 367 l 764 206 l 765 204 l 949 204 m 328 -14 l 238 -14 l 989 900 l 1078 900 l 328 -14 m 250 786 l 243 860 q 435 901 326 901 q 569 865 529 901 q 596 771 610 828 q 546 696 586 728 q 449 647 506 664 l 447 644 q 538 600 508 636 q 556 515 568 564 q 463 401 539 447 q 274 356 386 356 q 99 392 156 356 l 143 469 q 278 436 193 436 q 385 460 342 436 q 439 521 429 483 q 409 585 449 561 q 294 608 369 608 l 250 608 l 267 679 l 313 679 q 422 701 374 679 q 478 756 469 722 q 462 803 483 783 q 386 822 440 822 q 250 786 318 822 z "},"":{"ha":649,"x_min":-10,"x_max":515,"o":"m 369 -182 l 356 -176 q 314 -143 314 -161 q 343 -118 314 -118 q 368 -122 347 -118 l 422 -131 q 436 -131 425 -131 q 452 -131 447 -131 q 465 -134 457 -132 q 478 -140 474 -136 q 485 -150 482 -143 q 489 -167 489 -157 q 476 -223 489 -186 q 453 -279 464 -260 q 328 -348 426 -322 q 160 -374 231 -374 q 33 -340 76 -374 q -10 -226 -10 -307 q 88 15 -10 -100 l 268 229 q 281 244 272 235 q 294 258 290 253 q 301 272 297 263 q 304 292 304 282 q 300 310 304 297 q 296 329 296 322 q 326 361 296 361 q 382 328 358 361 q 406 261 406 294 q 306 89 406 183 l 146 -58 q 126 -76 144 -60 q 101 -99 107 -93 q 82 -120 94 -106 q 65 -148 69 -135 q 60 -174 60 -161 q 68 -208 60 -194 q 93 -226 76 -221 q 123 -232 110 -231 q 157 -233 136 -233 q 235 -225 194 -233 q 297 -209 275 -217 q 369 -182 318 -201 m 440 594 q 492 574 468 594 q 515 528 515 554 q 492 419 515 481 q 435 358 468 358 q 374 385 399 358 q 349 447 349 411 q 373 544 349 494 q 440 594 397 594 z "},"":{"ha":1082,"x_min":-101,"x_max":1142,"o":"m 774 483 l 963 800 l 960 803 l 558 471 l 561 468 l 774 483 m 839 319 l 751 149 q 776 126 751 126 q 785 127 781 126 q 794 129 790 128 q 805 135 799 131 q 816 142 811 139 q 831 152 821 144 q 848 165 840 160 q 871 182 856 171 q 899 203 886 193 l 924 167 q 640 -12 744 -12 q 588 11 606 -12 q 569 71 569 35 q 569 75 569 72 q 568 81 568 78 q 569 91 568 83 q 574 108 571 99 q 585 135 578 118 q 603 175 593 153 q 631 231 614 197 q 671 306 649 265 l 368 296 l 83 13 q 70 -1 82 11 q 55 -16 58 -12 q 40 -31 51 -19 q 22 -46 28 -42 q 4 -58 15 -50 q -15 -70 -7 -67 q -33 -76 -24 -74 q -53 -79 -43 -79 q -101 -49 -101 -79 q -28 68 -101 -8 q 136 176 46 144 l 244 296 q 144 295 178 290 q 110 324 110 300 q 172 410 110 347 q 285 490 235 474 q 369 510 329 506 q 414 500 410 514 q 363 481 414 488 q 313 463 313 475 q 332 450 313 450 q 417 454 399 454 l 728 713 q 1093 951 1017 951 q 1128 932 1114 951 q 1142 892 1142 913 q 1099 790 1142 868 l 926 489 q 970 490 953 489 q 990 493 988 492 q 1001 494 993 494 q 1017 492 1010 493 q 1054 483 1025 490 q 950 325 1006 426 l 839 319 m 853 1165 l 935 1140 q 1103 1081 1075 1099 q 1142 1024 1142 1054 q 1122 1011 1142 1011 q 1076 1022 1104 1011 q 944 1051 1033 1039 q 826 1057 881 1060 q 780 1062 785 1054 q 778 1114 775 1069 q 778 1131 778 1118 q 781 1148 779 1143 q 785 1160 782 1153 q 794 1171 788 1168 q 810 1174 800 1174 q 853 1165 825 1174 z "},"":{"ha":1082,"x_min":-101,"x_max":1238,"o":"m 774 483 l 963 800 l 960 803 l 558 471 l 561 468 l 774 483 m 839 319 l 751 149 q 776 126 751 126 q 785 127 781 126 q 794 129 790 128 q 805 135 799 131 q 816 142 811 139 q 831 152 821 144 q 848 165 840 160 q 871 182 856 171 q 899 203 886 193 l 924 167 q 640 -12 744 -12 q 588 11 606 -12 q 569 71 569 35 q 569 75 569 72 q 568 81 568 78 q 569 91 568 83 q 574 108 571 99 q 585 135 578 118 q 603 175 593 153 q 631 231 614 197 q 671 306 649 265 l 368 296 l 83 13 q 70 -1 82 11 q 55 -16 58 -12 q 40 -31 51 -19 q 22 -46 28 -42 q 4 -58 15 -50 q -15 -70 -7 -67 q -33 -76 -24 -74 q -53 -79 -43 -79 q -101 -49 -101 -79 q -28 68 -101 -8 q 136 176 46 144 l 244 296 q 144 295 178 290 q 110 324 110 300 q 172 410 110 347 q 285 490 235 474 q 369 510 329 506 q 414 500 410 514 q 363 481 414 488 q 313 463 313 475 q 332 450 313 450 q 417 454 399 454 l 728 713 q 1093 951 1017 951 q 1128 932 1114 951 q 1142 892 1142 913 q 1099 790 1142 868 l 926 489 q 970 490 953 489 q 990 493 988 492 q 1001 494 993 494 q 1017 492 1010 493 q 1054 483 1025 490 q 950 325 1006 426 l 839 319 m 1079 1114 l 1161 1139 q 1204 1147 1189 1147 q 1220 1144 1214 1147 q 1229 1134 1226 1142 q 1233 1122 1232 1126 q 1235 1104 1235 1117 q 1236 1088 1236 1092 q 1238 1047 1240 1060 q 1226 1031 1235 1033 q 1188 1031 1218 1028 q 1069 1025 1133 1033 q 938 996 981 1013 q 892 985 910 985 q 872 997 872 985 q 911 1054 872 1028 q 1079 1114 939 1072 z "},"":{"ha":1082,"x_min":-101,"x_max":1294,"o":"m 774 483 l 963 800 l 960 803 l 558 471 l 561 468 l 774 483 m 839 319 l 751 149 q 776 126 751 126 q 785 127 781 126 q 794 129 790 128 q 805 135 799 131 q 816 142 811 139 q 831 152 821 144 q 848 165 840 160 q 871 182 856 171 q 899 203 886 193 l 924 167 q 640 -12 744 -12 q 588 11 606 -12 q 569 71 569 35 q 569 75 569 72 q 568 81 568 78 q 569 91 568 83 q 574 108 571 99 q 585 135 578 118 q 603 175 593 153 q 631 231 614 197 q 671 306 649 265 l 368 296 l 83 13 q 70 -1 82 11 q 55 -16 58 -12 q 40 -31 51 -19 q 22 -46 28 -42 q 4 -58 15 -50 q -15 -70 -7 -67 q -33 -76 -24 -74 q -53 -79 -43 -79 q -101 -49 -101 -79 q -28 68 -101 -8 q 136 176 46 144 l 244 296 q 144 295 178 290 q 110 324 110 300 q 172 410 110 347 q 285 490 235 474 q 369 510 329 506 q 414 500 410 514 q 363 481 414 488 q 313 463 313 475 q 332 450 313 450 q 417 454 399 454 l 728 713 q 1093 951 1017 951 q 1128 932 1114 951 q 1142 892 1142 913 q 1099 790 1142 868 l 926 489 q 970 490 953 489 q 990 493 988 492 q 1001 494 993 494 q 1017 492 1010 493 q 1054 483 1025 490 q 950 325 1006 426 l 839 319 m 1036 1046 l 914 994 q 867 976 872 976 q 854 996 854 976 q 942 1076 854 1042 l 1054 1121 q 1168 1153 1136 1153 q 1247 1096 1194 1153 q 1259 1085 1249 1094 q 1276 1069 1269 1075 q 1288 1053 1282 1063 q 1294 1036 1294 1043 q 1265 997 1294 1018 q 1238 976 1243 983 q 1178 1026 1226 982 q 1106 1069 1129 1069 q 1036 1046 1094 1069 z "},"":{"ha":1082,"x_min":-101,"x_max":1190,"o":"m 774 483 l 963 800 l 960 803 l 558 471 l 561 468 l 774 483 m 839 319 l 751 149 q 776 126 751 126 q 785 127 781 126 q 794 129 790 128 q 805 135 799 131 q 816 142 811 139 q 831 152 821 144 q 848 165 840 160 q 871 182 856 171 q 899 203 886 193 l 924 167 q 640 -12 744 -12 q 588 11 606 -12 q 569 71 569 35 q 569 75 569 72 q 568 81 568 78 q 569 91 568 83 q 574 108 571 99 q 585 135 578 118 q 603 175 593 153 q 631 231 614 197 q 671 306 649 265 l 368 296 l 83 13 q 70 -1 82 11 q 55 -16 58 -12 q 40 -31 51 -19 q 22 -46 28 -42 q 4 -58 15 -50 q -15 -70 -7 -67 q -33 -76 -24 -74 q -53 -79 -43 -79 q -101 -49 -101 -79 q -28 68 -101 -8 q 136 176 46 144 l 244 296 q 144 295 178 290 q 110 324 110 300 q 172 410 110 347 q 285 490 235 474 q 369 510 329 506 q 414 500 410 514 q 363 481 414 488 q 313 463 313 475 q 332 450 313 450 q 417 454 399 454 l 728 713 q 1093 951 1017 951 q 1128 932 1114 951 q 1142 892 1142 913 q 1099 790 1142 868 l 926 489 q 970 490 953 489 q 990 493 988 492 q 1001 494 993 494 q 1017 492 1010 493 q 1054 483 1025 490 q 950 325 1006 426 l 839 319 m 932 1125 l 1113 1107 l 1115 1110 q 1067 1158 1067 1143 q 1072 1172 1067 1165 q 1085 1178 1078 1178 q 1149 1138 1108 1178 q 1190 1061 1190 1097 q 1131 1003 1190 1003 q 1045 1013 1103 1003 q 958 1022 988 1024 q 969 1013 964 1018 q 978 1005 975 1007 q 983 1000 981 1003 q 988 996 986 997 q 990 992 989 994 q 992 988 992 990 q 992 983 992 986 q 978 969 992 969 q 940 989 968 969 q 927 998 936 992 q 913 1008 918 1004 q 900 1017 907 1011 q 889 1029 893 1024 q 882 1043 885 1035 q 879 1060 879 1051 q 890 1109 879 1093 q 932 1125 901 1125 z "},"":{"ha":1082,"x_min":-101,"x_max":1272,"o":"m 774 483 l 963 800 l 960 803 l 558 471 l 561 468 l 774 483 m 839 319 l 751 149 q 776 126 751 126 q 785 127 781 126 q 794 129 790 128 q 805 135 799 131 q 816 142 811 139 q 831 152 821 144 q 848 165 840 160 q 871 182 856 171 q 899 203 886 193 l 924 167 q 640 -12 744 -12 q 588 11 606 -12 q 569 71 569 35 q 569 75 569 72 q 568 81 568 78 q 569 91 568 83 q 574 108 571 99 q 585 135 578 118 q 603 175 593 153 q 631 231 614 197 q 671 306 649 265 l 368 296 l 83 13 q 70 -1 82 11 q 55 -16 58 -12 q 40 -31 51 -19 q 22 -46 28 -42 q 4 -58 15 -50 q -15 -70 -7 -67 q -33 -76 -24 -74 q -53 -79 -43 -79 q -101 -49 -101 -79 q -28 68 -101 -8 q 136 176 46 144 l 244 296 q 144 295 178 290 q 110 324 110 300 q 172 410 110 347 q 285 490 235 474 q 369 510 329 506 q 414 500 410 514 q 363 481 414 488 q 313 463 313 475 q 332 450 313 450 q 417 454 399 454 l 728 713 q 1093 951 1017 951 q 1128 932 1114 951 q 1142 892 1142 913 q 1099 790 1142 868 l 926 489 q 970 490 953 489 q 990 493 988 492 q 1001 494 993 494 q 1017 492 1010 493 q 1054 483 1025 490 q 950 325 1006 426 l 839 319 m 922 1025 q 863 1039 892 1025 q 835 1079 833 1053 q 864 1151 836 1110 q 938 1185 892 1192 q 972 1179 960 1182 q 997 1165 983 1176 q 1008 1136 1010 1154 q 981 1063 1004 1100 q 922 1025 957 1025 m 1186 1025 q 1126 1039 1156 1025 q 1099 1079 1097 1053 q 1128 1151 1100 1110 q 1201 1185 1156 1192 q 1235 1179 1224 1182 q 1260 1165 1247 1176 q 1272 1136 1274 1154 q 1244 1063 1268 1100 q 1186 1025 1221 1025 z "},"":{"ha":1082,"x_min":-101,"x_max":1278,"o":"m 774 483 l 963 800 l 960 803 l 558 471 l 561 468 l 774 483 m 839 319 l 751 149 q 776 126 751 126 q 785 127 781 126 q 794 129 790 128 q 805 135 799 131 q 816 142 811 139 q 831 152 821 144 q 848 165 840 160 q 871 182 856 171 q 899 203 886 193 l 924 167 q 640 -12 744 -12 q 588 11 606 -12 q 569 71 569 35 q 569 75 569 72 q 568 81 568 78 q 569 91 568 83 q 574 108 571 99 q 585 135 578 118 q 603 175 593 153 q 631 231 614 197 q 671 306 649 265 l 368 296 l 83 13 q 70 -1 82 11 q 55 -16 58 -12 q 40 -31 51 -19 q 22 -46 28 -42 q 4 -58 15 -50 q -15 -70 -7 -67 q -33 -76 -24 -74 q -53 -79 -43 -79 q -101 -49 -101 -79 q -28 68 -101 -8 q 136 176 46 144 l 244 296 q 144 295 178 290 q 110 324 110 300 q 172 410 110 347 q 285 490 235 474 q 369 510 329 506 q 414 500 410 514 q 363 481 414 488 q 313 463 313 475 q 332 450 313 450 q 417 454 399 454 l 728 713 q 1093 951 1017 951 q 1128 932 1114 951 q 1142 892 1142 913 q 1099 790 1142 868 l 926 489 q 970 490 953 489 q 990 493 988 492 q 1001 494 993 494 q 1017 492 1010 493 q 1054 483 1025 490 q 950 325 1006 426 l 839 319 m 1214 1206 l 1264 1178 q 1278 1135 1278 1164 q 1247 1027 1278 1074 q 1158 981 1217 981 q 1086 1010 1118 981 q 1054 1081 1054 1040 q 1101 1177 1054 1129 q 1172 1225 1147 1225 q 1214 1206 1179 1225 m 1188 1156 q 1124 1040 1124 1108 q 1127 1033 1124 1039 q 1131 1026 1131 1028 q 1185 1088 1176 1067 q 1192 1121 1192 1103 q 1188 1156 1192 1139 z "},"":{"ha":1779,"x_min":-101,"x_max":1843,"o":"m 1840 949 l 1843 890 q 1835 815 1846 831 q 1767 781 1825 799 q 1684 744 1729 768 q 1610 706 1639 721 q 1572 690 1582 690 q 1557 704 1557 690 q 1579 737 1557 714 q 1626 781 1601 760 q 1650 803 1650 801 l 1650 800 l 1653 800 l 1653 803 q 1474 790 1560 804 q 1328 755 1388 776 q 1224 708 1268 733 q 1159 660 1179 682 q 1142 622 1139 638 q 1165 593 1146 601 q 1583 568 1236 561 q 1676 539 1676 568 q 1658 491 1676 521 q 1625 449 1640 461 q 1493 413 1603 429 q 1266 354 1368 392 q 1107 276 1164 317 q 1020 202 1050 236 q 990 147 990 168 q 1107 103 990 107 q 1435 151 1251 94 q 1524 188 1479 165 q 1630 249 1569 211 q 1714 299 1690 286 q 1705 170 1719 217 q 1633 76 1690 124 q 1397 -44 1539 -3 q 1121 -82 1256 -85 q 931 -51 1036 -81 q 861 8 889 -40 q 838 89 833 56 q 775 42 794 56 q 713 8 756 29 q 640 -12 671 -12 q 588 11 606 -12 q 569 71 569 35 q 569 75 569 72 q 568 81 568 78 q 569 91 568 83 q 574 108 571 99 q 585 135 578 118 q 603 175 593 153 q 631 231 614 197 q 671 306 649 265 l 368 296 l 83 13 q 70 -1 82 11 q 55 -16 58 -12 q 40 -31 51 -19 q 22 -46 28 -42 q 4 -58 15 -50 q -15 -70 -7 -67 q -33 -76 -24 -74 q -53 -79 -43 -79 q -101 -49 -101 -79 q -28 68 -101 -8 q 136 176 46 144 l 244 296 q 144 295 178 290 q 110 324 110 300 q 172 410 110 347 q 285 490 235 474 q 369 510 329 506 q 414 500 410 514 q 363 481 414 488 q 313 463 313 475 q 332 450 313 450 q 417 454 399 454 l 728 713 q 1093 951 1017 951 q 1132 928 1117 951 q 1132 861 1147 904 l 1135 858 q 1644 988 1331 988 q 1668 988 1647 988 q 1700 988 1689 988 q 1733 987 1711 988 q 1769 983 1756 986 q 1799 976 1783 981 q 1826 965 1815 972 q 1840 949 1836 958 m 560 471 l 563 468 l 774 483 l 961 799 l 958 801 l 560 471 m 989 603 l 925 490 q 976 493 964 494 q 1004 479 989 492 q 910 325 949 413 l 838 321 l 790 231 q 763 129 742 138 q 774 128 767 128 q 849 168 804 128 l 860 178 q 981 319 894 257 q 1162 417 1067 382 q 1367 472 1257 451 l 1367 475 l 1147 506 q 1051 540 1088 519 q 989 603 1014 561 z "},"":{"ha":993,"x_min":-12,"x_max":1018,"o":"m 483 440 l 586 531 q 657 585 640 585 q 671 553 681 585 l 674 550 q 833 717 769 633 q 896 838 896 801 q 858 865 896 875 q 845 863 857 865 q 822 856 833 860 q 789 846 810 853 q 744 826 768 839 q 690 794 721 813 q 624 747 660 775 q 549 683 589 718 q 462 597 510 647 q 364 489 414 547 q 243 299 290 403 q 196 115 196 194 q 343 -42 196 -42 q 640 71 460 -42 q 956 303 821 183 q 949 244 957 268 q 928 207 940 221 q 885 163 917 193 q 361 -165 610 -103 l 336 -215 q 426 -229 386 -211 q 467 -293 467 -247 q 423 -368 467 -344 q 324 -387 379 -392 q 224 -368 283 -386 q 165 -322 165 -350 q 178 -307 165 -307 q 218 -322 186 -307 q 274 -337 250 -337 q 322 -324 300 -337 q 344 -287 344 -311 q 265 -242 344 -242 l 297 -178 q 253 -182 274 -182 q 61 -113 135 -182 q -12 74 -12 -44 q 81 362 -12 213 q 301 632 174 511 q 592 855 418 743 q 876 967 765 967 q 978 933 940 967 q 1018 835 1015 899 q 965 671 1022 768 q 826 489 908 574 q 651 340 744 404 q 494 265 558 275 q 440 281 464 261 q 417 332 417 300 q 483 440 417 383 z "},"":{"ha":975,"x_min":29,"x_max":1039,"o":"m 1039 856 q 1031 780 1042 796 q 963 746 1021 764 q 880 711 924 733 q 807 673 836 689 q 768 656 778 657 q 758 659 764 654 q 753 669 753 664 q 849 768 753 693 q 669 756 756 769 q 524 720 583 742 q 419 673 464 699 q 355 625 375 647 q 338 588 335 603 q 363 558 342 567 q 779 535 435 528 q 872 504 872 535 q 854 456 872 486 q 821 414 836 426 q 689 378 799 394 q 462 319 564 357 q 303 242 360 282 q 216 167 246 201 q 186 113 186 133 q 303 68 186 72 q 631 117 447 60 q 720 153 675 131 q 826 214 765 176 q 910 264 886 251 q 901 135 915 182 q 829 42 886 89 q 767 -2 806 21 q 665 -54 729 -25 q 508 -101 600 -83 q 317 -117 417 -118 q 126 -86 232 -115 q 57 -25 85 -75 q 29 71 29 25 q 56 155 29 110 q 140 253 83 200 q 307 356 197 306 q 561 443 417 407 l 561 447 q 369 465 447 451 q 252 502 292 479 q 197 550 213 525 q 181 607 181 575 q 204 696 181 650 q 281 788 228 742 q 410 872 335 835 q 597 933 485 910 q 840 956 708 956 q 1036 914 1017 956 l 1039 856 m 576 1151 l 658 1126 q 826 1067 799 1085 q 865 1010 865 1040 q 846 997 865 997 q 800 1008 828 997 q 668 1038 757 1025 q 550 1043 604 1046 q 503 1048 508 1040 q 501 1100 499 1056 q 502 1117 501 1104 q 504 1134 503 1129 q 508 1147 506 1139 q 517 1157 511 1154 q 533 1160 524 1160 q 576 1151 549 1160 z "},"":{"ha":975,"x_min":29,"x_max":1039,"o":"m 1039 856 q 1031 780 1042 796 q 963 746 1021 764 q 880 711 924 733 q 807 673 836 689 q 768 656 778 657 q 758 659 764 654 q 753 669 753 664 q 849 768 753 693 q 669 756 756 769 q 524 720 583 742 q 419 673 464 699 q 355 625 375 647 q 338 588 335 603 q 363 558 342 567 q 779 535 435 528 q 872 504 872 535 q 854 456 872 486 q 821 414 836 426 q 689 378 799 394 q 462 319 564 357 q 303 242 360 282 q 216 167 246 201 q 186 113 186 133 q 303 68 186 72 q 631 117 447 60 q 720 153 675 131 q 826 214 765 176 q 910 264 886 251 q 901 135 915 182 q 829 42 886 89 q 767 -2 806 21 q 665 -54 729 -25 q 508 -101 600 -83 q 317 -117 417 -118 q 126 -86 232 -115 q 57 -25 85 -75 q 29 71 29 25 q 56 155 29 110 q 140 253 83 200 q 307 356 197 306 q 561 443 417 407 l 561 447 q 369 465 447 451 q 252 502 292 479 q 197 550 213 525 q 181 607 181 575 q 204 696 181 650 q 281 788 228 742 q 410 872 335 835 q 597 933 485 910 q 840 956 708 956 q 1036 914 1017 956 l 1039 856 m 733 1114 l 815 1139 q 858 1147 843 1147 q 874 1144 868 1147 q 883 1134 881 1142 q 888 1122 886 1126 q 890 1104 889 1117 q 890 1088 890 1092 q 892 1047 894 1060 q 881 1031 889 1033 q 842 1031 872 1028 q 724 1025 788 1033 q 592 996 635 1013 q 546 985 564 985 q 526 997 526 985 q 565 1054 526 1028 q 733 1114 593 1072 z "},"":{"ha":975,"x_min":29,"x_max":1039,"o":"m 1039 856 q 1031 780 1042 796 q 963 746 1021 764 q 880 711 924 733 q 807 673 836 689 q 768 656 778 657 q 758 659 764 654 q 753 669 753 664 q 849 768 753 693 q 669 756 756 769 q 524 720 583 742 q 419 673 464 699 q 355 625 375 647 q 338 588 335 603 q 363 558 342 567 q 779 535 435 528 q 872 504 872 535 q 854 456 872 486 q 821 414 836 426 q 689 378 799 394 q 462 319 564 357 q 303 242 360 282 q 216 167 246 201 q 186 113 186 133 q 303 68 186 72 q 631 117 447 60 q 720 153 675 131 q 826 214 765 176 q 910 264 886 251 q 901 135 915 182 q 829 42 886 89 q 767 -2 806 21 q 665 -54 729 -25 q 508 -101 600 -83 q 317 -117 417 -118 q 126 -86 232 -115 q 57 -25 85 -75 q 29 71 29 25 q 56 155 29 110 q 140 253 83 200 q 307 356 197 306 q 561 443 417 407 l 561 447 q 369 465 447 451 q 252 502 292 479 q 197 550 213 525 q 181 607 181 575 q 204 696 181 650 q 281 788 228 742 q 410 872 335 835 q 597 933 485 910 q 840 956 708 956 q 1036 914 1017 956 l 1039 856 m 690 1046 l 568 994 q 521 976 526 976 q 508 996 508 976 q 596 1076 508 1042 l 708 1121 q 822 1153 790 1153 q 901 1096 849 1153 q 913 1085 903 1094 q 930 1069 924 1075 q 942 1053 936 1063 q 949 1036 949 1043 q 919 997 949 1018 q 892 976 897 983 q 832 1026 881 982 q 760 1069 783 1069 q 690 1046 750 1069 z "},"":{"ha":975,"x_min":29,"x_max":1039,"o":"m 1039 856 q 1031 780 1042 796 q 963 746 1021 764 q 880 711 924 733 q 807 673 836 689 q 768 656 778 657 q 758 659 764 654 q 753 669 753 664 q 849 768 753 693 q 669 756 756 769 q 524 720 583 742 q 419 673 464 699 q 355 625 375 647 q 338 588 335 603 q 363 558 342 567 q 779 535 435 528 q 872 504 872 535 q 854 456 872 486 q 821 414 836 426 q 689 378 799 394 q 462 319 564 357 q 303 242 360 282 q 216 167 246 201 q 186 113 186 133 q 303 68 186 72 q 631 117 447 60 q 720 153 675 131 q 826 214 765 176 q 910 264 886 251 q 901 135 915 182 q 829 42 886 89 q 767 -2 806 21 q 665 -54 729 -25 q 508 -101 600 -83 q 317 -117 417 -118 q 126 -86 232 -115 q 57 -25 85 -75 q 29 71 29 25 q 56 155 29 110 q 140 253 83 200 q 307 356 197 306 q 561 443 417 407 l 561 447 q 369 465 447 451 q 252 502 292 479 q 197 550 213 525 q 181 607 181 575 q 204 696 181 650 q 281 788 228 742 q 410 872 335 835 q 597 933 485 910 q 840 956 708 956 q 1036 914 1017 956 l 1039 856 m 646 1025 q 586 1039 615 1025 q 558 1079 557 1053 q 588 1151 560 1110 q 661 1185 615 1192 q 695 1179 683 1182 q 720 1165 707 1176 q 732 1136 733 1154 q 704 1063 728 1100 q 646 1025 681 1025 m 910 1025 q 850 1039 879 1025 q 822 1079 821 1053 q 851 1151 824 1110 q 925 1185 879 1192 q 959 1179 947 1182 q 984 1165 971 1176 q 996 1136 997 1154 q 968 1063 992 1100 q 910 1025 944 1025 z "},"":{"ha":685,"x_min":72,"x_max":781,"o":"m 256 517 l 290 524 q 343 532 336 532 q 356 518 356 532 q 353 506 356 513 q 344 495 350 500 q 335 487 339 490 q 324 478 331 483 q 314 471 317 472 q 297 458 311 469 q 271 439 282 447 q 244 420 260 431 q 217 404 229 410 q 197 399 204 399 q 122 437 174 399 q 72 501 69 475 q 179 713 82 603 q 407 892 276 822 q 643 963 538 963 q 745 919 710 963 q 781 807 781 875 q 714 579 781 725 q 581 326 647 433 q 444 117 515 219 q 420 17 461 75 q 344 -43 379 -40 q 292 -24 319 -46 q 265 22 265 -3 q 289 76 265 44 q 559 507 460 322 q 658 749 658 692 q 649 788 658 769 q 621 806 640 806 q 432 706 557 797 q 256 517 307 614 m 407 1165 l 489 1140 q 657 1081 629 1099 q 696 1024 696 1054 q 676 1011 696 1011 q 631 1022 658 1011 q 499 1051 588 1039 q 381 1057 435 1060 q 334 1062 339 1054 q 332 1114 329 1069 q 333 1131 332 1118 q 335 1148 333 1143 q 339 1160 336 1153 q 348 1171 342 1168 q 364 1174 354 1174 q 407 1165 379 1174 z "},"":{"ha":685,"x_min":72,"x_max":781,"o":"m 256 517 l 290 524 q 343 532 336 532 q 356 518 356 532 q 353 506 356 513 q 344 495 350 500 q 335 487 339 490 q 324 478 331 483 q 314 471 317 472 q 297 458 311 469 q 271 439 282 447 q 244 420 260 431 q 217 404 229 410 q 197 399 204 399 q 122 437 174 399 q 72 501 69 475 q 179 713 82 603 q 407 892 276 822 q 643 963 538 963 q 745 919 710 963 q 781 807 781 875 q 714 579 781 725 q 581 326 647 433 q 444 117 515 219 q 420 17 461 75 q 344 -43 379 -40 q 292 -24 319 -46 q 265 22 265 -3 q 289 76 265 44 q 559 507 460 322 q 658 749 658 692 q 649 788 658 769 q 621 806 640 806 q 432 706 557 797 q 256 517 307 614 m 589 1114 l 671 1139 q 714 1147 699 1147 q 730 1144 724 1147 q 739 1134 736 1142 q 743 1122 742 1126 q 745 1104 744 1117 q 746 1088 746 1092 q 747 1047 750 1060 q 736 1031 744 1033 q 697 1031 728 1028 q 579 1025 643 1033 q 447 996 490 1013 q 401 985 419 985 q 382 997 382 985 q 421 1054 382 1028 q 589 1114 449 1072 z "},"":{"ha":685,"x_min":72,"x_max":804,"o":"m 256 517 l 290 524 q 343 532 336 532 q 356 518 356 532 q 353 506 356 513 q 344 495 350 500 q 335 487 339 490 q 324 478 331 483 q 314 471 317 472 q 297 458 311 469 q 271 439 282 447 q 244 420 260 431 q 217 404 229 410 q 197 399 204 399 q 122 437 174 399 q 72 501 69 475 q 179 713 82 603 q 407 892 276 822 q 643 963 538 963 q 745 919 710 963 q 781 807 781 875 q 714 579 781 725 q 581 326 647 433 q 444 117 515 219 q 420 17 461 75 q 344 -43 379 -40 q 292 -24 319 -46 q 265 22 265 -3 q 289 76 265 44 q 559 507 460 322 q 658 749 658 692 q 649 788 658 769 q 621 806 640 806 q 432 706 557 797 q 256 517 307 614 m 546 1046 l 424 994 q 376 976 382 976 q 364 996 364 976 q 451 1076 364 1042 l 564 1121 q 678 1153 646 1153 q 757 1096 704 1153 q 769 1085 758 1094 q 785 1069 779 1075 q 798 1053 792 1063 q 804 1036 804 1043 q 775 997 804 1018 q 747 976 753 983 q 688 1026 736 982 q 615 1069 639 1069 q 546 1046 606 1069 z "},"":{"ha":685,"x_min":72,"x_max":826,"o":"m 256 517 l 290 524 q 343 532 336 532 q 356 518 356 532 q 353 506 356 513 q 344 495 350 500 q 335 487 339 490 q 324 478 331 483 q 314 471 317 472 q 297 458 311 469 q 271 439 282 447 q 244 420 260 431 q 217 404 229 410 q 197 399 204 399 q 122 437 174 399 q 72 501 69 475 q 179 713 82 603 q 407 892 276 822 q 643 963 538 963 q 745 919 710 963 q 781 807 781 875 q 714 579 781 725 q 581 326 647 433 q 444 117 515 219 q 420 17 461 75 q 344 -43 379 -40 q 292 -24 319 -46 q 265 22 265 -3 q 289 76 265 44 q 559 507 460 322 q 658 749 658 692 q 649 788 658 769 q 621 806 640 806 q 432 706 557 797 q 256 517 307 614 m 476 1025 q 417 1039 446 1025 q 389 1079 388 1053 q 418 1151 390 1110 q 492 1185 446 1192 q 526 1179 514 1182 q 551 1165 538 1176 q 563 1136 564 1154 q 535 1063 558 1100 q 476 1025 511 1025 m 740 1025 q 681 1039 710 1025 q 653 1079 651 1053 q 682 1151 654 1110 q 756 1185 710 1192 q 790 1179 778 1182 q 815 1165 801 1176 q 826 1136 828 1154 q 799 1063 822 1100 q 740 1025 775 1025 z "},"":{"ha":1117,"x_min":75,"x_max":1176,"o":"m 421 404 l 313 261 q 279 185 279 217 q 363 142 279 142 q 682 201 515 142 q 981 374 886 275 q 1075 574 1075 472 q 763 758 1075 733 q 665 764 747 760 q 619 661 649 700 l 483 483 q 515 484 497 483 q 542 485 532 485 q 558 486 551 486 q 669 443 668 486 q 622 408 669 408 q 421 404 481 408 m 367 483 l 588 758 q 289 693 417 742 l 289 690 l 326 690 q 401 675 401 690 q 358 650 401 654 q 249 621 333 646 q 128 596 165 596 q 75 644 75 596 q 94 740 75 658 q 137 820 106 792 q 226 875 168 849 q 456 945 324 918 q 699 972 589 972 q 1031 899 915 972 q 1140 768 1103 851 q 1176 592 1176 685 q 1082 336 1176 453 q 847 140 988 219 q 567 31 733 76 q 274 -15 401 -15 q 154 0 182 -15 q 122 74 122 17 q 256 344 122 185 l 296 393 l 293 396 q 238 390 272 396 q 178 378 204 383 q 149 372 151 372 q 140 385 140 372 q 155 430 140 400 q 193 464 169 460 q 367 483 282 479 z "},"":{"ha":1161,"x_min":67,"x_max":1239,"o":"m 764 265 l 1000 700 l 997 703 q 667 368 781 497 q 406 24 640 338 q 361 -15 378 -15 q 294 17 336 -15 q 251 72 251 50 q 265 103 251 79 q 460 443 331 204 q 589 732 589 682 q 567 761 589 761 q 133 532 481 761 q 92 514 110 514 q 67 575 67 514 q 105 699 67 633 q 192 811 143 764 q 287 890 242 858 q 349 921 332 921 q 364 910 364 921 q 289 821 364 893 l 292 818 q 416 885 372 863 q 542 939 460 908 q 678 969 625 969 q 743 949 717 969 q 767 892 769 928 q 719 726 761 814 q 525 374 676 639 l 528 371 q 947 831 861 772 q 988 858 956 836 q 1041 895 1019 881 q 1088 924 1063 910 q 1125 938 1114 938 q 1194 894 1149 938 q 1239 806 1239 850 q 1192 695 1239 768 q 1063 502 1144 622 q 928 275 982 382 q 885 161 885 189 q 921 104 885 104 q 1055 194 957 104 q 1199 342 1153 285 q 1201 315 1200 329 q 1203 292 1203 300 q 1204 279 1204 285 q 1189 247 1204 267 q 947 -7 1054 72 q 783 -86 839 -86 q 712 -51 735 -86 q 689 35 689 -15 q 764 265 689 126 m 828 1125 l 1008 1107 l 1011 1110 q 963 1158 963 1143 q 968 1172 963 1165 q 981 1178 974 1178 q 1045 1138 1004 1178 q 1086 1061 1086 1097 q 1026 1003 1086 1003 q 941 1013 999 1003 q 854 1022 883 1024 q 865 1013 860 1018 q 874 1005 871 1007 q 879 1000 876 1003 q 883 996 882 997 q 886 992 885 994 q 888 988 888 990 q 888 983 888 986 q 874 969 888 969 q 836 989 864 969 q 823 998 832 992 q 808 1008 814 1004 q 796 1017 803 1011 q 785 1029 789 1024 q 778 1043 781 1035 q 775 1060 775 1051 q 786 1109 775 1093 q 828 1125 797 1125 z "},"":{"ha":888,"x_min":49,"x_max":938,"o":"m 768 764 l 769 763 q 894 750 849 785 q 938 640 935 717 q 848 352 940 504 q 602 96 756 200 q 296 -7 449 -8 q 212 8 251 -7 q 136 53 172 22 q 76 142 100 85 q 49 276 53 199 q 116 503 43 383 q 299 715 189 622 q 536 874 410 807 q 763 954 663 940 q 851 914 806 961 q 897 843 897 867 q 829 794 897 817 q 768 764 807 786 m 406 486 q 363 449 378 449 q 343 488 347 449 q 189 185 189 333 q 207 119 189 144 q 263 94 225 94 q 395 128 318 94 q 519 203 472 163 q 733 435 654 318 q 815 632 813 553 q 802 679 817 658 q 761 700 788 700 q 565 632 674 700 q 406 486 457 564 m 568 1165 l 650 1140 q 818 1081 790 1099 q 857 1024 857 1054 q 838 1011 857 1011 q 792 1022 819 1011 q 660 1051 749 1039 q 542 1057 596 1060 q 495 1062 500 1054 q 493 1114 490 1069 q 494 1131 493 1118 q 496 1148 494 1143 q 500 1160 497 1153 q 509 1171 503 1168 q 525 1174 515 1174 q 568 1165 540 1174 z "},"":{"ha":888,"x_min":49,"x_max":938,"o":"m 768 764 l 769 763 q 894 750 849 785 q 938 640 935 717 q 848 352 940 504 q 602 96 756 200 q 296 -7 449 -8 q 212 8 251 -7 q 136 53 172 22 q 76 142 100 85 q 49 276 53 199 q 116 503 43 383 q 299 715 189 622 q 536 874 410 807 q 763 954 663 940 q 851 914 806 961 q 897 843 897 867 q 829 794 897 817 q 768 764 807 786 m 406 486 q 363 449 378 449 q 343 488 347 449 q 189 185 189 333 q 207 119 189 144 q 263 94 225 94 q 395 128 318 94 q 519 203 472 163 q 733 435 654 318 q 815 632 813 553 q 802 679 817 658 q 761 700 788 700 q 565 632 674 700 q 406 486 457 564 m 774 1114 l 856 1139 q 899 1147 883 1147 q 915 1144 908 1147 q 924 1134 921 1142 q 928 1122 926 1126 q 930 1104 929 1117 q 931 1088 931 1092 q 932 1047 935 1060 q 921 1031 929 1033 q 882 1031 913 1028 q 764 1025 828 1033 q 632 996 675 1013 q 586 985 604 985 q 567 997 567 985 q 606 1054 567 1028 q 774 1114 633 1072 z "},"":{"ha":888,"x_min":49,"x_max":961,"o":"m 768 764 l 769 763 q 894 750 849 785 q 938 640 935 717 q 848 352 940 504 q 602 96 756 200 q 296 -7 449 -8 q 212 8 251 -7 q 136 53 172 22 q 76 142 100 85 q 49 276 53 199 q 116 503 43 383 q 299 715 189 622 q 536 874 410 807 q 763 954 663 940 q 851 914 806 961 q 897 843 897 867 q 829 794 897 817 q 768 764 807 786 m 406 486 q 363 449 378 449 q 343 488 347 449 q 189 185 189 333 q 207 119 189 144 q 263 94 225 94 q 395 128 318 94 q 519 203 472 163 q 733 435 654 318 q 815 632 813 553 q 802 679 817 658 q 761 700 788 700 q 565 632 674 700 q 406 486 457 564 m 703 1046 l 581 994 q 533 976 539 976 q 521 996 521 976 q 608 1076 521 1042 l 721 1121 q 835 1153 803 1153 q 914 1096 861 1153 q 926 1085 915 1094 q 942 1069 936 1075 q 955 1053 949 1063 q 961 1036 961 1043 q 932 997 961 1018 q 904 976 910 983 q 844 1026 893 982 q 772 1069 796 1069 q 703 1046 761 1069 z "},"":{"ha":888,"x_min":49,"x_max":938,"o":"m 768 764 l 769 763 q 894 750 849 785 q 938 640 935 717 q 848 352 940 504 q 602 96 756 200 q 296 -7 449 -8 q 212 8 251 -7 q 136 53 172 22 q 76 142 100 85 q 49 276 53 199 q 116 503 43 383 q 299 715 189 622 q 536 874 410 807 q 763 954 663 940 q 851 914 806 961 q 897 843 897 867 q 829 794 897 817 q 768 764 807 786 m 406 486 q 363 449 378 449 q 343 488 347 449 q 189 185 189 333 q 207 119 189 144 q 263 94 225 94 q 395 128 318 94 q 519 203 472 163 q 733 435 654 318 q 815 632 813 553 q 802 679 817 658 q 761 700 788 700 q 565 632 674 700 q 406 486 457 564 m 604 1139 l 785 1121 l 788 1124 q 739 1172 739 1157 q 744 1185 739 1179 q 757 1192 750 1192 q 822 1151 781 1192 q 863 1075 863 1111 q 803 1017 863 1017 q 717 1027 775 1017 q 631 1036 660 1038 q 642 1026 636 1032 q 650 1019 647 1021 q 656 1014 653 1017 q 660 1010 658 1011 q 663 1006 661 1008 q 664 1002 664 1004 q 664 997 664 1000 q 650 983 664 983 q 613 1003 640 983 q 599 1012 608 1006 q 585 1022 590 1018 q 572 1031 579 1025 q 561 1043 565 1038 q 554 1057 557 1049 q 551 1074 551 1065 q 563 1123 551 1107 q 604 1139 574 1139 z "},"":{"ha":888,"x_min":49,"x_max":988,"o":"m 768 764 l 769 763 q 894 750 849 785 q 938 640 935 717 q 848 352 940 504 q 602 96 756 200 q 296 -7 449 -8 q 212 8 251 -7 q 136 53 172 22 q 76 142 100 85 q 49 276 53 199 q 116 503 43 383 q 299 715 189 622 q 536 874 410 807 q 763 954 663 940 q 851 914 806 961 q 897 843 897 867 q 829 794 897 817 q 768 764 807 786 m 406 486 q 363 449 378 449 q 343 488 347 449 q 189 185 189 333 q 207 119 189 144 q 263 94 225 94 q 395 128 318 94 q 519 203 472 163 q 733 435 654 318 q 815 632 813 553 q 802 679 817 658 q 761 700 788 700 q 565 632 674 700 q 406 486 457 564 m 638 1025 q 578 1039 607 1025 q 550 1079 549 1053 q 579 1151 551 1110 q 653 1185 607 1192 q 687 1179 675 1182 q 712 1165 699 1176 q 724 1136 725 1154 q 696 1063 719 1100 q 638 1025 672 1025 m 901 1025 q 842 1039 871 1025 q 814 1079 813 1053 q 843 1151 815 1110 q 917 1185 871 1192 q 951 1179 939 1182 q 976 1165 963 1176 q 988 1136 989 1154 q 960 1063 983 1100 q 901 1025 936 1025 z "},"":{"ha":890,"x_min":193,"x_max":819,"o":"m 819 81 l 757 21 l 504 289 l 253 22 l 193 81 l 449 349 l 194 617 l 256 675 l 508 410 l 760 676 l 819 619 l 563 350 l 819 81 z "},"":{"ha":888,"x_min":-29,"x_max":1150,"o":"m 28 15 l 99 97 q 49 276 56 174 q 90 458 43 363 q 215 634 136 553 q 390 785 294 715 q 585 899 486 854 q 764 954 683 943 q 853 914 807 961 q 899 843 899 867 q 831 794 899 817 q 769 764 808 786 l 771 763 q 896 750 850 785 q 946 785 906 756 q 1022 838 986 815 q 1078 860 1058 860 q 1094 856 1086 860 q 1110 845 1101 853 q 1124 833 1119 838 q 1139 818 1129 829 q 1150 806 1149 807 l 932 678 q 938 614 938 663 q 872 394 936 514 q 724 192 807 274 q 533 55 639 110 q 324 -6 426 0 q 176 28 242 -10 q 152 5 172 24 q 124 -22 132 -14 q 103 -45 115 -31 q 86 -74 92 -60 q 79 -89 85 -76 q 71 -106 74 -101 q 63 -117 68 -110 q 49 -128 57 -125 q 32 -131 42 -131 q -11 -112 7 -131 q -29 -69 -29 -94 q 28 15 -29 -35 m 189 178 l 796 686 q 784 696 790 693 q 771 699 778 699 q 763 700 764 700 q 565 631 674 699 q 406 486 457 564 q 363 449 378 449 q 351 455 354 449 q 345 473 347 461 q 342 488 343 485 q 189 178 186 328 m 804 589 l 239 97 q 290 96 243 96 q 423 142 332 96 q 554 233 514 189 q 757 467 651 318 q 807 586 782 518 l 804 589 z "},"":{"ha":1214,"x_min":67,"x_max":1290,"o":"m 810 288 l 924 481 l 921 483 q 332 -6 404 -19 q 201 138 201 17 q 218 207 201 168 q 271 294 235 246 q 322 363 307 343 q 376 426 338 382 q 473 538 425 483 q 548 622 521 592 q 597 676 575 651 q 626 713 618 700 q 635 731 635 725 q 621 744 635 744 q 581 729 619 744 q 244 572 456 676 q 103 528 156 528 q 73 534 82 528 q 67 557 64 540 q 102 657 75 604 q 176 763 129 710 q 295 856 222 815 q 454 910 368 896 q 592 940 476 913 q 753 967 707 967 q 828 913 810 967 q 831 803 847 858 q 810 756 824 779 q 788 720 797 733 q 755 678 778 707 q 721 635 732 649 q 529 410 657 567 q 401 222 401 253 q 429 197 401 197 q 599 308 467 197 q 799 485 732 418 q 919 603 857 542 q 1015 699 981 664 q 1088 772 1050 735 q 1144 826 1125 808 q 1183 860 1164 844 q 1214 882 1203 876 q 1233 888 1225 888 q 1276 858 1261 888 q 1290 799 1290 828 q 1272 744 1296 782 q 1142 557 1247 706 q 1026 396 1072 460 q 901 150 901 221 q 917 110 901 126 q 954 94 932 94 q 1003 107 975 94 q 1069 146 1032 119 q 1128 189 1107 172 q 1191 240 1150 206 q 1233 274 1232 274 q 1240 228 1240 235 q 1168 145 1240 207 q 999 28 1096 83 q 847 -28 903 -28 q 768 3 799 -28 q 738 82 738 33 q 810 288 738 167 m 781 1165 l 863 1140 q 1031 1081 1003 1099 q 1069 1024 1069 1054 q 1050 1011 1069 1011 q 1004 1022 1032 1011 q 872 1051 961 1039 q 754 1057 808 1060 q 708 1062 713 1054 q 706 1114 703 1069 q 706 1131 706 1118 q 708 1148 707 1143 q 713 1160 710 1153 q 722 1171 715 1168 q 738 1174 728 1174 q 781 1165 753 1174 z "},"":{"ha":1214,"x_min":67,"x_max":1290,"o":"m 810 288 l 924 481 l 921 483 q 332 -6 404 -19 q 201 138 201 17 q 218 207 201 168 q 271 294 235 246 q 322 363 307 343 q 376 426 338 382 q 473 538 425 483 q 548 622 521 592 q 597 676 575 651 q 626 713 618 700 q 635 731 635 725 q 621 744 635 744 q 581 729 619 744 q 244 572 456 676 q 103 528 156 528 q 73 534 82 528 q 67 557 64 540 q 102 657 75 604 q 176 763 129 710 q 295 856 222 815 q 454 910 368 896 q 592 940 476 913 q 753 967 707 967 q 828 913 810 967 q 831 803 847 858 q 810 756 824 779 q 788 720 797 733 q 755 678 778 707 q 721 635 732 649 q 529 410 657 567 q 401 222 401 253 q 429 197 401 197 q 599 308 467 197 q 799 485 732 418 q 919 603 857 542 q 1015 699 981 664 q 1088 772 1050 735 q 1144 826 1125 808 q 1183 860 1164 844 q 1214 882 1203 876 q 1233 888 1225 888 q 1276 858 1261 888 q 1290 799 1290 828 q 1272 744 1296 782 q 1142 557 1247 706 q 1026 396 1072 460 q 901 150 901 221 q 917 110 901 126 q 954 94 932 94 q 1003 107 975 94 q 1069 146 1032 119 q 1128 189 1107 172 q 1191 240 1150 206 q 1233 274 1232 274 q 1240 228 1240 235 q 1168 145 1240 207 q 999 28 1096 83 q 847 -28 903 -28 q 768 3 799 -28 q 738 82 738 33 q 810 288 738 167 m 1006 1114 l 1088 1139 q 1131 1147 1115 1147 q 1147 1144 1140 1147 q 1156 1134 1153 1142 q 1160 1122 1158 1126 q 1162 1104 1161 1117 q 1163 1088 1163 1092 q 1164 1047 1167 1060 q 1153 1031 1161 1033 q 1114 1031 1144 1028 q 996 1025 1060 1033 q 864 996 907 1013 q 818 985 836 985 q 799 997 799 985 q 838 1054 799 1028 q 1006 1114 865 1072 z "},"":{"ha":1214,"x_min":67,"x_max":1290,"o":"m 810 288 l 924 481 l 921 483 q 332 -6 404 -19 q 201 138 201 17 q 218 207 201 168 q 271 294 235 246 q 322 363 307 343 q 376 426 338 382 q 473 538 425 483 q 548 622 521 592 q 597 676 575 651 q 626 713 618 700 q 635 731 635 725 q 621 744 635 744 q 581 729 619 744 q 244 572 456 676 q 103 528 156 528 q 73 534 82 528 q 67 557 64 540 q 102 657 75 604 q 176 763 129 710 q 295 856 222 815 q 454 910 368 896 q 592 940 476 913 q 753 967 707 967 q 828 913 810 967 q 831 803 847 858 q 810 756 824 779 q 788 720 797 733 q 755 678 778 707 q 721 635 732 649 q 529 410 657 567 q 401 222 401 253 q 429 197 401 197 q 599 308 467 197 q 799 485 732 418 q 919 603 857 542 q 1015 699 981 664 q 1088 772 1050 735 q 1144 826 1125 808 q 1183 860 1164 844 q 1214 882 1203 876 q 1233 888 1225 888 q 1276 858 1261 888 q 1290 799 1290 828 q 1272 744 1296 782 q 1142 557 1247 706 q 1026 396 1072 460 q 901 150 901 221 q 917 110 901 126 q 954 94 932 94 q 1003 107 975 94 q 1069 146 1032 119 q 1128 189 1107 172 q 1191 240 1150 206 q 1233 274 1232 274 q 1240 228 1240 235 q 1168 145 1240 207 q 999 28 1096 83 q 847 -28 903 -28 q 768 3 799 -28 q 738 82 738 33 q 810 288 738 167 m 893 1046 l 771 994 q 724 976 729 976 q 711 996 711 976 q 799 1076 711 1042 l 911 1121 q 1025 1153 993 1153 q 1104 1096 1051 1153 q 1116 1085 1106 1094 q 1133 1069 1126 1075 q 1145 1053 1139 1063 q 1151 1036 1151 1043 q 1122 997 1151 1018 q 1094 976 1100 983 q 1035 1026 1083 982 q 963 1069 986 1069 q 893 1046 953 1069 z "},"":{"ha":1214,"x_min":67,"x_max":1290,"o":"m 810 288 l 924 481 l 921 483 q 332 -6 404 -19 q 201 138 201 17 q 218 207 201 168 q 271 294 235 246 q 322 363 307 343 q 376 426 338 382 q 473 538 425 483 q 548 622 521 592 q 597 676 575 651 q 626 713 618 700 q 635 731 635 725 q 621 744 635 744 q 581 729 619 744 q 244 572 456 676 q 103 528 156 528 q 73 534 82 528 q 67 557 64 540 q 102 657 75 604 q 176 763 129 710 q 295 856 222 815 q 454 910 368 896 q 592 940 476 913 q 753 967 707 967 q 828 913 810 967 q 831 803 847 858 q 810 756 824 779 q 788 720 797 733 q 755 678 778 707 q 721 635 732 649 q 529 410 657 567 q 401 222 401 253 q 429 197 401 197 q 599 308 467 197 q 799 485 732 418 q 919 603 857 542 q 1015 699 981 664 q 1088 772 1050 735 q 1144 826 1125 808 q 1183 860 1164 844 q 1214 882 1203 876 q 1233 888 1225 888 q 1276 858 1261 888 q 1290 799 1290 828 q 1272 744 1296 782 q 1142 557 1247 706 q 1026 396 1072 460 q 901 150 901 221 q 917 110 901 126 q 954 94 932 94 q 1003 107 975 94 q 1069 146 1032 119 q 1128 189 1107 172 q 1191 240 1150 206 q 1233 274 1232 274 q 1240 228 1240 235 q 1168 145 1240 207 q 999 28 1096 83 q 847 -28 903 -28 q 768 3 799 -28 q 738 82 738 33 q 810 288 738 167 m 893 1025 q 833 1039 863 1025 q 806 1079 804 1053 q 835 1151 807 1110 q 908 1185 863 1192 q 942 1179 931 1182 q 967 1165 954 1176 q 979 1136 981 1154 q 951 1063 975 1100 q 893 1025 928 1025 m 1157 1025 q 1097 1039 1126 1025 q 1069 1079 1068 1053 q 1099 1151 1071 1110 q 1172 1185 1126 1192 q 1206 1179 1194 1182 q 1231 1165 1218 1176 q 1243 1136 1244 1154 q 1215 1063 1239 1100 q 1157 1025 1192 1025 z "},"":{"ha":1031,"x_min":67,"x_max":1100,"o":"m 831 461 l 463 143 q 274 26 328 26 q 205 56 238 26 q 178 119 172 86 q 179 132 178 121 q 182 149 181 143 q 190 172 183 154 q 207 206 197 190 q 235 252 217 222 q 278 315 254 282 q 340 397 303 349 q 425 500 378 444 q 596 717 576 681 q 608 750 608 738 q 604 760 610 757 q 590 765 599 764 q 299 613 463 701 q 135 524 136 525 q 90 507 111 507 q 67 519 71 507 q 75 575 63 533 l 96 650 q 125 706 107 686 q 182 751 143 726 q 458 891 293 819 q 713 963 624 963 q 781 944 753 963 q 810 886 810 925 q 804 857 810 874 q 787 819 799 840 q 766 783 775 799 q 738 742 757 767 q 711 706 718 717 q 683 671 704 696 l 664 646 q 581 540 622 592 q 515 458 539 488 q 467 398 490 428 q 431 353 443 368 q 410 323 419 338 q 397 299 400 308 q 393 281 393 290 q 401 265 392 271 q 428 262 410 258 q 467 283 446 265 q 575 370 525 332 q 689 465 625 408 q 956 707 753 522 q 1033 763 1017 763 q 1078 733 1057 763 q 1099 679 1099 704 q 1092 653 1099 668 q 1063 609 1085 639 q 1017 545 1042 579 q 941 442 992 511 q 838 297 890 372 q 672 47 690 88 q 674 13 657 14 q 692 18 682 13 q 747 51 701 24 q 860 113 792 78 q 909 135 886 126 q 947 146 932 143 q 973 147 963 149 q 988 142 983 146 q 993 131 993 138 q 960 85 993 115 q 908 44 928 56 q 582 -242 678 -129 q 545 -283 558 -269 q 505 -316 532 -297 q 456 -335 478 -335 q 411 -315 428 -335 q 394 -267 394 -296 q 553 65 394 -176 q 833 458 711 307 l 831 461 m 942 1114 l 1024 1139 q 1067 1147 1051 1147 q 1083 1144 1076 1147 q 1092 1134 1089 1142 q 1096 1122 1094 1126 q 1098 1104 1097 1117 q 1099 1088 1099 1092 q 1100 1047 1103 1060 q 1089 1031 1097 1033 q 1050 1031 1081 1028 q 932 1025 996 1033 q 800 996 843 1013 q 754 985 772 985 q 735 997 735 985 q 774 1054 735 1028 q 942 1114 801 1072 z "},"":{"ha":850,"x_min":51,"x_max":1033,"o":"m 306 406 l 497 650 q 283 625 385 644 q 127 590 182 606 q 68 574 72 574 q 51 593 51 574 q 101 683 51 608 q 163 769 150 758 q 328 806 183 786 q 529 825 472 825 q 635 822 593 825 l 703 918 q 793 981 747 981 q 810 974 803 981 q 818 957 818 967 q 788 890 818 931 l 728 811 q 938 721 842 796 q 1033 542 1033 646 q 988 420 1033 483 q 863 301 943 357 q 656 210 783 246 q 379 174 528 174 q 258 182 325 174 l 199 82 q 224 58 224 82 q 181 -18 224 31 q 103 -67 139 -67 q 75 -52 86 -67 q 64 -17 64 -37 q 113 111 64 26 l 165 201 q 106 229 128 208 q 83 274 83 250 q 151 365 83 325 q 306 406 218 406 m 608 647 l 364 333 q 481 322 400 322 q 696 363 589 322 q 863 453 803 404 q 922 531 922 501 q 840 615 922 590 q 608 647 758 639 z "},"":{"ha":772,"x_min":-31,"x_max":794,"o":"m 404 433 l 286 426 l 113 -1 q 104 -22 111 -4 q 93 -49 97 -40 q 80 -74 89 -58 q 63 -99 71 -90 q 44 -115 56 -108 q 21 -122 33 -122 q -31 -56 -31 -122 q -16 15 -31 -32 q 26 126 -1 63 q 76 238 54 190 q 128 350 97 285 q 163 424 158 415 q 118 463 118 429 q 214 517 118 503 q 351 714 301 661 q 388 750 369 733 q 525 845 449 804 q 667 886 601 886 q 760 855 725 886 q 794 765 794 824 q 747 673 794 718 q 647 603 699 628 q 517 547 596 579 q 419 506 438 514 l 422 503 q 607 489 543 508 q 691 431 661 471 q 721 335 721 390 q 649 160 721 244 q 479 28 578 76 q 293 -19 381 -19 q 220 -3 244 -19 q 196 58 196 13 q 243 151 196 124 q 283 165 253 157 q 326 172 314 172 q 340 158 340 172 q 331 139 340 144 l 333 136 q 564 324 564 178 q 515 410 564 383 q 404 433 467 438 m 343 542 l 546 619 q 654 728 654 661 q 637 769 654 753 q 593 785 619 785 q 515 755 557 785 q 440 689 472 725 q 343 542 396 640 z "},"":{"ha":676,"x_min":-43,"x_max":686,"o":"m 429 385 q 233 313 311 349 q 119 244 154 278 q 71 185 83 211 q 58 131 58 160 q 62 119 60 124 q 70 108 64 114 q 86 103 76 101 q 182 151 128 111 q 432 382 269 218 l 429 385 m 354 197 l 226 94 q 79 1 108 1 q 3 58 49 1 q -43 165 -42 114 q 51 331 -46 246 q 269 467 147 417 q 474 521 390 518 q 540 497 515 522 q 564 454 564 472 q 515 419 564 436 q 556 363 556 403 q 495 267 556 343 q 435 156 435 190 q 478 122 435 122 q 526 135 499 122 q 575 161 554 147 q 628 200 596 175 q 675 233 661 225 l 686 182 q 526 44 633 122 q 372 -35 419 -35 q 322 -14 339 -35 q 306 39 306 7 q 357 194 306 88 l 354 197 m 233 718 l 315 693 q 483 633 456 651 q 522 576 522 607 q 503 564 522 564 q 457 575 485 564 q 325 604 414 592 q 207 610 261 613 q 160 615 165 607 q 158 667 156 622 q 159 683 158 671 q 161 701 160 696 q 165 713 163 706 q 174 724 168 721 q 190 726 181 726 q 233 718 206 726 z "},"":{"ha":676,"x_min":-43,"x_max":686,"o":"m 429 385 q 233 313 311 349 q 119 244 154 278 q 71 185 83 211 q 58 131 58 160 q 62 119 60 124 q 70 108 64 114 q 86 103 76 101 q 182 151 128 111 q 432 382 269 218 l 429 385 m 354 197 l 226 94 q 79 1 108 1 q 3 58 49 1 q -43 165 -42 114 q 51 331 -46 246 q 269 467 147 417 q 474 521 390 518 q 540 497 515 522 q 564 454 564 472 q 515 419 564 436 q 556 363 556 403 q 495 267 556 343 q 435 156 435 190 q 478 122 435 122 q 526 135 499 122 q 575 161 554 147 q 628 200 596 175 q 675 233 661 225 l 686 182 q 526 44 633 122 q 372 -35 419 -35 q 322 -14 339 -35 q 306 39 306 7 q 357 194 306 88 l 354 197 m 460 694 l 542 719 q 585 728 569 728 q 601 725 594 728 q 610 715 607 722 q 614 702 613 707 q 616 685 615 697 q 617 668 617 672 q 618 627 621 640 q 607 611 615 614 q 568 611 599 608 q 450 606 514 614 q 318 576 361 593 q 272 565 290 565 q 253 578 253 565 q 292 635 253 608 q 460 694 319 653 z "},"":{"ha":676,"x_min":-43,"x_max":686,"o":"m 429 385 q 233 313 311 349 q 119 244 154 278 q 71 185 83 211 q 58 131 58 160 q 62 119 60 124 q 70 108 64 114 q 86 103 76 101 q 182 151 128 111 q 432 382 269 218 l 429 385 m 354 197 l 226 94 q 79 1 108 1 q 3 58 49 1 q -43 165 -42 114 q 51 331 -46 246 q 269 467 147 417 q 474 521 390 518 q 540 497 515 522 q 564 454 564 472 q 515 419 564 436 q 556 363 556 403 q 495 267 556 343 q 435 156 435 190 q 478 122 435 122 q 526 135 499 122 q 575 161 554 147 q 628 200 596 175 q 675 233 661 225 l 686 182 q 526 44 633 122 q 372 -35 419 -35 q 322 -14 339 -35 q 306 39 306 7 q 357 194 306 88 l 354 197 m 347 626 l 225 575 q 178 557 183 557 q 165 576 165 557 q 253 657 165 622 l 365 701 q 479 733 447 733 q 558 676 506 733 q 570 665 560 675 q 587 649 581 656 q 599 633 593 643 q 606 617 606 624 q 576 578 606 599 q 549 557 554 564 q 489 606 538 563 q 417 650 440 650 q 347 626 406 650 z "},"":{"ha":676,"x_min":-43,"x_max":686,"o":"m 429 385 q 233 313 311 349 q 119 244 154 278 q 71 185 83 211 q 58 131 58 160 q 62 119 60 124 q 70 108 64 114 q 86 103 76 101 q 182 151 128 111 q 432 382 269 218 l 429 385 m 354 197 l 226 94 q 79 1 108 1 q 3 58 49 1 q -43 165 -42 114 q 51 331 -46 246 q 269 467 147 417 q 474 521 390 518 q 540 497 515 522 q 564 454 564 472 q 515 419 564 436 q 556 363 556 403 q 495 267 556 343 q 435 156 435 190 q 478 122 435 122 q 526 135 499 122 q 575 161 554 147 q 628 200 596 175 q 675 233 661 225 l 686 182 q 526 44 633 122 q 372 -35 419 -35 q 322 -14 339 -35 q 306 39 306 7 q 357 194 306 88 l 354 197 m 313 692 l 493 674 l 496 676 q 447 725 447 710 q 453 738 447 732 q 465 744 458 744 q 530 704 489 744 q 571 628 571 664 q 511 569 571 569 q 426 580 483 569 q 339 589 368 590 q 350 579 344 585 q 358 572 356 574 q 364 567 361 569 q 368 563 367 564 q 371 559 369 561 q 372 555 372 557 q 372 550 372 553 q 358 536 372 536 q 321 556 349 536 q 308 565 317 558 q 293 574 299 571 q 281 584 288 578 q 269 596 274 590 q 263 610 265 601 q 260 626 260 618 q 271 676 260 660 q 313 692 282 692 z "},"":{"ha":676,"x_min":-43,"x_max":686,"o":"m 429 385 q 233 313 311 349 q 119 244 154 278 q 71 185 83 211 q 58 131 58 160 q 62 119 60 124 q 70 108 64 114 q 86 103 76 101 q 182 151 128 111 q 432 382 269 218 l 429 385 m 354 197 l 226 94 q 79 1 108 1 q 3 58 49 1 q -43 165 -42 114 q 51 331 -46 246 q 269 467 147 417 q 474 521 390 518 q 540 497 515 522 q 564 454 564 472 q 515 419 564 436 q 556 363 556 403 q 495 267 556 343 q 435 156 435 190 q 478 122 435 122 q 526 135 499 122 q 575 161 554 147 q 628 200 596 175 q 675 233 661 225 l 686 182 q 526 44 633 122 q 372 -35 419 -35 q 322 -14 339 -35 q 306 39 306 7 q 357 194 306 88 l 354 197 m 303 619 q 243 633 272 619 q 215 674 214 647 q 244 745 217 704 q 318 779 272 786 q 352 774 340 776 q 377 760 364 771 q 389 731 390 749 q 361 657 385 694 q 303 619 338 619 m 567 619 q 507 633 536 619 q 479 674 478 647 q 508 745 481 704 q 582 779 536 786 q 616 774 604 776 q 641 760 628 771 q 653 731 654 749 q 625 657 649 694 q 567 619 601 619 z "},"":{"ha":676,"x_min":-43,"x_max":686,"o":"m 429 385 q 233 313 311 349 q 119 244 154 278 q 71 185 83 211 q 58 131 58 160 q 62 119 60 124 q 70 108 64 114 q 86 103 76 101 q 182 151 128 111 q 432 382 269 218 l 429 385 m 354 197 l 226 94 q 79 1 108 1 q 3 58 49 1 q -43 165 -42 114 q 51 331 -46 246 q 269 467 147 417 q 474 521 390 518 q 540 497 515 522 q 564 454 564 472 q 515 419 564 436 q 556 363 556 403 q 495 267 556 343 q 435 156 435 190 q 478 122 435 122 q 526 135 499 122 q 575 161 554 147 q 628 200 596 175 q 675 233 661 225 l 686 182 q 526 44 633 122 q 372 -35 419 -35 q 322 -14 339 -35 q 306 39 306 7 q 357 194 306 88 l 354 197 m 594 786 l 644 758 q 658 715 658 744 q 628 608 658 654 q 539 561 597 561 q 467 591 499 561 q 435 661 435 621 q 481 758 435 710 q 553 806 528 806 q 594 786 560 806 m 568 736 q 504 621 504 689 q 508 614 504 619 q 511 607 511 608 q 565 668 557 647 q 572 701 572 683 q 568 736 572 719 z "},"":{"ha":872,"x_min":-31,"x_max":892,"o":"m 163 143 l 219 182 q 442 386 336 263 l 439 389 q 186 289 276 344 q 127 249 147 265 q 89 203 107 233 q 71 138 71 174 q 100 113 71 113 q 163 143 121 113 m 515 269 q 658 352 597 297 q 717 431 718 407 q 713 443 717 439 q 703 446 710 447 q 596 384 649 432 q 515 269 543 336 m 90 3 q 15 58 61 3 q -31 161 -31 113 q 29 304 -31 239 q 171 415 89 369 q 333 490 239 453 q 483 526 428 526 q 568 478 532 526 q 742 526 657 526 q 839 460 839 526 q 764 329 839 397 q 507 201 689 261 l 504 171 q 590 100 504 100 q 628 105 608 100 q 666 116 649 110 q 707 136 683 122 q 744 158 731 150 q 782 184 757 165 q 816 210 807 203 q 851 237 825 217 q 879 260 876 257 l 892 207 q 712 47 814 117 q 517 -22 610 -22 q 445 -1 486 -22 q 389 44 404 19 q 369 94 375 67 q 363 147 363 122 q 364 200 364 171 q 287 139 351 192 q 165 44 222 86 q 90 3 108 3 z "},"":{"ha":499,"x_min":-4,"x_max":526,"o":"m 269 349 l 153 261 q 97 179 97 221 q 125 128 97 151 q 203 104 153 104 q 316 135 251 104 q 413 191 381 167 q 510 264 446 215 l 526 210 q 222 -6 365 36 l 186 -76 q 276 -90 236 -72 q 317 -154 317 -108 q 273 -229 317 -206 q 174 -249 229 -253 q 74 -229 133 -247 q 15 -183 15 -211 q 28 -168 15 -168 q 68 -183 36 -168 q 124 -199 100 -199 q 172 -185 150 -199 q 194 -149 194 -172 q 115 -103 194 -103 l 160 -17 q 154 -18 158 -18 q 37 42 78 -18 q -4 185 -4 101 q 24 312 -4 267 q 128 413 53 357 q 267 495 185 456 q 401 535 349 535 q 464 471 464 535 q 406 353 464 418 q 317 288 349 288 q 283 306 294 288 q 269 349 271 325 z "},"":{"ha":496,"x_min":-11,"x_max":515,"o":"m 503 260 l 515 207 q 335 47 438 117 q 140 -22 233 -22 q 31 31 69 -22 q -11 160 -8 85 q 106 411 -15 294 q 365 526 228 528 q 465 460 465 526 q 389 330 465 399 q 131 201 313 261 l 128 171 q 151 117 125 135 q 214 100 176 100 q 252 105 232 100 q 290 116 272 110 q 331 136 307 122 q 367 158 354 150 q 406 184 381 165 q 440 210 431 203 q 474 237 449 217 q 503 260 500 257 m 139 269 q 283 353 221 297 q 343 431 344 408 q 326 446 343 450 q 219 384 272 432 q 139 269 167 336 m 143 718 l 225 693 q 393 633 365 651 q 432 576 432 607 q 413 564 432 564 q 367 575 394 564 q 235 604 324 592 q 117 610 171 613 q 70 615 75 607 q 68 667 65 622 q 69 683 68 671 q 71 701 69 696 q 75 713 72 706 q 84 724 78 721 q 100 726 90 726 q 143 718 115 726 z "},"":{"ha":496,"x_min":-11,"x_max":528,"o":"m 503 260 l 515 207 q 335 47 438 117 q 140 -22 233 -22 q 31 31 69 -22 q -11 160 -8 85 q 106 411 -15 294 q 365 526 228 528 q 465 460 465 526 q 389 330 465 399 q 131 201 313 261 l 128 171 q 151 117 125 135 q 214 100 176 100 q 252 105 232 100 q 290 116 272 110 q 331 136 307 122 q 367 158 354 150 q 406 184 381 165 q 440 210 431 203 q 474 237 449 217 q 503 260 500 257 m 139 269 q 283 353 221 297 q 343 431 344 408 q 326 446 343 450 q 219 384 272 432 q 139 269 167 336 m 369 694 l 451 719 q 494 728 479 728 q 510 725 504 728 q 519 715 517 722 q 524 702 522 707 q 526 685 525 697 q 526 668 526 672 q 528 627 531 640 q 517 611 525 614 q 478 611 508 608 q 360 606 424 614 q 228 576 271 593 q 182 565 200 565 q 163 578 163 565 q 201 635 163 608 q 369 694 229 653 z "},"":{"ha":496,"x_min":-11,"x_max":515,"o":"m 503 260 l 515 207 q 335 47 438 117 q 140 -22 233 -22 q 31 31 69 -22 q -11 160 -8 85 q 106 411 -15 294 q 365 526 228 528 q 465 460 465 526 q 389 330 465 399 q 131 201 313 261 l 128 171 q 151 117 125 135 q 214 100 176 100 q 252 105 232 100 q 290 116 272 110 q 331 136 307 122 q 367 158 354 150 q 406 184 381 165 q 440 210 431 203 q 474 237 449 217 q 503 260 500 257 m 139 269 q 283 353 221 297 q 343 431 344 408 q 326 446 343 450 q 219 384 272 432 q 139 269 167 336 m 257 626 l 135 575 q 88 557 93 557 q 75 576 75 557 q 163 657 75 622 l 275 701 q 389 733 357 733 q 468 676 415 733 q 480 665 469 675 q 497 649 490 656 q 509 633 503 643 q 515 617 515 624 q 486 578 515 599 q 458 557 464 564 q 399 606 447 563 q 326 650 350 650 q 257 626 317 650 z "},"":{"ha":496,"x_min":-11,"x_max":563,"o":"m 503 260 l 515 207 q 335 47 438 117 q 140 -22 233 -22 q 31 31 69 -22 q -11 160 -8 85 q 106 411 -15 294 q 365 526 228 528 q 465 460 465 526 q 389 330 465 399 q 131 201 313 261 l 128 171 q 151 117 125 135 q 214 100 176 100 q 252 105 232 100 q 290 116 272 110 q 331 136 307 122 q 367 158 354 150 q 406 184 381 165 q 440 210 431 203 q 474 237 449 217 q 503 260 500 257 m 139 269 q 283 353 221 297 q 343 431 344 408 q 326 446 343 450 q 219 384 272 432 q 139 269 167 336 m 213 619 q 153 633 182 619 q 125 674 124 647 q 154 745 126 704 q 228 779 182 786 q 262 774 250 776 q 287 760 274 771 q 299 731 300 749 q 271 657 294 694 q 213 619 247 619 m 476 619 q 417 633 446 619 q 389 674 388 647 q 418 745 390 704 q 492 779 446 786 q 526 774 514 776 q 551 760 538 771 q 563 731 564 749 q 535 657 558 694 q 476 619 511 619 z "},"":{"ha":386,"x_min":-18,"x_max":392,"o":"m 379 233 l 392 181 q 250 41 328 103 q 101 -21 172 -21 q 13 31 44 -21 q -18 144 -18 83 q 29 304 -18 224 q 136 432 76 385 q 239 479 196 479 q 300 440 300 479 q 232 321 300 394 q 104 207 164 247 q 178 119 88 119 q 234 133 204 119 q 284 160 264 146 q 336 199 304 174 q 379 233 368 225 m 88 718 l 169 693 q 338 633 310 651 q 376 576 376 607 q 357 564 376 564 q 311 575 339 564 q 179 604 268 592 q 61 610 115 613 q 15 615 19 607 q 13 667 10 622 q 13 683 13 671 q 15 701 14 696 q 19 713 17 706 q 28 724 22 721 q 44 726 35 726 q 88 718 60 726 z "},"":{"ha":386,"x_min":-18,"x_max":472,"o":"m 379 233 l 392 181 q 250 41 328 103 q 101 -21 172 -21 q 13 31 44 -21 q -18 144 -18 83 q 29 304 -18 224 q 136 432 76 385 q 239 479 196 479 q 300 440 300 479 q 232 321 300 394 q 104 207 164 247 q 178 119 88 119 q 234 133 204 119 q 284 160 264 146 q 336 199 304 174 q 379 233 368 225 m 314 694 l 396 719 q 439 728 424 728 q 455 725 449 728 q 464 715 461 722 q 468 702 467 707 q 470 685 469 697 q 471 668 471 672 q 472 627 475 640 q 461 611 469 614 q 422 611 453 608 q 304 606 368 614 q 172 576 215 593 q 126 565 144 565 q 107 578 107 565 q 146 635 107 608 q 314 694 174 653 z "},"":{"ha":386,"x_min":-18,"x_max":460,"o":"m 379 233 l 392 181 q 250 41 328 103 q 101 -21 172 -21 q 13 31 44 -21 q -18 144 -18 83 q 29 304 -18 224 q 136 432 76 385 q 239 479 196 479 q 300 440 300 479 q 232 321 300 394 q 104 207 164 247 q 178 119 88 119 q 234 133 204 119 q 284 160 264 146 q 336 199 304 174 q 379 233 368 225 m 201 626 l 79 575 q 32 557 38 557 q 19 576 19 557 q 107 657 19 622 l 219 701 q 333 733 301 733 q 413 676 360 733 q 424 665 414 675 q 441 649 435 656 q 453 633 447 643 q 460 617 460 624 q 431 578 460 599 q 403 557 408 564 q 343 606 392 563 q 271 650 294 650 q 201 626 261 650 z "},"":{"ha":386,"x_min":-18,"x_max":507,"o":"m 379 233 l 392 181 q 250 41 328 103 q 101 -21 172 -21 q 13 31 44 -21 q -18 144 -18 83 q 29 304 -18 224 q 136 432 76 385 q 239 479 196 479 q 300 440 300 479 q 232 321 300 394 q 104 207 164 247 q 178 119 88 119 q 234 133 204 119 q 284 160 264 146 q 336 199 304 174 q 379 233 368 225 m 157 619 q 97 633 126 619 q 69 674 68 647 q 99 745 71 704 q 172 779 126 786 q 206 774 194 776 q 231 760 218 771 q 243 731 244 749 q 215 657 239 694 q 157 619 192 619 m 421 619 q 361 633 390 619 q 333 674 332 647 q 363 745 335 704 q 436 779 390 786 q 470 774 458 776 q 495 760 482 771 q 507 731 508 749 q 479 657 503 694 q 421 619 456 619 z "},"":{"ha":696,"x_min":-15,"x_max":681,"o":"m 553 267 l 567 208 q 468 122 519 149 q 342 96 417 96 q 128 -8 240 -8 q 28 46 71 -8 q -15 190 -15 100 q 110 425 -15 326 q 240 498 164 469 q 369 526 315 526 q 415 501 401 526 l 418 501 q 435 622 435 558 q 429 692 435 658 l 317 651 q 279 640 288 640 q 261 660 272 640 q 250 688 250 679 q 268 707 250 700 l 408 758 q 367 816 392 790 q 328 854 343 842 q 314 869 314 867 q 328 897 314 881 q 357 914 343 914 q 426 874 376 914 q 503 793 476 835 l 604 829 q 656 844 644 844 q 672 824 664 844 q 681 793 681 803 q 651 772 681 783 l 531 729 q 554 569 554 650 q 410 193 554 392 q 432 192 418 192 q 480 207 454 192 q 515 231 506 222 q 553 267 524 239 m 86 146 q 147 93 86 93 q 251 149 190 93 q 385 403 326 232 q 177 315 268 390 q 86 146 86 240 z "},"":{"ha":639,"x_min":-19,"x_max":661,"o":"m 567 206 l 650 275 l 661 214 q 579 133 660 213 q 444 15 499 53 q 343 -22 389 -22 q 285 4 306 -22 q 265 69 265 31 q 272 117 265 93 q 296 174 278 142 q 322 219 314 206 q 357 269 329 232 q 385 308 385 307 l 382 311 q 168 99 267 225 q 58 4 93 4 q 0 47 18 4 q -19 139 -18 90 q 29 298 -22 207 q 144 443 81 389 q 199 460 164 460 q 255 451 236 458 q 274 441 274 444 q 275 429 275 438 q 188 308 275 400 q 100 201 100 215 q 115 186 100 186 q 143 206 128 186 q 367 410 219 303 q 550 518 514 518 q 572 492 561 518 q 593 417 588 453 q 551 351 593 396 q 465 255 508 307 q 422 161 422 203 q 430 144 422 151 q 447 136 438 136 q 567 206 483 136 m 293 692 l 474 674 l 476 676 q 428 725 428 710 q 433 738 428 732 q 446 744 439 744 q 510 704 469 744 q 551 628 551 664 q 492 569 551 569 q 406 580 464 569 q 319 589 349 590 q 331 579 325 585 q 339 572 336 574 q 344 567 342 569 q 349 563 347 564 q 351 559 350 561 q 353 555 353 557 q 353 550 353 553 q 339 536 353 536 q 301 556 329 536 q 288 565 297 558 q 274 574 279 571 q 261 584 268 578 q 250 596 254 590 q 243 610 246 601 q 240 626 240 618 q 251 676 240 660 q 293 692 263 692 z "},"":{"ha":550,"x_min":-17,"x_max":567,"o":"m 553 267 l 567 208 q 468 122 519 149 q 342 96 417 96 q 128 -8 240 -8 q 29 45 71 -8 q -17 190 -12 99 q 110 424 -21 324 q 369 526 228 519 q 422 515 397 528 q 446 476 446 501 q 414 439 446 457 q 453 411 443 431 q 464 357 464 392 q 463 332 464 344 q 458 306 461 319 q 451 285 454 293 q 442 260 449 276 q 432 239 435 244 q 420 215 429 233 q 410 193 411 197 q 452 196 431 189 q 487 213 474 203 q 522 241 500 222 q 553 267 543 260 m 297 375 q 143 274 171 301 q 103 214 119 250 q 86 146 86 178 q 147 93 86 93 q 189 102 168 93 q 222 120 210 111 q 254 149 233 129 q 238 213 238 186 q 254 285 238 244 q 285 349 271 325 q 297 375 299 374 m 169 718 l 251 693 q 419 633 392 651 q 458 576 458 607 q 439 564 458 564 q 393 575 421 564 q 261 604 350 592 q 143 610 197 613 q 97 615 101 607 q 94 667 92 622 q 95 683 94 671 q 97 701 96 696 q 101 713 99 706 q 110 724 104 721 q 126 726 117 726 q 169 718 142 726 z "},"":{"ha":550,"x_min":-17,"x_max":567,"o":"m 553 267 l 567 208 q 468 122 519 149 q 342 96 417 96 q 128 -8 240 -8 q 29 45 71 -8 q -17 190 -12 99 q 110 424 -21 324 q 369 526 228 519 q 422 515 397 528 q 446 476 446 501 q 414 439 446 457 q 453 411 443 431 q 464 357 464 392 q 463 332 464 344 q 458 306 461 319 q 451 285 454 293 q 442 260 449 276 q 432 239 435 244 q 420 215 429 233 q 410 193 411 197 q 452 196 431 189 q 487 213 474 203 q 522 241 500 222 q 553 267 543 260 m 297 375 q 143 274 171 301 q 103 214 119 250 q 86 146 86 178 q 147 93 86 93 q 189 102 168 93 q 222 120 210 111 q 254 149 233 129 q 238 213 238 186 q 254 285 238 244 q 285 349 271 325 q 297 375 299 374 m 396 694 l 478 719 q 521 728 506 728 q 537 725 531 728 q 546 715 543 722 q 550 702 549 707 q 552 685 551 697 q 553 668 553 672 q 554 627 557 640 q 543 611 551 614 q 504 611 535 608 q 386 606 450 614 q 254 576 297 593 q 208 565 226 565 q 189 578 189 565 q 228 635 189 608 q 396 694 256 653 z "},"":{"ha":550,"x_min":-17,"x_max":567,"o":"m 553 267 l 567 208 q 468 122 519 149 q 342 96 417 96 q 128 -8 240 -8 q 29 45 71 -8 q -17 190 -12 99 q 110 424 -21 324 q 369 526 228 519 q 422 515 397 528 q 446 476 446 501 q 414 439 446 457 q 453 411 443 431 q 464 357 464 392 q 463 332 464 344 q 458 306 461 319 q 451 285 454 293 q 442 260 449 276 q 432 239 435 244 q 420 215 429 233 q 410 193 411 197 q 452 196 431 189 q 487 213 474 203 q 522 241 500 222 q 553 267 543 260 m 297 375 q 143 274 171 301 q 103 214 119 250 q 86 146 86 178 q 147 93 86 93 q 189 102 168 93 q 222 120 210 111 q 254 149 233 129 q 238 213 238 186 q 254 285 238 244 q 285 349 271 325 q 297 375 299 374 m 283 626 l 161 575 q 114 557 119 557 q 101 576 101 557 q 189 657 101 622 l 301 701 q 415 733 383 733 q 494 676 442 733 q 506 665 496 675 q 523 649 517 656 q 535 633 529 643 q 542 617 542 624 q 513 578 542 599 q 485 557 490 564 q 425 606 474 563 q 353 650 376 650 q 283 626 342 650 z "},"":{"ha":550,"x_min":-17,"x_max":567,"o":"m 553 267 l 567 208 q 468 122 519 149 q 342 96 417 96 q 128 -8 240 -8 q 29 45 71 -8 q -17 190 -12 99 q 110 424 -21 324 q 369 526 228 519 q 422 515 397 528 q 446 476 446 501 q 414 439 446 457 q 453 411 443 431 q 464 357 464 392 q 463 332 464 344 q 458 306 461 319 q 451 285 454 293 q 442 260 449 276 q 432 239 435 244 q 420 215 429 233 q 410 193 411 197 q 452 196 431 189 q 487 213 474 203 q 522 241 500 222 q 553 267 543 260 m 297 375 q 143 274 171 301 q 103 214 119 250 q 86 146 86 178 q 147 93 86 93 q 189 102 168 93 q 222 120 210 111 q 254 149 233 129 q 238 213 238 186 q 254 285 238 244 q 285 349 271 325 q 297 375 299 374 m 249 692 l 429 674 l 432 676 q 383 725 383 710 q 389 738 383 732 q 401 744 394 744 q 466 704 425 744 q 507 628 507 664 q 447 569 507 569 q 362 580 419 569 q 275 589 304 590 q 286 579 281 585 q 294 572 292 574 q 300 567 297 569 q 304 563 303 564 q 307 559 306 561 q 308 555 308 557 q 308 550 308 553 q 294 536 308 536 q 257 556 285 536 q 244 565 253 558 q 229 574 235 571 q 217 584 224 578 q 206 596 210 590 q 199 610 201 601 q 196 626 196 618 q 207 676 196 660 q 249 692 218 692 z "},"":{"ha":550,"x_min":-17,"x_max":589,"o":"m 553 267 l 567 208 q 468 122 519 149 q 342 96 417 96 q 128 -8 240 -8 q 29 45 71 -8 q -17 190 -12 99 q 110 424 -21 324 q 369 526 228 519 q 422 515 397 528 q 446 476 446 501 q 414 439 446 457 q 453 411 443 431 q 464 357 464 392 q 463 332 464 344 q 458 306 461 319 q 451 285 454 293 q 442 260 449 276 q 432 239 435 244 q 420 215 429 233 q 410 193 411 197 q 452 196 431 189 q 487 213 474 203 q 522 241 500 222 q 553 267 543 260 m 297 375 q 143 274 171 301 q 103 214 119 250 q 86 146 86 178 q 147 93 86 93 q 189 102 168 93 q 222 120 210 111 q 254 149 233 129 q 238 213 238 186 q 254 285 238 244 q 285 349 271 325 q 297 375 299 374 m 239 619 q 179 633 208 619 q 151 674 150 647 q 181 745 153 704 q 254 779 208 786 q 288 774 276 776 q 313 760 300 771 q 325 731 326 749 q 297 657 321 694 q 239 619 274 619 m 503 619 q 443 633 472 619 q 415 674 414 647 q 444 745 417 704 q 518 779 472 786 q 552 774 540 776 q 577 760 564 771 q 589 731 590 749 q 561 657 585 694 q 503 619 538 619 z "},"":{"ha":888,"x_min":188,"x_max":821,"o":"m 507 524 l 506 524 q 461 544 481 524 q 442 593 442 564 q 462 642 442 621 q 507 663 482 663 q 553 642 533 663 q 574 593 574 621 q 554 544 574 564 q 507 524 535 524 m 821 319 l 188 319 l 188 403 l 821 403 l 821 319 m 507 199 l 508 199 q 551 178 532 199 q 571 129 571 157 q 551 79 571 101 q 507 57 531 57 q 458 78 478 57 q 439 129 439 100 q 458 178 439 158 q 507 199 478 199 z "},"":{"ha":550,"x_min":-17,"x_max":567,"o":"m 386 525 l 428 575 q 456 607 444 601 q 506 600 468 613 l 556 594 l 418 438 q 464 357 464 424 q 463 332 464 344 q 458 306 461 319 q 451 285 454 293 q 442 260 449 276 q 432 239 435 244 q 420 215 429 233 q 410 193 411 197 q 452 196 431 189 q 487 213 474 203 q 522 241 500 222 q 553 267 543 260 l 567 208 q 468 122 519 149 q 342 96 417 96 q 131 -8 242 -7 l 92 -89 q 56 -139 88 -132 q 44 6 -19 -111 l 53 21 q -17 190 -11 72 q 110 424 -21 324 q 369 526 228 519 q 386 525 381 526 m 297 375 q 143 274 171 301 q 103 214 119 250 q 86 146 86 178 q 147 93 86 93 q 189 102 168 93 q 222 120 210 111 q 254 149 233 129 q 238 213 238 186 q 254 285 238 244 q 285 349 271 325 q 297 375 299 374 z "},"":{"ha":664,"x_min":-22,"x_max":683,"o":"m 257 246 l 394 369 q 422 395 396 371 q 469 438 449 419 q 516 478 489 456 q 564 515 543 501 q 594 528 585 528 q 626 451 621 528 q 569 367 629 419 q 475 260 524 325 q 426 154 426 196 q 461 124 426 124 q 675 254 513 124 l 683 194 q 643 155 678 189 q 590 104 608 121 q 536 56 572 88 q 474 9 500 25 q 418 -20 449 -7 q 363 -33 388 -33 q 303 -6 325 -33 q 281 58 281 21 q 310 175 281 99 l 307 178 q 247 117 296 168 q 158 35 199 65 q 83 6 118 6 q 7 49 36 6 q -22 143 -22 93 q 38 332 -22 238 q 171 475 97 426 q 232 490 194 490 q 249 491 235 490 q 272 492 263 492 q 294 490 282 492 q 313 480 307 488 q 317 461 318 472 q 296 423 315 446 q 261 388 276 400 q 156 288 203 321 q 99 235 118 261 q 79 168 79 208 q 90 147 79 147 q 161 176 111 147 q 257 246 211 204 m 226 718 l 308 693 q 476 633 449 651 q 515 576 515 607 q 496 564 515 564 q 450 575 478 564 q 318 604 407 592 q 200 610 254 613 q 153 615 158 607 q 151 667 149 622 q 152 683 151 671 q 154 701 153 696 q 158 713 156 706 q 167 724 161 721 q 183 726 174 726 q 226 718 199 726 z "},"":{"ha":664,"x_min":-22,"x_max":683,"o":"m 257 246 l 394 369 q 422 395 396 371 q 469 438 449 419 q 516 478 489 456 q 564 515 543 501 q 594 528 585 528 q 626 451 621 528 q 569 367 629 419 q 475 260 524 325 q 426 154 426 196 q 461 124 426 124 q 675 254 513 124 l 683 194 q 643 155 678 189 q 590 104 608 121 q 536 56 572 88 q 474 9 500 25 q 418 -20 449 -7 q 363 -33 388 -33 q 303 -6 325 -33 q 281 58 281 21 q 310 175 281 99 l 307 178 q 247 117 296 168 q 158 35 199 65 q 83 6 118 6 q 7 49 36 6 q -22 143 -22 93 q 38 332 -22 238 q 171 475 97 426 q 232 490 194 490 q 249 491 235 490 q 272 492 263 492 q 294 490 282 492 q 313 480 307 488 q 317 461 318 472 q 296 423 315 446 q 261 388 276 400 q 156 288 203 321 q 99 235 118 261 q 79 168 79 208 q 90 147 79 147 q 161 176 111 147 q 257 246 211 204 m 453 694 l 535 719 q 578 728 563 728 q 594 725 588 728 q 603 715 600 722 q 607 702 606 707 q 609 685 608 697 q 610 668 610 672 q 611 627 614 640 q 600 611 608 614 q 561 611 592 608 q 443 606 507 614 q 311 576 354 593 q 265 565 283 565 q 246 578 246 565 q 285 635 246 608 q 453 694 313 653 z "},"":{"ha":664,"x_min":-22,"x_max":683,"o":"m 257 246 l 394 369 q 422 395 396 371 q 469 438 449 419 q 516 478 489 456 q 564 515 543 501 q 594 528 585 528 q 626 451 621 528 q 569 367 629 419 q 475 260 524 325 q 426 154 426 196 q 461 124 426 124 q 675 254 513 124 l 683 194 q 643 155 678 189 q 590 104 608 121 q 536 56 572 88 q 474 9 500 25 q 418 -20 449 -7 q 363 -33 388 -33 q 303 -6 325 -33 q 281 58 281 21 q 310 175 281 99 l 307 178 q 247 117 296 168 q 158 35 199 65 q 83 6 118 6 q 7 49 36 6 q -22 143 -22 93 q 38 332 -22 238 q 171 475 97 426 q 232 490 194 490 q 249 491 235 490 q 272 492 263 492 q 294 490 282 492 q 313 480 307 488 q 317 461 318 472 q 296 423 315 446 q 261 388 276 400 q 156 288 203 321 q 99 235 118 261 q 79 168 79 208 q 90 147 79 147 q 161 176 111 147 q 257 246 211 204 m 340 626 l 218 575 q 171 557 176 557 q 158 576 158 557 q 246 657 158 622 l 358 701 q 472 733 440 733 q 551 676 499 733 q 563 665 553 675 q 580 649 574 656 q 592 633 586 643 q 599 617 599 624 q 569 578 599 599 q 542 557 547 564 q 482 606 531 563 q 410 650 433 650 q 340 626 400 650 z "},"":{"ha":664,"x_min":-22,"x_max":683,"o":"m 257 246 l 394 369 q 422 395 396 371 q 469 438 449 419 q 516 478 489 456 q 564 515 543 501 q 594 528 585 528 q 626 451 621 528 q 569 367 629 419 q 475 260 524 325 q 426 154 426 196 q 461 124 426 124 q 675 254 513 124 l 683 194 q 643 155 678 189 q 590 104 608 121 q 536 56 572 88 q 474 9 500 25 q 418 -20 449 -7 q 363 -33 388 -33 q 303 -6 325 -33 q 281 58 281 21 q 310 175 281 99 l 307 178 q 247 117 296 168 q 158 35 199 65 q 83 6 118 6 q 7 49 36 6 q -22 143 -22 93 q 38 332 -22 238 q 171 475 97 426 q 232 490 194 490 q 249 491 235 490 q 272 492 263 492 q 294 490 282 492 q 313 480 307 488 q 317 461 318 472 q 296 423 315 446 q 261 388 276 400 q 156 288 203 321 q 99 235 118 261 q 79 168 79 208 q 90 147 79 147 q 161 176 111 147 q 257 246 211 204 m 296 619 q 236 633 265 619 q 208 674 207 647 q 238 745 210 704 q 311 779 265 786 q 345 774 333 776 q 370 760 357 771 q 382 731 383 749 q 354 657 378 694 q 296 619 331 619 m 560 619 q 500 633 529 619 q 472 674 471 647 q 501 745 474 704 q 575 779 529 786 q 609 774 597 776 q 634 760 621 771 q 646 731 647 749 q 618 657 642 694 q 560 619 594 619 z "},"":{"ha":614,"x_min":-10,"x_max":646,"o":"m 646 229 l 228 -231 q 213 -247 225 -233 q 193 -272 201 -261 q 173 -291 185 -282 q 153 -300 161 -300 q 122 -267 133 -300 q 111 -208 111 -233 q 149 -125 111 -186 l 335 189 l 332 192 q 100 22 128 19 q 29 70 65 25 q -10 186 -7 115 q 49 346 -12 261 q 174 480 110 431 q 261 531 238 529 q 299 506 276 531 q 321 467 321 482 q 247 354 321 432 q 118 233 172 276 q 92 153 94 199 q 290 275 168 161 q 369 349 326 308 q 437 413 411 389 q 487 460 463 438 q 526 494 511 483 q 549 507 542 506 q 575 483 564 510 q 586 438 586 457 q 529 315 586 400 l 324 10 l 326 7 l 635 281 l 646 229 m 428 694 l 510 719 q 553 728 538 728 q 569 725 563 728 q 578 715 575 722 q 582 702 581 707 q 584 685 583 697 q 585 668 585 672 q 586 627 589 640 q 575 611 583 614 q 536 611 567 608 q 418 606 482 614 q 286 576 329 593 q 240 565 258 565 q 221 578 221 565 q 260 635 221 608 q 428 694 288 653 z "},"":{"ha":678,"x_min":-140,"x_max":689,"o":"m 304 143 l 403 260 q 438 328 438 304 q 422 347 438 347 q 315 292 396 347 q 188 157 256 249 q 304 143 250 161 m -53 142 l -58 207 l 217 503 q 513 838 281 571 q 593 881 549 881 q 635 870 611 881 q 660 843 660 860 q 592 758 660 838 l 392 529 q 272 361 300 422 l 275 358 q 550 493 463 493 q 593 474 578 493 q 608 428 608 456 q 383 118 608 317 q 405 117 392 118 q 424 117 418 117 q 533 145 485 117 q 679 260 581 174 l 689 196 q 503 50 594 104 q 311 -4 413 -4 q 213 24 268 -4 q 149 15 171 15 q 93 24 129 15 l -37 -232 q -100 -290 -68 -290 q -140 -228 -140 -290 q -54 -8 -142 -133 q 169 349 22 100 l 167 351 l -53 142 z "},"":{"ha":614,"x_min":-10,"x_max":646,"o":"m 646 229 l 228 -231 q 213 -247 225 -233 q 193 -272 201 -261 q 173 -291 185 -282 q 153 -300 161 -300 q 122 -267 133 -300 q 111 -208 111 -233 q 149 -125 111 -186 l 335 189 l 332 192 q 100 22 128 19 q 29 70 65 25 q -10 186 -7 115 q 49 346 -12 261 q 174 480 110 431 q 261 531 238 529 q 299 506 276 531 q 321 467 321 482 q 247 354 321 432 q 118 233 172 276 q 92 153 94 199 q 290 275 168 161 q 369 349 326 308 q 437 413 411 389 q 487 460 463 438 q 526 494 511 483 q 549 507 542 506 q 575 483 564 510 q 586 438 586 457 q 529 315 586 400 l 324 10 l 326 7 l 635 281 l 646 229 m 271 619 q 211 633 240 619 q 183 674 182 647 q 213 745 185 704 q 286 779 240 786 q 320 774 308 776 q 345 760 332 771 q 357 731 358 749 q 329 657 353 694 q 271 619 306 619 m 535 619 q 475 633 504 619 q 447 674 446 647 q 476 745 449 704 q 550 779 504 786 q 584 774 572 776 q 609 760 596 771 q 621 731 622 749 q 593 657 617 694 q 535 619 569 619 z "},"":{"ha":386,"x_min":-18,"x_max":392,"o":"m 379 233 l 392 181 q 250 41 328 103 q 101 -21 172 -21 q 13 31 44 -21 q -18 144 -18 83 q 29 304 -18 224 q 136 432 76 385 q 239 479 196 479 q 300 440 300 479 q 232 321 300 394 q 104 207 164 247 q 178 119 88 119 q 234 133 204 119 q 284 160 264 146 q 336 199 304 174 q 379 233 368 225 z "},"":{"ha":972,"x_min":-78,"x_max":1032,"o":"m 106 40 l 75 26 q 42 14 65 24 q 1 -1 19 4 q -35 -7 -18 -7 q -78 22 -78 -7 q -72 46 -78 32 q -53 77 -65 60 q -32 108 -42 94 q -8 139 -22 121 q 8 160 6 157 q 51 199 33 194 q 144 213 83 206 q 231 225 206 221 l 304 310 l 301 313 q 190 271 261 304 q 227 351 208 331 q 303 383 246 372 l 376 397 l 635 706 q 803 874 693 775 q 963 972 914 972 q 1014 944 996 972 q 1032 882 1032 917 q 1012 802 1032 851 q 970 715 992 753 q 915 622 949 676 q 874 551 882 567 q 899 532 899 549 q 821 451 899 507 q 803 438 818 449 q 776 418 788 426 q 748 400 764 410 q 719 385 732 390 q 700 379 707 379 q 668 421 668 379 q 854 751 668 542 q 861 776 871 771 q 857 778 860 778 q 625 546 826 778 l 510 413 q 583 410 547 417 q 626 379 619 404 q 601 342 633 353 q 571 339 592 339 q 543 338 550 339 l 458 332 l 436 329 l 347 228 q 906 110 685 163 l 832 36 q 794 -2 803 7 q 760 -24 786 -11 q 724 -37 735 -37 q 669 -34 713 -37 q 592 -23 626 -31 q 476 1 557 -15 q 106 40 271 46 z "},"":{"ha":417,"x_min":-51,"x_max":494,"o":"m 64 476 l 86 490 q 144 581 122 554 q 443 861 381 861 q 465 844 458 861 q 471 810 472 828 q 435 656 464 721 q 494 647 479 665 q 472 599 514 624 q 433 579 461 592 q 397 564 404 567 l 381 556 q 124 264 304 438 q 114 168 103 224 q 183 108 138 108 q 422 247 268 108 l 442 206 q 372 135 394 157 q 298 69 349 113 q 202 6 247 26 q 115 -14 157 -14 q -8 167 -8 -14 q 32 371 -8 268 l 29 374 l -51 308 q -27 401 -46 372 q 64 476 -8 431 m 153 394 l 156 392 q 286 546 226 458 q 365 696 346 633 q 153 394 268 649 z "},"":{"ha":1611,"x_min":65,"x_max":1692,"o":"m 1689 949 l 1692 890 q 1684 815 1694 831 q 1615 781 1674 799 q 1533 744 1578 768 q 1459 706 1488 721 q 1421 690 1431 690 q 1406 704 1406 690 q 1428 737 1406 714 q 1474 781 1450 760 q 1499 803 1499 801 l 1499 800 l 1501 800 l 1501 803 q 1322 790 1408 804 q 1176 755 1236 776 q 1072 708 1117 733 q 1008 660 1028 682 q 990 622 988 638 q 1014 593 994 601 q 1432 569 1085 563 q 1525 539 1525 569 q 1507 491 1525 521 q 1474 449 1489 461 q 1342 413 1451 429 q 1115 354 1217 392 q 956 276 1013 317 q 869 202 899 236 q 839 147 839 168 q 956 103 839 107 q 1283 151 1100 94 q 1373 188 1328 165 q 1478 249 1418 211 q 1563 299 1539 286 q 1553 170 1568 217 q 1482 76 1539 124 q 1246 -44 1388 -3 q 969 -82 1104 -85 q 779 -51 885 -81 q 709 10 738 -40 q 682 106 681 60 q 707 186 682 131 l 704 189 q 514 63 618 110 q 313 17 410 15 q 145 86 217 19 q 65 300 74 153 q 133 526 60 407 q 316 738 206 646 q 553 897 426 831 q 779 978 679 964 q 868 938 822 985 q 914 867 914 890 q 846 818 914 840 q 812 803 833 814 q 783 789 790 792 l 786 786 l 839 792 q 896 781 863 792 q 1160 944 982 888 q 1493 988 1282 985 q 1689 949 1668 993 m 422 510 q 379 472 394 472 q 360 511 364 472 q 206 208 206 357 q 224 143 206 168 q 279 118 242 118 q 412 152 335 118 q 536 226 489 186 q 751 459 671 342 q 833 656 831 576 q 819 702 835 682 q 778 722 804 722 q 582 655 690 722 q 422 510 474 588 m 818 311 l 814 308 l 817 306 q 883 352 847 331 q 943 386 918 374 q 1013 415 968 399 q 1074 437 1057 431 q 1147 458 1092 443 q 1214 478 1201 474 l 1214 481 l 1111 489 q 929 528 990 500 q 901 447 922 490 q 865 379 881 403 q 818 311 850 356 z "},"":{"ha":786,"x_min":-15,"x_max":806,"o":"m 429 269 q 572 352 511 297 q 631 431 632 407 q 627 443 631 439 q 617 446 624 447 q 510 384 563 432 q 429 269 457 336 m 793 260 l 806 207 q 626 47 728 117 q 431 -22 524 -22 q 349 0 379 -22 q 293 69 318 22 q 278 51 286 61 q 269 39 271 42 q 261 31 267 36 q 251 24 256 26 q 236 14 247 21 q 122 -26 169 -26 q 40 19 74 -26 q -4 115 7 64 q -15 213 -15 165 q 106 422 -15 336 q 231 486 158 460 q 361 513 303 513 q 415 499 397 513 q 446 453 433 486 q 656 526 544 526 q 753 460 753 526 q 677 329 753 397 q 418 201 601 261 l 415 171 q 441 117 415 135 q 504 100 467 100 q 542 105 522 100 q 580 116 563 110 q 621 136 597 122 q 658 158 644 150 q 696 184 671 165 q 730 210 721 203 q 765 237 739 217 q 793 260 790 257 m 326 379 q 244 347 279 363 q 169 303 210 331 q 108 239 129 276 q 86 156 86 201 q 100 96 86 129 q 136 63 114 63 q 226 100 165 63 q 275 158 246 110 q 335 340 275 260 q 326 379 336 361 z "},"":{"ha":989,"x_min":8,"x_max":1056,"o":"m 342 594 q 342 583 342 586 q 360 571 343 581 q 413 551 376 561 q 524 521 450 540 q 711 475 599 501 q 864 403 811 451 q 917 300 917 354 q 864 160 917 221 q 735 67 811 100 q 558 13 658 33 q 381 -15 458 -8 q 232 -21 303 -21 q 8 60 8 -21 q 34 123 8 81 q 79 183 60 165 q 137 208 92 193 q 199 224 182 224 q 210 214 210 224 q 186 188 210 201 q 163 167 178 182 l 163 164 q 418 170 303 158 q 600 201 533 182 q 713 244 667 221 q 777 285 760 268 q 794 311 794 303 q 782 334 794 322 q 744 356 769 346 q 692 376 719 367 q 627 394 665 385 q 559 410 589 403 q 489 424 529 417 q 427 435 449 431 q 376 444 406 439 q 343 449 346 449 q 291 460 313 453 q 247 479 269 467 q 213 514 225 492 q 201 565 201 536 q 215 662 201 601 q 246 750 229 722 q 461 883 285 814 q 844 953 638 953 q 1019 933 929 953 q 1049 919 1042 928 q 1056 888 1056 910 q 1031 785 1056 815 q 939 729 1006 756 q 876 702 896 713 q 814 661 856 692 q 779 647 789 647 q 757 668 757 647 q 766 683 757 671 q 800 718 775 694 q 858 765 825 742 l 856 768 q 665 748 754 764 q 519 710 576 732 q 421 665 463 689 q 360 624 379 642 q 342 594 342 606 m 744 1088 l 867 1139 q 914 1157 908 1157 q 926 1138 926 1157 q 839 1057 926 1092 l 726 1013 q 613 981 644 981 q 533 1038 586 981 q 522 1049 532 1039 q 505 1065 511 1058 q 492 1081 499 1071 q 486 1097 486 1090 q 515 1136 486 1115 q 543 1157 538 1150 q 603 1108 554 1151 q 675 1064 651 1064 q 744 1088 686 1064 z "},"":{"ha":499,"x_min":-125,"x_max":578,"o":"m 211 397 l 11 210 q 57 194 35 208 q 90 166 79 179 q 119 128 101 153 q 206 197 185 168 q 229 283 226 225 q 211 397 221 344 m 400 175 l 483 239 l 497 186 q 319 40 414 103 q 150 -19 225 -24 q 11 25 75 -17 q -71 139 -53 67 q -101 121 -89 121 q -118 129 -111 121 q -125 147 -125 138 q -92 196 -125 163 l 210 472 q 233 536 213 510 q 289 563 254 563 q 330 552 319 563 q 343 511 340 542 q 357 439 344 493 q 369 350 369 385 q 189 97 369 207 q 270 101 231 90 q 333 127 310 113 q 400 175 356 142 m 396 682 l 518 733 q 565 751 560 751 q 578 732 578 751 q 490 651 578 686 l 378 607 q 264 575 296 575 q 185 632 238 575 q 173 643 183 633 q 156 659 163 653 q 144 675 150 665 q 138 692 138 685 q 167 731 138 710 q 194 751 189 744 q 254 702 206 746 q 326 658 303 658 q 396 682 336 658 z "},"":{"ha":1031,"x_min":67,"x_max":1135,"o":"m 831 461 l 463 143 q 274 26 328 26 q 205 56 238 26 q 178 119 172 86 q 179 132 178 121 q 182 149 181 143 q 190 172 183 154 q 207 206 197 190 q 235 252 217 222 q 278 315 254 282 q 340 397 303 349 q 425 500 378 444 q 596 717 576 681 q 608 750 608 738 q 604 760 610 757 q 590 765 599 764 q 299 613 463 701 q 135 524 136 525 q 90 507 111 507 q 67 519 71 507 q 75 575 63 533 l 96 650 q 125 706 107 686 q 182 751 143 726 q 458 891 293 819 q 713 963 624 963 q 781 944 753 963 q 810 886 810 925 q 804 857 810 874 q 787 819 799 840 q 766 783 775 799 q 738 742 757 767 q 711 706 718 717 q 683 671 704 696 l 664 646 q 581 540 622 592 q 515 458 539 488 q 467 398 490 428 q 431 353 443 368 q 410 323 419 338 q 397 299 400 308 q 393 281 393 290 q 401 265 392 271 q 428 262 410 258 q 467 283 446 265 q 575 370 525 332 q 689 465 625 408 q 956 707 753 522 q 1033 763 1017 763 q 1078 733 1057 763 q 1099 679 1099 704 q 1092 653 1099 668 q 1063 609 1085 639 q 1017 545 1042 579 q 941 442 992 511 q 838 297 890 372 q 672 47 690 88 q 674 13 657 14 q 692 18 682 13 q 747 51 701 24 q 860 113 792 78 q 909 135 886 126 q 947 146 932 143 q 973 147 963 149 q 988 142 983 146 q 993 131 993 138 q 960 85 993 115 q 908 44 928 56 q 582 -242 678 -129 q 545 -283 558 -269 q 505 -316 532 -297 q 456 -335 478 -335 q 411 -315 428 -335 q 394 -267 394 -296 q 553 65 394 -176 q 833 458 711 307 l 831 461 m 785 1025 q 725 1039 754 1025 q 697 1079 696 1053 q 726 1151 699 1110 q 800 1185 754 1192 q 834 1179 822 1182 q 859 1165 846 1176 q 871 1136 872 1154 q 843 1063 867 1100 q 785 1025 819 1025 m 1049 1025 q 989 1039 1018 1025 q 961 1079 960 1053 q 990 1151 963 1110 q 1064 1185 1018 1192 q 1098 1179 1086 1182 q 1123 1165 1110 1176 q 1135 1136 1136 1154 q 1107 1063 1131 1100 q 1049 1025 1083 1025 z "},"":{"ha":894,"x_min":75,"x_max":971,"o":"m 469 296 l 325 232 q 253 199 283 214 q 216 178 224 183 q 201 171 208 174 q 185 168 194 168 q 163 188 163 168 q 199 300 163 207 q 235 358 214 343 q 349 425 268 385 q 508 501 429 465 q 594 542 588 538 q 775 648 736 619 q 814 710 814 676 q 797 737 814 726 q 764 747 781 747 q 518 685 663 747 q 83 456 374 622 q 127 681 89 604 q 285 826 165 757 q 512 917 375 878 q 750 956 649 956 q 971 789 971 956 q 953 705 971 744 q 911 638 936 665 q 847 584 886 611 q 774 540 807 557 q 696 499 742 522 q 625 461 650 475 q 750 411 708 446 q 803 299 792 376 q 875 316 850 314 q 902 314 900 318 q 904 303 904 310 l 904 301 q 888 275 904 286 q 803 239 871 264 q 575 -115 768 56 q 379 -244 508 -175 q 192 -314 250 -314 q 120 -284 165 -314 q 75 -228 75 -254 q 236 -14 75 -154 q 676 251 397 126 q 672 281 676 267 q 652 307 667 294 q 616 325 638 319 q 556 324 594 331 q 469 296 518 317 m 657 167 q 440 33 544 111 q 283 -101 336 -44 q 229 -178 229 -158 q 246 -192 229 -192 q 469 -65 317 -192 q 657 167 621 61 m 708 1088 l 831 1139 q 878 1157 872 1157 q 890 1138 890 1157 q 803 1057 890 1092 l 690 1013 q 576 981 608 981 q 497 1038 550 981 q 485 1049 496 1039 q 469 1065 475 1058 q 456 1081 463 1071 q 450 1097 450 1090 q 479 1136 450 1115 q 507 1157 501 1150 q 567 1108 518 1151 q 639 1064 615 1064 q 708 1088 650 1064 z "},"":{"ha":511,"x_min":-96,"x_max":585,"o":"m 529 231 l 307 38 q 253 -112 296 -40 q 158 -230 211 -183 q 54 -304 106 -276 q -33 -336 3 -332 q -78 -319 -60 -339 q -96 -269 -96 -299 q -74 -198 -96 -235 q -31 -140 -53 -161 q 29 -89 -8 -118 l 210 56 q 183 110 200 96 q 121 136 167 124 q 108 139 119 136 q 93 143 97 142 q 81 149 89 144 q 72 158 74 153 q 71 171 69 164 q 100 213 74 192 q 195 283 126 235 q 324 381 264 332 l 321 383 l 151 354 l -7 182 l -22 228 l 75 346 q 38 383 38 353 q 96 476 38 421 q 189 532 154 532 q 224 483 224 532 q 312 501 271 490 q 375 517 353 511 q 408 524 397 524 q 439 479 425 524 q 453 414 453 435 q 411 360 453 388 l 233 231 q 306 121 289 189 l 525 290 l 529 231 m 208 -29 l 49 -154 q -26 -267 -19 -208 q 122 -174 47 -247 q 208 -29 196 -101 m 403 682 l 525 733 q 572 751 567 751 q 585 732 585 751 q 497 651 585 686 l 385 607 q 271 575 303 575 q 192 632 244 575 q 180 643 190 633 q 163 659 169 653 q 151 675 157 665 q 144 692 144 685 q 174 731 144 710 q 201 751 196 744 q 261 702 213 746 q 333 658 310 658 q 403 682 344 658 z "},"":{"ha":903,"x_min":-28,"x_max":958,"o":"m 431 433 l 656 851 q 736 974 696 924 q 863 1060 808 1060 q 924 1024 889 1060 q 958 935 958 988 q 953 842 958 885 q 940 774 947 800 q 917 696 932 747 q 890 603 901 644 q 896 601 892 603 q 901 600 900 600 q 906 599 903 600 q 911 597 910 597 q 915 594 913 596 q 919 590 918 592 q 922 586 921 589 q 924 581 922 583 q 923 563 926 572 q 911 542 919 553 q 894 520 903 531 q 872 497 885 510 q 851 477 860 485 q 831 460 842 469 q 817 449 819 451 q 763 414 782 414 q 715 467 728 414 q 724 601 701 518 q 779 744 747 685 q 818 843 824 825 q 810 850 815 850 q 782 828 797 850 l 738 761 l 546 419 q 629 398 586 414 q 679 354 672 382 q 654 325 688 325 q 621 331 644 325 q 594 336 597 336 l 506 353 l 414 190 l 324 28 q 201 -140 286 -40 q 67 -240 115 -240 q -1 -200 31 -240 q -28 -89 -32 -160 q -23 -49 -26 -65 q -14 -15 -19 -32 q 9 56 -8 1 q 46 181 26 111 q 15 200 19 183 q 72 281 8 224 q 92 298 74 282 q 121 324 110 314 q 148 343 132 333 q 174 353 164 353 q 217 311 206 353 q 201 149 235 242 q 117 -19 167 57 q 121 -46 106 -46 q 174 1 135 -46 q 253 118 213 49 l 396 369 l 328 372 l 229 363 q 267 431 247 415 q 344 440 286 446 l 431 433 z "},"":{"ha":556,"x_min":104,"x_max":544,"o":"m 286 626 l 164 575 q 117 557 122 557 q 104 576 104 557 q 192 657 104 622 l 304 701 q 418 733 386 733 q 497 676 444 733 q 509 665 499 675 q 526 649 519 656 q 538 633 532 643 q 544 617 544 624 q 515 578 544 599 q 488 557 493 564 q 428 606 476 563 q 356 650 379 650 q 286 626 344 650 z "},"":{"ha":474,"x_min":125,"x_max":565,"o":"m 383 682 l 506 733 q 553 751 547 751 q 565 732 565 751 q 478 651 565 686 l 365 607 q 251 575 283 575 q 172 632 225 575 q 160 643 171 633 q 144 659 150 653 q 131 675 138 665 q 125 692 125 685 q 154 731 125 710 q 182 751 176 744 q 242 702 193 746 q 314 658 290 658 q 383 682 325 658 z "},"":{"ha":472,"x_min":94,"x_max":569,"o":"m 156 678 q 280 671 215 672 q 436 672 344 669 q 569 674 528 674 l 569 671 q 549 613 565 671 q 514 556 532 554 q 94 556 269 568 q 97 575 94 558 q 100 599 99 592 q 105 622 101 607 q 112 645 108 638 q 122 663 115 653 q 136 676 128 672 q 156 678 144 679 z "},"":{"ha":472,"x_min":140,"x_max":581,"o":"m 328 575 q 231 600 278 575 q 163 651 185 625 q 140 689 140 676 q 169 728 140 707 q 197 749 182 736 q 252 705 225 733 q 306 660 279 676 q 375 644 332 644 q 524 728 442 650 q 545 741 529 733 q 568 749 561 749 q 581 729 581 749 q 497 629 581 683 q 328 575 414 575 z "},"":{"ha":472,"x_min":276,"x_max":485,"o":"m 364 583 q 324 590 339 586 q 292 606 308 593 q 276 642 276 619 q 319 744 276 688 q 417 790 363 801 q 431 788 419 790 q 450 784 443 786 q 466 778 457 782 q 480 765 475 774 q 485 746 485 757 q 474 701 485 738 q 433 622 463 664 q 364 583 403 579 z "},"":{"ha":408,"x_min":300,"x_max":524,"o":"m 460 786 l 510 758 q 524 715 524 744 q 493 608 524 654 q 404 561 463 561 q 332 591 364 561 q 300 661 300 621 q 347 758 300 710 q 418 806 393 806 q 460 786 425 806 m 433 736 q 369 621 369 689 q 373 614 369 619 q 376 607 376 608 q 431 668 422 647 q 438 701 438 683 q 433 736 438 719 z "},"":{"ha":472,"x_min":272,"x_max":549,"o":"m 467 -10 l 443 -18 q 371 -86 371 -44 q 436 -136 371 -136 q 500 -124 464 -136 q 539 -112 536 -112 q 549 -124 549 -112 q 511 -153 549 -139 q 386 -181 449 -181 q 307 -160 342 -181 q 272 -97 272 -139 q 293 -51 272 -71 q 330 -26 314 -32 q 382 -10 346 -21 q 390 -7 388 -8 l 467 -7 l 467 -10 z "},"":{"ha":472,"x_min":157,"x_max":468,"o":"m 210 692 l 390 674 l 393 676 q 344 725 344 710 q 350 738 344 732 q 363 744 356 744 q 427 704 386 744 q 468 628 468 664 q 408 569 468 569 q 323 580 381 569 q 236 589 265 590 q 247 579 242 585 q 256 572 253 574 q 261 567 258 569 q 265 563 264 564 q 268 559 267 561 q 269 555 269 557 q 269 550 269 553 q 256 536 269 536 q 218 556 246 536 q 205 565 214 558 q 190 574 196 571 q 178 584 185 578 q 167 596 171 590 q 160 610 163 601 q 157 626 157 618 q 168 676 157 660 q 210 692 179 692 z "},"":{"ha":482,"x_min":53,"x_max":518,"o":"m 115 860 l 153 935 q 177 978 169 969 q 196 988 185 988 q 208 985 201 988 q 218 978 214 982 q 228 970 222 975 q 236 963 233 965 q 275 929 272 936 q 249 889 278 919 q 176 796 214 851 q 115 675 129 718 q 94 633 103 643 q 72 626 82 618 q 53 693 47 647 q 115 860 58 746 m 357 860 l 394 935 q 419 978 411 969 q 438 988 426 988 q 449 985 443 988 q 460 978 456 982 q 469 970 464 975 q 478 963 475 965 q 517 929 514 936 q 490 889 519 919 q 418 796 456 851 q 357 675 371 718 q 336 633 344 643 q 314 626 324 618 q 294 693 289 647 q 357 860 300 746 z "},"":{"ha":1013,"x_min":17,"x_max":1006,"o":"m 246 108 l 246 111 q 153 268 182 172 q 156 483 125 364 q 352 782 201 663 q 689 901 503 901 q 961 777 876 901 q 1006 489 1046 653 q 898 268 975 365 q 726 111 821 171 l 725 108 l 931 108 l 903 0 l 546 0 l 565 81 q 744 226 664 129 q 860 463 824 322 q 840 692 892 593 q 661 792 789 792 q 430 697 533 792 q 290 458 326 601 q 290 226 258 326 q 394 81 322 125 l 375 0 l 17 0 l 43 108 l 246 108 z "},"":{"ha":664,"x_min":-217,"x_max":750,"o":"m 324 246 l 461 369 q 489 395 463 371 q 535 438 515 419 q 583 478 556 456 q 631 515 610 501 q 661 528 651 528 q 693 451 688 528 q 636 367 696 419 q 542 260 590 325 q 493 154 493 196 q 528 124 493 124 q 742 254 578 124 l 750 194 q 710 155 744 189 q 657 104 675 121 q 603 56 639 88 q 541 9 567 25 q 485 -20 515 -7 q 429 -33 454 -33 q 369 -6 392 -33 q 347 58 347 21 q 376 175 347 99 l 374 178 q 314 117 363 168 q 225 35 265 65 q 150 6 185 6 q 58 65 106 6 q -92 -160 -18 -89 q -217 -203 -165 -231 q -172 -53 -310 -153 q 67 286 -74 18 q 238 475 128 403 q 299 490 261 490 q 315 491 301 490 q 339 492 329 492 q 361 490 349 492 q 379 480 374 488 q 383 461 385 472 q 363 423 382 446 q 328 388 343 400 q 222 288 269 321 q 169 234 192 267 q 146 168 146 201 q 157 146 146 149 q 228 176 178 147 q 324 246 278 204 z "},"":{"ha":817,"x_min":36,"x_max":914,"o":"m 874 550 l 768 550 l 681 197 q 650 0 647 67 l 514 0 q 538 186 501 38 l 628 550 l 404 550 q 296 251 365 421 q 172 0 226 82 l 36 0 q 164 265 96 100 q 265 550 232 429 q 114 535 160 550 l 118 624 q 342 663 185 663 l 914 663 l 874 550 z "},"":{"ha":694,"x_min":0,"x_max":694,"o":"m 0 322 l 0 444 l 694 444 l 694 322 l 0 322 z "},"":{"ha":1389,"x_min":0,"x_max":1389,"o":"m 0 444 l 1389 444 l 1389 322 l 0 322 l 0 444 z "},"":{"ha":418,"x_min":149,"x_max":357,"o":"m 347 814 q 306 725 347 771 q 219 679 264 679 q 149 711 149 679 q 172 790 149 738 q 214 865 194 843 q 243 899 229 885 q 267 924 257 914 q 288 940 276 933 q 306 949 300 946 q 321 955 311 953 q 333 957 331 957 q 346 957 336 957 q 357 957 356 957 q 294 863 311 896 q 321 853 313 857 q 338 840 329 850 q 347 814 347 829 z "},"":{"ha":418,"x_min":243,"x_max":451,"o":"m 253 817 q 294 906 253 860 q 381 951 336 951 q 451 919 451 951 q 428 840 451 893 q 386 765 406 788 q 357 731 371 746 q 333 707 343 717 q 312 691 324 697 q 294 681 300 685 q 279 676 289 678 q 267 674 269 674 q 254 674 264 674 q 243 674 244 674 q 306 768 289 735 q 279 777 288 774 q 262 791 271 781 q 253 817 253 801 z "},"":{"ha":418,"x_min":68,"x_max":276,"o":"m 78 60 q 119 149 78 103 q 206 194 161 194 q 276 163 276 194 q 253 83 276 136 q 211 8 231 31 q 182 -26 196 -11 q 158 -50 168 -40 q 137 -66 149 -60 q 119 -76 125 -72 q 104 -81 114 -79 q 92 -83 94 -83 q 79 -83 89 -83 q 68 -83 69 -83 q 131 11 114 -22 q 104 20 113 17 q 87 34 96 24 q 78 60 78 44 z "},"":{"ha":653,"x_min":217,"x_max":660,"o":"m 650 814 q 608 725 650 771 q 522 679 567 679 q 451 711 451 679 q 474 790 451 738 q 517 865 497 843 q 546 899 532 885 q 569 924 560 914 q 591 940 579 933 q 608 949 603 946 q 624 955 614 953 q 636 957 633 957 q 649 957 639 957 q 660 957 658 957 q 597 863 614 896 q 624 853 615 857 q 641 840 632 850 q 650 814 650 829 m 415 814 q 374 725 415 771 q 288 679 332 679 q 217 711 217 679 q 240 790 217 738 q 282 865 263 843 q 311 899 297 885 q 335 924 325 914 q 356 940 344 933 q 374 949 368 946 q 389 955 379 953 q 401 957 399 957 q 414 957 404 957 q 425 957 424 957 q 363 863 379 896 q 389 853 381 857 q 406 840 397 850 q 415 814 415 829 z "},"":{"ha":653,"x_min":171,"x_max":614,"o":"m 181 817 q 222 906 181 860 q 308 951 264 951 q 379 919 379 951 q 356 840 379 893 q 314 765 333 788 q 285 731 299 746 q 261 707 271 717 q 240 691 251 697 q 222 681 228 685 q 207 676 217 678 q 194 674 197 674 q 182 674 192 674 q 171 674 172 674 q 233 768 217 735 q 207 777 215 774 q 190 791 199 781 q 181 817 181 801 m 415 817 q 457 906 415 860 q 543 951 499 951 q 614 919 614 951 q 591 840 614 893 q 549 765 568 788 q 519 731 533 746 q 496 707 506 717 q 474 691 486 697 q 457 681 463 685 q 442 676 451 678 q 429 674 432 674 q 417 674 426 674 q 406 674 407 674 q 468 768 451 735 q 442 777 450 774 q 424 791 433 781 q 415 817 415 801 z "},"":{"ha":653,"x_min":68,"x_max":511,"o":"m 78 60 q 119 149 78 103 q 206 194 161 194 q 276 163 276 194 q 253 83 276 136 q 211 8 231 31 q 182 -26 196 -11 q 158 -50 168 -40 q 137 -66 149 -60 q 119 -76 125 -72 q 104 -81 114 -79 q 92 -83 94 -83 q 79 -83 89 -83 q 68 -83 69 -83 q 131 11 114 -22 q 104 20 113 17 q 87 34 96 24 q 78 60 78 44 m 313 60 q 354 149 313 103 q 440 194 396 194 q 511 163 511 194 q 488 83 511 136 q 446 8 465 31 q 417 -26 431 -11 q 393 -50 403 -40 q 372 -66 383 -60 q 354 -76 360 -72 q 339 -81 349 -79 q 326 -83 329 -83 q 314 -83 324 -83 q 303 -83 304 -83 q 365 11 349 -22 q 339 20 347 17 q 322 34 331 24 q 313 60 313 44 z "},"":{"ha":728,"x_min":140,"x_max":788,"o":"m 481 919 l 614 919 l 529 635 l 788 646 l 757 524 l 504 535 l 367 -67 l 235 -67 l 397 535 l 140 524 l 171 646 l 422 635 l 481 919 z "},"":{"ha":728,"x_min":57,"x_max":793,"o":"m 482 919 l 610 919 l 533 654 l 793 665 l 763 546 l 510 557 l 444 297 l 704 308 l 674 189 l 421 200 l 364 -67 l 236 -67 l 311 200 l 57 189 l 86 308 l 336 297 l 401 557 l 146 546 l 175 665 l 425 654 l 482 919 z "},"":{"ha":556,"x_min":74,"x_max":600,"o":"m 600 586 q 569 448 600 525 q 474 308 538 371 q 336 246 411 246 q 226 261 283 246 q 122 316 169 276 q 74 410 74 356 q 84 472 74 432 q 119 561 94 511 q 178 652 143 611 q 267 718 213 693 q 386 736 322 743 q 537 700 474 736 q 600 586 600 664 z "},"":{"ha":1389,"x_min":128,"x_max":1261,"o":"m 215 -7 q 175 -1 190 -4 q 144 16 160 3 q 128 51 128 29 q 171 154 128 97 q 268 200 214 211 q 283 198 271 200 q 301 194 294 196 q 317 188 308 192 q 331 175 326 183 q 336 156 336 167 q 325 110 336 147 q 284 31 314 74 q 215 -7 254 -11 m 678 -7 q 638 -1 653 -4 q 606 16 622 3 q 590 51 590 29 q 633 154 590 97 q 731 200 676 211 q 745 198 733 200 q 764 194 757 196 q 780 188 771 192 q 794 175 789 183 q 799 156 799 167 q 788 110 799 147 q 747 31 776 74 q 678 -7 717 -11 m 1140 -7 q 1100 -1 1115 -4 q 1069 16 1085 3 q 1053 51 1053 29 q 1096 154 1053 97 q 1193 200 1139 211 q 1208 198 1196 200 q 1226 194 1219 196 q 1242 188 1233 192 q 1256 175 1251 183 q 1261 156 1261 167 q 1250 110 1261 147 q 1209 31 1239 74 q 1140 -7 1179 -11 z "},"":{"ha":1678,"x_min":146,"x_max":1661,"o":"m 450 901 l 451 901 q 592 831 546 901 q 607 638 638 760 q 489 431 575 507 q 307 354 403 354 q 165 427 214 354 q 146 622 115 500 q 264 824 178 747 q 450 901 350 901 m 426 821 l 425 821 q 323 767 368 821 q 257 628 278 713 q 255 487 235 539 q 331 435 275 435 q 429 486 385 435 q 496 629 474 538 q 503 767 519 714 q 426 821 486 821 m 1504 536 l 1506 536 q 1646 465 1600 536 q 1661 272 1692 394 q 1543 66 1629 142 q 1361 -10 1457 -10 q 1219 63 1268 -10 q 1201 257 1171 135 q 1319 460 1233 383 q 1504 536 1404 536 m 1479 456 l 1478 456 q 1378 401 1422 456 q 1311 263 1333 347 q 1309 122 1289 174 q 1383 71 1329 71 q 1483 122 1439 71 q 1551 265 1528 172 q 1479 456 1599 456 m 976 536 l 978 536 q 1118 465 1072 536 q 1133 272 1164 394 q 1015 66 1101 142 q 833 -10 929 -10 q 692 63 740 -10 q 674 257 643 135 q 790 459 704 382 q 976 536 876 536 m 951 456 q 850 401 894 456 q 783 263 806 347 q 781 123 761 175 q 856 71 801 71 q 956 122 911 71 q 1024 265 1000 172 q 951 456 1071 456 m 294 -14 l 211 -14 l 968 900 l 1053 900 l 294 -14 z "},"":{"ha":296,"x_min":53,"x_max":290,"o":"m 239 157 q 120 228 196 157 q 53 343 44 300 q 92 425 53 375 q 128 482 104 446 q 170 549 151 518 q 203 611 189 579 q 219 578 206 603 q 240 533 232 553 q 247 497 247 514 q 217 443 247 481 q 178 389 201 426 q 154 338 154 351 q 161 322 154 332 q 187 298 168 311 q 232 278 206 285 q 290 211 290 263 q 276 172 290 188 q 239 157 263 157 z "},"":{"ha":296,"x_min":97,"x_max":335,"o":"m 149 611 q 267 540 192 611 q 335 425 343 468 q 296 343 335 393 q 260 286 283 322 q 217 219 236 250 q 185 157 199 189 q 169 190 182 165 q 148 235 156 215 q 140 271 140 254 q 171 325 140 286 q 210 379 186 342 q 233 431 233 417 q 226 447 233 436 q 201 470 219 457 q 156 490 182 483 q 97 557 97 506 q 111 596 97 581 q 149 611 125 611 z "},"":{"ha":239,"x_min":-235,"x_max":604,"o":"m -146 -14 l -235 -14 l 514 901 l 604 901 l -146 -14 z "},"":{"ha":785,"x_min":56,"x_max":890,"o":"m 890 849 l 854 704 q 663 769 797 769 q 390 594 465 769 l 778 594 l 708 483 l 344 483 q 335 447 336 454 q 325 404 328 419 l 658 404 l 589 293 l 314 293 q 356 160 308 207 q 501 113 404 113 q 724 179 631 113 l 686 32 q 449 -18 606 -18 q 228 59 301 -18 q 165 293 154 136 l 56 293 l 125 404 l 181 404 q 189 446 183 424 q 201 483 194 469 l 103 483 l 172 594 l 239 594 q 413 819 303 736 q 679 901 522 901 q 890 849 821 901 z "},"":{"ha":697,"x_min":50,"x_max":708,"o":"m 617 221 l 664 164 q 340 -12 522 -12 q 188 48 232 -12 q 157 204 144 108 q 160 218 157 210 q 117 192 147 211 q 71 163 88 172 l 50 236 q 183 324 160 307 l 265 651 q 392 896 307 817 q 576 975 476 975 q 700 913 668 975 q 708 756 732 850 q 581 533 681 643 q 310 296 481 422 l 300 257 q 311 138 282 179 q 399 96 340 96 q 514 133 456 96 q 617 221 572 169 m 401 668 l 340 419 q 614 756 578 617 q 557 879 644 879 q 472 829 515 879 q 401 668 429 779 z "},"":{"ha":1017,"x_min":99,"x_max":1053,"o":"m 479 950 l 479 849 l 349 849 l 349 500 l 226 500 l 226 849 l 99 849 l 99 950 l 479 950 m 714 950 l 792 728 l 794 728 l 871 950 l 1053 950 l 1053 500 l 931 500 l 931 818 l 928 818 l 821 500 l 764 500 l 656 818 l 653 818 l 653 500 l 531 500 l 531 950 l 714 950 z "},"":{"ha":1013,"x_min":17,"x_max":1006,"o":"m 246 108 l 246 111 q 153 268 182 172 q 156 483 125 364 q 352 782 201 663 q 689 901 503 901 q 961 777 876 901 q 1006 489 1046 653 q 898 268 975 365 q 726 111 821 171 l 725 108 l 931 108 l 903 0 l 546 0 l 565 81 q 744 226 664 129 q 860 463 824 322 q 840 692 892 593 q 661 792 789 792 q 430 697 533 792 q 290 458 326 601 q 290 226 258 326 q 394 81 322 125 l 375 0 l 17 0 l 43 108 l 246 108 z "},"":{"ha":1289,"x_min":222,"x_max":1246,"o":"m 1246 429 l 418 429 q 411 424 411 429 l 411 174 q 422 144 411 158 q 735 8 554 8 q 917 49 832 8 q 1065 161 1003 90 l 1139 161 q 963 30 1069 78 q 733 -18 856 -18 q 372 117 522 -18 q 222 442 222 251 q 372 767 222 632 q 733 903 522 903 q 1096 767 946 903 q 1246 442 1246 632 l 1246 429 m 1058 463 l 1058 714 q 1046 744 1058 732 q 735 875 913 875 q 424 740 556 875 q 411 708 411 728 l 411 463 q 418 454 411 454 l 1053 454 q 1058 463 1058 454 z "},"":{"ha":778,"x_min":69,"x_max":792,"o":"m 300 824 l 281 919 q 544 994 399 994 q 774 865 700 994 q 792 508 849 736 q 598 133 736 281 q 283 -14 460 -14 q 166 14 215 -14 q 97 86 117 42 q 70 183 76 131 q 79 286 64 236 q 223 522 115 431 q 457 613 331 613 q 588 572 539 613 q 650 489 636 531 l 651 489 q 665 540 663 525 q 656 787 703 689 q 501 885 608 885 q 300 824 394 885 m 325 96 l 326 96 q 488 179 410 96 q 607 375 565 263 q 564 464 603 421 q 457 507 525 507 q 309 442 379 507 q 215 286 239 378 q 226 150 196 204 q 325 96 256 96 z "},"":{"ha":911,"x_min":-6,"x_max":849,"o":"m -6 0 l 14 82 l 558 910 l 722 910 l 849 83 l 828 0 l -6 0 m 164 108 l 701 108 l 631 544 q 616 653 628 564 q 603 775 604 743 l 597 775 q 536 675 585 753 q 468 565 488 597 l 164 108 z "},"":{"ha":1161,"x_min":208,"x_max":1128,"o":"m 1128 767 l 976 767 l 976 -122 l 842 -122 l 842 767 l 493 767 l 493 -122 l 358 -122 l 358 767 l 208 767 l 208 886 l 1128 886 l 1128 767 z "},"":{"ha":949,"x_min":206,"x_max":922,"o":"m 922 -122 l 206 -122 l 206 -39 l 560 381 l 221 794 l 221 886 l 900 886 l 900 772 l 411 772 l 411 767 l 717 399 l 385 3 l 385 0 l 922 0 l 922 -122 z "},"":{"ha":822,"x_min":122,"x_max":756,"o":"m 756 319 l 122 319 l 122 403 l 756 403 l 756 319 z "},"":{"ha":239,"x_min":-235,"x_max":604,"o":"m -146 -14 l -235 -14 l 514 901 l 604 901 l -146 -14 z "},"":{"ha":418,"x_min":172,"x_max":381,"o":"m 260 206 q 219 212 235 208 q 188 228 204 215 q 172 264 172 242 q 215 367 172 310 q 313 413 258 424 q 327 410 315 413 q 346 406 339 408 q 362 400 353 404 q 376 388 371 396 q 381 368 381 379 q 369 323 381 360 q 328 244 358 286 q 260 206 299 201 z "},"":{"ha":979,"x_min":224,"x_max":993,"o":"m 993 1057 l 681 -186 l 567 -186 l 350 386 l 249 347 l 224 422 l 432 506 l 597 53 q 611 3 601 36 q 624 -42 621 -29 l 625 -43 q 635 11 628 -28 q 644 57 643 50 l 893 1057 l 993 1057 z "},"":{"ha":1143,"x_min":165,"x_max":1076,"o":"m 1076 368 l 1076 367 q 1014 207 1076 268 q 865 146 951 146 q 747 182 804 146 q 622 301 690 218 q 501 185 557 225 q 371 146 446 146 q 226 208 288 146 q 165 361 165 269 q 227 519 165 457 q 382 581 289 581 q 508 541 451 581 q 628 426 565 501 q 679 483 664 467 q 729 528 694 499 q 799 569 764 557 q 875 581 833 581 q 1019 522 963 581 q 1076 368 1076 463 m 382 222 l 383 222 q 409 224 396 222 q 435 233 422 226 q 458 244 449 239 q 481 260 468 249 q 501 277 494 272 q 523 297 508 282 q 542 317 538 313 q 561 339 546 322 q 579 358 576 356 q 544 403 553 392 q 510 440 535 414 q 469 476 486 465 q 427 496 453 486 q 375 506 401 506 q 282 464 317 506 q 247 360 247 422 q 285 263 247 303 q 382 222 322 222 m 867 506 l 865 506 q 817 497 840 506 q 769 468 794 489 q 733 438 744 447 q 696 397 722 428 q 668 365 669 367 q 778 254 736 286 q 869 222 821 222 q 960 265 926 222 q 994 361 994 308 q 959 466 994 426 q 867 506 924 506 z "},"":{"ha":682,"x_min":197,"x_max":663,"o":"m 663 1072 l 646 983 q 594 996 624 996 q 525 964 549 996 q 483 744 483 915 q 493 438 483 644 q 503 122 503 232 q 449 -132 503 -47 q 296 -212 401 -212 q 197 -190 233 -212 l 217 -97 q 279 -112 251 -112 q 340 -85 318 -112 q 385 122 385 -33 q 374 445 385 235 q 364 758 364 656 q 442 1036 364 960 q 583 1090 494 1090 q 663 1072 629 1090 z "},"":{"ha":864,"x_min":154,"x_max":806,"o":"m 756 571 l 806 522 q 625 393 732 393 q 553 406 585 393 q 465 449 521 418 q 342 493 385 493 q 286 478 313 493 q 244 444 260 463 q 206 396 228 426 l 154 443 q 238 537 186 501 q 350 572 290 572 q 376 571 364 572 q 402 565 389 569 q 424 558 415 561 q 445 549 432 556 q 464 540 458 543 q 483 530 469 538 q 499 521 496 522 q 516 511 503 518 q 533 502 529 504 q 548 494 538 500 q 563 487 558 489 q 577 481 568 485 q 592 477 586 478 q 608 475 599 476 q 625 474 617 474 q 756 571 694 474 m 756 332 l 806 283 q 624 154 732 154 q 553 167 585 154 q 465 210 521 179 q 342 254 388 254 q 269 230 299 254 q 206 157 240 206 l 154 204 q 238 298 186 263 q 350 333 290 333 q 381 331 365 333 q 409 325 397 328 q 435 315 421 322 q 458 305 450 308 q 480 294 465 301 q 499 283 494 286 q 523 269 506 279 q 548 256 540 260 q 570 245 556 251 q 598 237 585 239 q 625 235 611 235 q 694 258 664 235 q 756 332 724 282 z "},"":{"ha":894,"x_min":194,"x_max":828,"o":"m 681 661 l 624 536 l 828 536 l 828 454 l 590 454 l 503 267 l 828 267 l 828 186 l 469 186 l 397 28 l 332 57 l 392 186 l 194 186 l 194 267 l 426 267 l 511 454 l 194 454 l 194 536 l 544 536 l 615 690 l 681 661 z "},"":{"ha":922,"x_min":222,"x_max":856,"o":"m 851 122 l 229 418 l 229 506 l 851 801 l 851 707 l 315 464 l 315 461 l 851 217 l 851 122 m 856 -11 l 222 -11 l 222 71 l 856 71 l 856 -11 z "},"":{"ha":922,"x_min":224,"x_max":853,"o":"m 231 801 l 853 504 l 853 418 l 231 122 l 231 217 l 767 461 l 767 463 l 231 707 l 231 801 m 853 -11 l 224 -11 l 224 71 l 853 71 l 853 -11 z "},"":{"ha":981,"x_min":250,"x_max":911,"o":"m 911 443 l 632 -64 l 525 -64 l 250 443 l 528 950 l 636 950 l 911 443 m 789 439 l 607 778 q 582 843 589 815 l 578 843 q 551 778 569 814 l 371 446 l 554 104 q 579 40 572 65 l 583 40 q 607 103 592 76 l 789 439 z "},"":{"ha":803,"x_min":-119,"x_max":842,"o":"m 31 -232 q 137 -113 97 -187 q 167 38 176 -39 q 67 49 107 33 q 3 -108 10 -47 q 31 -232 -4 -165 m 417 238 q 524 406 447 332 q 656 479 601 479 q 717 440 717 479 q 649 321 717 394 q 521 207 581 247 q 594 119 504 119 q 651 133 621 119 q 701 160 681 146 q 753 199 721 174 q 796 233 785 225 l 808 181 q 667 41 744 103 q 518 -21 589 -21 q 430 31 461 -21 q 399 144 399 83 q 400 153 399 151 l 397 156 q 268 64 329 93 q 269 -12 272 43 q 156 -230 261 -126 q -37 -346 50 -333 q -87 -317 -67 -350 q -113 -247 -107 -283 q -119 -181 -119 -210 q -115 -133 -119 -158 q -103 -87 -110 -107 q -84 -35 -97 -67 q -65 10 -71 -4 q -42 58 -58 25 q -22 99 -26 92 q -62 178 -62 142 q -61 195 -62 188 q -57 210 -60 203 q -52 222 -54 217 q -43 232 -50 226 q -34 241 -36 238 q -23 249 -32 244 q -11 256 -14 254 q 3 264 -8 258 q 15 271 14 269 q 110 347 72 301 q 185 460 147 392 q 237 554 208 504 q 313 682 265 604 q 403 809 360 760 q 471 858 446 858 q 504 797 504 858 q 481 698 504 758 q 432 603 457 638 l 172 240 q 193 224 183 233 q 210 202 203 215 q 222 181 218 189 q 235 154 226 174 q 244 131 243 135 l 417 238 m 731 507 q 690 524 706 507 q 675 567 675 542 q 715 641 675 608 q 796 674 754 674 q 828 661 815 674 q 842 631 842 649 q 808 547 842 588 q 731 507 774 507 z "},"":{"ha":817,"x_min":-119,"x_max":860,"o":"m 31 -232 q 137 -113 97 -187 q 167 38 176 -39 q 67 49 107 33 q 3 -108 10 -47 q 31 -232 -4 -165 m 811 247 l 831 206 q 760 135 783 157 q 687 69 738 113 q 591 6 636 26 q 504 -14 546 -14 q 381 140 392 -14 q 268 64 324 90 q 269 -12 272 43 q 156 -230 261 -126 q -37 -346 50 -333 q -87 -317 -67 -350 q -113 -247 -107 -283 q -119 -181 -119 -210 q -115 -133 -119 -158 q -103 -87 -110 -107 q -84 -35 -97 -67 q -65 10 -71 -4 q -42 58 -58 25 q -22 99 -26 92 q -62 178 -62 142 q -61 195 -62 188 q -57 210 -60 203 q -52 222 -54 217 q -43 232 -50 226 q -34 241 -36 238 q -23 249 -32 244 q -11 256 -14 254 q 3 264 -8 258 q 15 271 14 269 q 110 347 72 301 q 185 460 147 392 q 237 554 208 504 q 313 682 265 604 q 403 809 360 760 q 471 858 446 858 q 504 797 504 858 q 481 698 504 758 q 432 603 457 638 l 172 240 q 193 224 183 233 q 210 202 203 215 q 222 181 218 189 q 235 154 226 174 q 244 131 243 135 l 381 217 q 433 409 392 313 q 533 581 474 506 q 714 780 628 699 q 832 861 800 861 q 854 844 847 861 q 860 810 861 828 q 843 708 856 753 q 797 598 831 663 q 692 451 763 533 q 513 264 622 369 q 503 168 492 224 q 572 108 526 108 q 811 247 657 108 m 544 392 q 674 544 614 457 q 756 694 733 631 l 754 693 l 751 696 q 542 394 639 604 l 544 392 z "}}}
